<svg width="334" height="121" viewBox="0 0 334 121" fill="none" xmlns="http://www.w3.org/2000/svg">
<path d="M54.5596 61.4315C56.9283 60.9588 59.2971 60.4861 61.671 60.0082C62.2632 59.8887 62.8554 59.8887 63.5671 59.8887C64.9904 59.8887 66.0553 60.6004 67.0007 61.6653C67.1202 61.9042 67.2397 62.138 67.3539 62.3769C67.7072 63.3224 67.4734 64.1535 66.5228 64.5119C66.2838 64.6314 66.1696 64.6314 65.9306 64.7509C63.2034 65.3431 60.4814 66.408 57.8737 67.2391C56.5699 67.7118 55.266 68.1897 53.9622 68.543C53.6089 68.6624 53.37 68.7819 53.131 68.8962C53.131 69.2494 53.0116 69.4884 53.0116 69.7274C52.8921 72.2156 52.8921 74.8233 52.7726 77.3115C52.5336 79.9192 52.2999 82.5269 52.1804 85.1294C52.1804 85.4827 52.1804 85.8411 52.0609 86.1944C51.7077 91.4098 51.822 96.7395 51.822 102.069C51.822 104.438 51.822 106.926 51.822 109.295C51.822 110.832 51.3493 111.31 49.926 111.664C49.0948 111.783 48.3883 111.664 47.791 111.31C46.8455 110.957 46.2533 109.887 46.3676 108.822C46.3676 108.583 46.4871 108.349 46.3676 108.111C46.2481 106.573 46.1287 105.03 46.0144 103.487C45.8949 102.183 45.7754 100.88 45.6611 99.4614C45.4222 97.0927 45.1884 94.7239 44.9495 92.35C44.7105 88.6774 44.0041 85.0048 43.5262 81.4517C43.4067 79.5556 43.1729 77.7791 43.0534 76.0025C42.934 75.0519 42.8145 73.9869 42.7002 72.922C42.4613 72.922 42.2275 72.922 42.108 72.922C37.3705 74.6986 32.6278 76.5947 27.7708 78.3712C27.6513 78.3712 27.6513 78.4907 27.4176 78.4907C27.2981 79.2024 27.2981 79.914 27.1786 80.6257C26.8254 88.4436 26.8254 96.2668 26.9397 104.085C26.9397 108.708 26.9397 113.326 26.9397 117.949C26.9397 118.422 26.8202 119.014 26.7007 119.606C26.7007 120.198 26.228 120.552 25.6358 120.791C24.093 121.383 22.5554 120.671 21.9632 119.253C21.7243 118.661 21.61 118.069 21.4905 117.476C21.2516 115.819 21.0178 114.038 20.7788 112.381C20.5399 110.012 20.3061 107.643 20.0672 105.274C19.9477 103.617 19.9477 101.955 19.8282 100.298C19.475 96.2719 19.3555 92.1214 19.236 88.0956C19.236 86.319 19.236 84.6619 19.1166 82.8802C19.1166 82.6412 19.1166 82.288 19.1166 81.9347C18.6439 82.0542 18.4049 82.1737 18.0517 82.288C14.3791 83.8256 10.8259 85.2489 7.15332 86.7917C6.2079 87.145 5.25728 87.5034 4.31185 87.8566C2.88852 88.4488 1.58467 87.8566 0.639242 86.7917C0.400289 86.6722 0.286013 86.4385 0.166537 86.1995C-0.0724166 85.6073 -0.0724188 85.0152 0.286011 84.5425C0.524964 84.3035 0.639246 84.0697 0.878199 83.9503C1.70934 83.2386 2.41581 82.5269 3.24695 81.9347C7.87018 78.3816 12.9609 75.535 18.2958 72.9324C18.5348 72.813 18.888 72.5792 19.3607 72.4597C19.3607 71.2754 19.4802 70.2105 19.4802 69.1404C19.7191 65.4678 20.0724 61.7951 20.5451 58.1225C21.0178 54.0915 21.61 49.9462 22.4411 45.9203C23.6255 39.879 25.1683 33.8324 27.0644 27.9105C28.2487 23.999 29.5526 20.2069 31.2097 16.42C31.8019 14.9967 32.633 13.4591 33.3447 12.0357C33.8174 11.2046 34.4096 10.2592 35.0018 9.5475C36.5394 7.65146 38.5549 6.93979 40.9236 7.4125C44.243 8.00469 46.6118 9.78126 48.2689 12.6279C49.1 14.1655 49.6922 15.8278 50.0454 17.4849C50.8766 20.0926 51.2298 22.7003 51.583 25.4223C52.0557 28.7417 52.2947 32.0559 52.4142 35.3752C52.6531 37.744 52.6531 40.2322 52.7674 42.601C53.0064 48.6423 53.1207 54.8032 53.0064 60.8497C53.0064 61.0887 53.1258 61.3224 53.1258 61.7951C53.6089 61.6705 54.0868 61.551 54.5596 61.4315ZM42.1184 63.447C41.9989 62.3821 41.9989 61.4315 41.8795 60.4861C41.76 57.5251 41.5262 54.4447 41.4067 51.4838C41.2873 47.5722 41.1678 43.5464 40.934 39.6348C40.8145 36.7934 40.5808 33.9467 40.4613 31.1052C40.3419 28.9702 40.2224 26.8404 40.1081 24.5912C40.1081 23.76 39.9886 22.9341 39.9886 22.1029C39.9886 21.9834 39.9886 21.864 39.8691 21.5107C39.6302 21.864 39.5159 21.9835 39.5159 22.2224C38.9237 23.5263 38.3315 24.8301 37.8588 26.2483C32.8824 39.7543 29.6824 53.7383 28.2591 68.0755C28.2591 68.3144 28.2591 68.4287 28.2591 68.7871C32.8823 67.0106 37.3809 65.5872 42.1236 64.2834C42.1184 63.9198 42.1184 63.686 42.1184 63.447Z" fill="#F3F0E8"/>
<path d="M81.5717 61.79C82.5171 60.8446 83.4677 60.0134 84.4131 59.4212C85.717 58.5901 87.1403 57.9979 88.6779 57.8784C90.9272 57.6395 92.9427 58.3512 94.5998 59.894C95.7842 60.9589 96.3764 62.3822 96.4958 63.925C96.7348 65.3483 96.6153 66.6522 96.4958 67.8365C96.1426 69.9715 95.6647 72.1013 94.8388 73.9974C94.1271 75.6545 93.2959 77.0778 91.9973 78.2622C91.0519 79.2128 89.9818 79.9193 88.5636 80.1582C87.6182 80.3972 86.5481 80.3972 85.4832 80.0387C84.4183 79.6855 83.4677 79.0881 82.756 78.0232C82.1638 77.0778 81.6911 76.0077 81.3327 74.8233C81.2132 74.4701 81.0938 73.9922 80.9795 73.5195C80.86 73.639 80.7405 73.7584 80.7405 73.8727C80.3873 74.5844 80.0289 75.4103 79.7951 76.2415C79.5613 77.0726 79.5561 77.8986 79.4418 78.7297C79.2029 81.6907 78.8497 84.7711 78.4964 87.732C78.377 88.7969 78.0237 89.867 77.7848 90.9319C77.5458 92.1163 76.7199 92.8279 75.5355 93.1812C73.7589 93.7734 71.9824 93.6539 70.3201 92.8279C69.2552 92.2357 68.5435 91.4046 68.424 90.1008C68.424 89.7475 68.3046 89.2696 68.3046 88.9164C68.3046 84.7711 68.3046 80.6206 68.424 76.4752C68.5435 75.7636 68.424 74.9376 68.5435 74.1065C68.663 70.5534 68.8968 67.1145 69.0162 63.6808C69.2552 60.7199 69.4889 57.6395 69.7279 54.6785C70.0811 51.3592 70.4395 48.045 70.7928 44.8451C71.385 40.2219 72.0966 35.6038 73.0421 30.9806C74.3459 24.3471 76.1225 17.7083 78.7302 11.4332C79.6756 8.94497 80.8652 6.57622 82.2833 4.32175C82.995 3.25685 83.7067 2.30623 84.5326 1.48028C85.1248 0.888094 85.717 0.415377 86.5481 0.176423C87.9715 -0.415765 90.574 0.529667 91.4051 2.31143C91.8778 3.25685 91.9973 4.20747 91.7583 5.15289C91.0467 5.98403 90.335 5.39184 89.6233 5.27236C89.3844 5.51131 89.2701 5.86455 89.1506 6.1035C88.0857 8.83069 87.2546 11.5527 86.5429 14.2799C85.5975 17.9525 84.8858 21.6251 84.4079 25.2977C83.8157 29.2092 83.343 33.0013 82.8651 36.9077C82.5119 39.5154 82.2729 42.1231 82.034 44.7256C81.6807 48.1593 81.4418 51.7176 81.2028 55.1513C80.9639 57.52 80.8496 59.8888 80.7301 62.2627L80.8496 62.3822C81.2132 62.2627 81.4522 62.0237 81.5717 61.79ZM87.1403 76.1272C87.852 75.2961 88.4442 74.3506 88.9169 73.2857C90.1013 70.678 90.6934 67.8366 90.9324 64.9899C91.0519 63.925 90.9324 63.0938 90.5791 62.1484C90.5791 61.9095 90.3402 61.7952 90.2259 61.5563C88.2104 62.5017 86.5533 63.6912 85.8416 65.821C84.6573 68.6625 84.6573 71.5091 85.6027 74.3506C85.8416 75.0623 86.1949 75.774 86.7871 76.4856C86.9014 76.2415 87.0208 76.2415 87.1403 76.1272Z" fill="#F3F0E8"/>
<path d="M123.866 57.7588C124.105 60.6003 123.866 63.447 123.627 66.2885C123.274 69.0156 122.796 71.7376 122.09 74.4648C121.617 76.0076 121.259 77.5452 120.433 78.9686C120.079 79.7997 119.721 80.5062 119.248 81.1035C117.591 83.4723 115.456 84.184 112.734 83.7113C110.599 83.358 109.062 82.1736 107.997 80.3919C106.932 78.6153 106.34 76.7193 105.981 74.8232C105.509 72.2155 105.389 69.6078 105.509 67.0053C105.981 61.5561 107.166 56.2213 109.42 51.1305C110.132 49.2345 111.077 47.5774 112.262 45.9151C112.734 45.3229 113.207 44.6112 113.804 44.019C115.581 42.123 118.069 42.3619 119.726 43.5463C120.557 44.1385 121.03 45.0891 120.911 46.154C120.791 46.6268 120.791 47.0995 120.791 47.6917C120.791 48.1644 120.672 48.5228 120.199 48.876C122.563 51.4785 123.394 54.4447 123.866 57.7588ZM115.695 76.953C116.407 75.6492 116.999 74.1116 117.472 72.6883C118.656 69.3689 119.248 66.0547 119.607 62.7353C119.846 60.7198 120.079 58.7095 119.726 56.5745C119.487 55.0317 119.134 53.3746 118.303 51.9512C118.303 51.8318 118.064 51.598 117.95 51.3591C117.83 51.7123 117.711 51.9513 117.596 52.1902C116.765 54.559 116.173 57.0472 115.581 59.5354C114.869 62.3769 114.277 65.343 114.158 68.4234C114.038 70.5584 114.038 72.6882 114.158 74.8232C114.158 76.0076 114.277 77.0725 114.63 78.3764C115.217 77.9036 115.456 77.4257 115.695 76.953Z" fill="#F3F0E8"/>
<path d="M142.941 72.9273C144.006 71.5039 144.957 70.0858 145.902 68.543C147.798 65.5821 149.455 62.5016 150.879 59.4212C151.471 58.3563 151.943 57.4057 152.421 56.3408C152.66 55.8681 153.013 55.3954 153.252 54.798C153.845 53.6136 154.91 53.1409 156.213 53.1409C157.159 53.0215 158.109 53.3799 158.941 53.8526C159.652 54.3253 160.125 54.9175 160.244 55.7486C160.364 56.3408 160.483 56.8135 160.483 57.2914C160.483 59.1875 160.483 60.964 160.483 62.7406C160.483 66.2937 160.483 69.8521 160.483 73.2857C160.483 76.4856 160.722 79.6855 161.195 82.8802C161.315 84.6568 161.668 86.5528 162.14 88.3294C162.26 88.5683 162.26 88.8021 162.379 89.041C162.618 88.9216 162.733 88.8021 162.852 88.5683C163.798 87.0307 164.509 85.3684 165.221 83.7113C166.997 79.3271 168.421 74.9428 169.958 70.4391C171.143 66.647 172.327 62.7354 173.631 58.9485C173.751 58.4758 173.631 57.8836 173.75 57.4109C174.223 56.6992 174.935 56.5798 175.766 56.5798C176.478 56.5798 177.189 56.8187 177.543 57.6447C177.543 57.8836 177.543 58.3563 177.423 58.7096C175.647 65.1094 173.87 71.504 172.093 77.9037C171.262 80.8647 170.078 83.7114 168.774 86.5528C168.182 87.8567 167.59 89.1605 166.759 90.3449C166.047 91.4098 165.216 92.3604 164.031 93.0721C162.966 93.5448 162.016 93.9032 160.831 93.7837C159.767 93.7837 158.935 93.4305 158.224 92.7189C157.632 92.1267 157.278 91.5345 156.92 90.8228C156.328 89.7579 155.855 88.5735 155.497 87.5034C154.904 85.1347 154.432 82.6465 154.073 80.2777C153.72 77.7895 153.481 75.1818 153.242 72.574C153.242 71.3897 153.123 70.0858 153.123 68.9014C153.123 68.5482 153.123 68.1898 153.123 67.5976C152.884 68.0703 152.769 68.1898 152.65 68.3093C151.819 69.7326 151.107 71.1507 150.281 72.4546C149.569 73.5195 148.977 74.5896 148.146 75.6545C147.673 76.4856 146.962 77.1921 146.25 77.9037C144.707 79.3271 142.697 80.0387 140.562 79.9193C137.482 79.6803 135.232 78.1427 133.928 75.4155C133.097 73.7584 132.625 71.9819 132.271 70.2001C131.679 66.8807 131.56 63.4471 131.799 60.0082C132.038 57.7589 132.391 55.5045 132.983 53.3747C133.222 52.5436 133.456 51.8371 133.695 51.2397C134.287 49.9358 135.232 49.2242 136.656 48.9904C138.079 48.8709 139.497 49.1099 140.801 49.8215C141.866 50.4137 142.458 51.2449 142.577 52.5487C142.697 53.7331 142.697 55.037 142.577 56.3408C142.458 58.3563 142.339 60.3667 142.224 62.2627C142.105 63.686 141.985 65.2237 141.871 66.647C141.752 68.8963 141.632 71.2702 142.11 73.7584C142.468 73.4 142.707 73.161 142.941 72.9273Z" fill="#F3F0E8"/>
<path d="M207.749 56.5745C207.157 57.7589 206.804 59.0627 206.446 60.3666C204.903 65.6963 202.892 70.9117 200.757 76.0076C199.1 79.9192 197.438 83.8256 195.661 87.7371C194.95 89.3942 194.124 90.937 193.054 92.3604C191.989 93.7837 190.685 94.7291 189.028 95.0876C185.828 95.9187 182.987 95.207 180.618 92.8383C179.553 91.7734 178.841 90.4695 178.249 89.0462C177.304 87.0307 176.706 84.9009 176.234 82.7659C175.522 79.8049 175.169 76.844 174.81 73.7636C174.337 70.5637 174.099 67.2495 173.865 64.0496C173.626 59.1926 173.512 54.3356 173.626 49.5929C173.626 46.0398 173.745 42.4815 173.865 39.0478C173.984 37.6245 174.104 36.2064 174.104 34.783C174.104 34.5441 174.104 34.3103 174.104 34.1908C173.984 34.0714 173.984 34.0714 173.984 33.9519H173.865C173.034 34.0714 172.208 34.0714 171.377 34.1908C170.073 34.3103 168.769 34.3103 167.465 34.0714C166.514 33.9519 165.688 33.5987 164.857 33.0065C164.504 32.7675 164.146 32.4143 163.912 32.061C163.439 31.3494 163.673 30.5182 164.504 30.165C164.977 29.926 165.569 29.9261 166.161 29.9261C166.873 30.0455 167.584 30.0455 168.296 29.9261C169.719 29.8066 171.257 29.5728 172.68 29.4533C173.273 29.3339 173.865 29.3338 174.457 29.2144C174.457 28.9754 174.576 28.7417 174.576 28.5027C174.93 25.1833 175.169 21.9886 175.641 18.6693C175.88 15.8278 176.233 13.1006 176.945 10.2592C177.184 9.42801 177.418 8.48259 177.776 7.65145C178.015 6.70603 178.722 6.22812 179.672 5.99436C180.265 5.87488 180.737 5.87488 181.215 5.87488C182.28 5.99435 183.111 6.34759 184.057 6.82031C185.48 7.76573 186.425 9.06959 186.425 10.8513C186.425 12.0357 186.545 13.3396 186.545 14.6434C186.545 17.2511 186.545 19.8588 186.545 22.4613C186.545 24.3574 186.545 26.2534 186.545 28.1495C186.784 28.1495 187.018 28.269 187.257 28.269C190.69 28.03 194.129 27.7962 197.563 27.6768C198.508 27.5573 199.339 27.6768 200.17 27.6768C200.882 27.6768 201.594 27.9157 202.305 28.1495C202.898 28.5027 203.49 28.9806 203.848 29.5728C204.087 30.2845 203.848 30.7572 203.256 31.1156C202.783 31.3546 202.311 31.3546 201.718 31.2351C200.773 30.8819 199.942 30.9961 198.991 31.1156C197.095 31.3546 195.199 31.4689 193.303 31.7078C191.407 31.8273 189.511 32.061 187.615 32.3C187.262 32.3 186.903 32.4195 186.55 32.5389C186.55 32.6584 186.431 32.8922 186.431 33.1311C186.431 33.4844 186.431 33.8428 186.431 34.0766C186.311 39.4063 186.311 44.7411 186.077 49.9514C185.958 55.4005 185.958 60.7354 186.077 66.1846C186.077 69.1455 186.077 72.1065 186.316 75.0726C186.436 78.153 186.555 81.114 186.909 84.1944C187.147 85.7372 187.381 87.2748 187.854 88.6982C187.973 89.0514 188.093 89.2903 188.207 89.7631C188.56 89.5241 188.799 89.2903 189.038 89.0514C190.223 87.7475 191.173 86.3242 191.999 84.7866C193.656 81.8256 195.08 78.7452 196.503 75.5453C198.991 70.0962 201.36 64.5275 203.137 58.8394C203.49 57.894 203.848 57.0628 204.321 56.1122C204.913 55.0473 206.336 54.6889 207.401 55.4005C207.64 55.52 207.874 55.7538 207.874 56.2317C207.869 56.2213 207.869 56.455 207.749 56.5745Z" fill="#F3F0E8"/>
<path d="M246.849 104.085C245.426 104.916 243.177 104.796 242.112 102.9C241.759 102.069 241.4 101.243 241.166 100.412C240.574 98.2772 240.102 96.0279 239.743 93.8981C239.39 91.6488 238.912 89.3943 238.678 87.1451C238.439 85.7217 238.206 84.3036 238.086 82.7608C237.847 80.5115 237.613 78.257 237.374 76.0078C237.374 75.4156 237.374 74.9429 237.374 74.465C237.135 70.0807 237.135 65.577 237.135 61.1927C237.255 57.9928 237.374 54.7929 237.608 51.593C238.081 46.736 238.554 41.879 239.265 37.0169C239.618 35.0013 239.977 32.8715 240.689 30.856C240.928 30.1443 241.161 29.4327 241.52 28.8405C242.351 26.825 244.008 25.7601 246.023 25.2874C247.447 25.1679 248.751 25.1679 250.049 25.6406C251.587 26.1133 252.891 27.0639 253.602 28.4821C254.195 29.547 254.548 30.6171 254.906 31.682C255.737 34.2897 256.33 36.7779 256.802 39.3856C257.748 44.3621 258.698 49.3385 259.53 54.315C260.122 57.3954 260.594 60.5953 261.067 63.6757C261.659 66.9951 262.251 70.3093 262.724 73.7481C263.077 73.6286 263.077 73.3949 263.197 73.2754C264.028 68.8911 264.973 64.5069 265.805 60.1226C267.108 53.0111 268.293 45.9049 269.597 38.7934C271.254 30.2638 273.15 21.8485 275.519 13.5579C275.991 12.0203 276.464 10.4775 277.056 8.93466C277.056 8.69571 277.176 8.46193 277.295 8.22298C278.007 6.56589 279.072 5.4958 281.679 5.61528C282.272 5.73476 282.983 5.96852 283.575 6.20747C284.521 6.56071 285.233 7.27236 285.472 8.22298C285.71 9.05412 286.064 9.99956 286.183 10.8307C286.303 11.8956 286.536 13.08 286.656 14.1501C286.775 15.3344 286.775 16.6383 286.895 17.9422C287.014 19.8382 287.134 21.7342 287.248 23.7498C287.248 25.5263 287.368 27.3029 287.368 29.0795C287.487 31.3287 287.721 33.7027 287.84 36.0714C287.84 36.6636 287.84 37.2558 287.84 37.848C288.079 41.4011 288.194 45.0737 288.432 48.7463C288.552 52.2995 288.786 55.9721 289.144 59.5304C289.383 63.0835 289.617 66.6418 289.975 70.195C290.095 72.5637 290.328 74.9325 290.448 77.3064C290.687 80.1479 290.921 82.9946 291.04 85.7165C291.279 87.9658 291.279 90.2203 291.393 92.3501C291.513 95.0773 291.632 97.7993 291.747 100.407C291.866 101.711 291.986 102.895 292.1 104.199C292.219 106.926 292.453 109.648 292.692 112.375C292.692 113.326 292.812 114.271 292.812 115.217C292.931 116.162 292.573 116.874 291.747 117.466C290.796 118.058 289.731 118.297 288.666 118.178C287.835 118.178 287.243 117.705 287.009 116.874C286.77 116.162 286.536 115.331 286.417 114.625C286.064 111.898 285.586 109.176 285.233 106.448C284.76 103.248 284.282 99.9343 283.809 96.7344C283.337 93.5345 282.864 90.2203 282.505 87.0204C282.152 84.6516 281.913 82.2829 281.674 79.7947C281.435 77.8986 281.202 75.8831 281.082 73.8728C280.843 71.8573 280.729 69.8417 280.49 67.8314C280.251 65.3432 280.017 62.855 279.898 60.2473C279.778 59.1824 279.659 57.998 279.544 56.8136C279.425 55.0371 279.425 53.141 279.305 51.245C279.186 49.2294 278.952 47.3334 278.833 45.3231C278.833 44.4919 278.833 43.7803 278.833 43.0738C278.713 37.8584 278.594 32.7676 278.594 27.6717C278.594 27.199 278.594 26.7263 278.474 26.0146C278.121 27.6717 277.763 29.095 277.524 30.5184C276.339 35.7338 275.274 41.0635 274.443 46.2789C273.851 49.9515 273.259 53.6241 272.667 57.2967C271.602 63.9303 270.417 70.569 268.875 77.0831C268.636 78.3869 268.282 79.5713 267.929 80.6362C267.69 81.3479 267.457 81.94 267.218 82.5322C266.625 83.7166 265.794 84.4283 264.61 84.901C263.425 85.3737 262.122 85.6127 260.818 85.3737C259.633 85.0205 258.683 84.5426 257.976 83.5972C257.384 82.766 256.911 81.94 256.553 81.1089C255.841 79.5713 255.369 78.0285 254.896 76.3714C253.831 72.6988 252.88 68.7873 252.054 64.9952C250.751 58.5954 249.566 52.2008 248.262 45.9205C248.262 45.801 248.143 45.801 248.143 45.5672C247.904 46.0399 247.904 46.3984 247.904 46.8711C247.665 48.8866 247.431 51.0164 247.312 53.1514C247.073 55.7591 246.958 58.3668 246.72 60.9693C246.6 61.5615 246.6 62.0342 246.6 62.6264C246.361 67.1302 246.247 71.7482 246.247 76.2519C246.247 79.4518 246.366 82.6517 246.486 85.8464C246.486 87.623 246.605 89.2853 246.725 91.0618C246.844 93.789 246.964 96.511 247.197 99.2382C247.197 100.423 247.197 101.726 247.79 102.911C247.675 103.493 247.322 103.851 246.849 104.085Z" fill="#F3F0E8"/>
<path d="M310.234 71.504C309.995 73.9923 310.115 76.6 310.473 79.2077C310.712 80.2726 310.946 81.457 311.424 82.5271C311.543 82.766 311.663 82.9998 311.777 83.2387C312.016 83.1193 312.13 82.9998 312.369 82.8855C313.554 81.9401 314.504 80.7505 315.45 79.5661C316.873 77.7896 318.291 75.774 319.476 73.7585C322.795 68.5431 325.99 63.0939 328.956 57.6448C329.309 57.172 329.548 56.5799 329.906 56.102C330.026 55.7487 330.379 55.5097 330.738 55.3903C331.33 55.2708 331.922 55.2708 332.514 55.5098C332.987 55.7487 333.345 55.9825 333.46 56.5747C332.867 57.759 332.395 59.0629 331.683 60.2473C330.618 62.3823 329.548 64.6315 328.364 66.7613C325.995 70.9066 323.74 75.1714 321.372 79.322C320.541 80.7453 319.595 82.0491 318.764 83.353C317.933 84.5374 316.987 85.488 315.922 86.3139C314.977 87.0256 314.026 87.4983 312.842 87.6178C310.115 87.971 307.866 87.1451 306.089 85.1296C305.144 84.0647 304.551 82.9946 304.074 81.6959C303.242 79.5609 302.65 77.3116 302.416 74.9429C302.297 74.1117 302.177 73.4001 302.177 72.6936C301.939 68.3093 302.77 64.164 304.193 60.133C304.905 58.1175 305.85 56.2214 306.92 54.3254C307.632 53.2605 308.463 52.3099 309.408 51.4839C310.593 50.419 311.897 49.7073 313.434 49.5879C316.161 49.4684 318.291 50.419 319.834 52.5488C320.546 53.6137 320.779 54.6838 320.899 55.8682C321.018 57.2915 320.779 58.5954 320.307 59.894C319.715 61.9096 318.65 63.8056 317.226 65.4627C316.754 65.9354 316.281 66.4081 315.803 66.7665C314.499 67.8314 313.076 68.4236 311.419 68.4236C311.299 68.4236 311.065 68.4236 310.946 68.4236C310.827 68.4236 310.827 68.4236 310.827 68.5431C310.468 69.4885 310.354 70.4391 310.234 71.504ZM314.619 57.759C313.907 58.7044 312.603 61.4317 312.369 62.855C313.787 61.1979 314.738 59.1823 314.619 57.759Z" fill="#F3F0E8"/>
</svg>
