<svg width="323" height="112" viewBox="0 0 323 112" fill="none" xmlns="http://www.w3.org/2000/svg">
<path d="M13.6169 68.4916C15.6169 69.2916 17.5169 70.0916 19.6169 70.7916C22.2169 71.6916 24.8169 72.5916 27.6169 72.9916C30.2169 73.3916 32.8169 73.8916 35.5169 74.1916C37.7169 74.4916 40.1169 74.7916 42.4169 74.8916C43.2169 74.8916 43.9169 74.8916 44.5169 74.5916C44.8169 74.4916 45.2169 74.4916 45.6169 74.4916C46.8169 74.5916 47.8169 75.1916 48.6169 76.0916C49.8169 77.5916 49.5169 79.0916 47.8169 79.7916C47.1169 80.0916 46.5169 80.2916 45.7169 80.3916C43.3169 80.5916 41.0169 80.5916 38.6169 80.4916C38.1169 80.4916 37.7169 80.4916 37.4169 80.4916C34.5169 80.3916 31.7169 80.1916 28.8169 79.7916C26.9169 79.5916 25.0169 79.2916 23.1169 78.9916C20.0169 78.5916 16.8169 77.7916 13.6169 76.5916C13.3169 76.4916 12.9169 76.2916 12.5169 76.3916C12.5169 76.4916 12.5169 76.6916 12.5169 76.9916C12.5169 79.3916 12.6169 81.6916 12.6169 83.9916C12.7169 86.4916 12.6169 88.9916 12.6169 91.2916C12.5169 94.3916 12.5169 97.4916 12.6169 100.592C12.7169 102.392 12.7169 104.092 12.7169 105.792C12.8169 106.392 12.8169 106.992 12.9169 107.592C13.2169 107.792 13.5169 107.892 13.7169 108.192C14.4169 108.792 14.5169 109.292 14.0169 109.992C13.3169 111.192 12.4169 111.992 11.0169 111.992C10.4169 111.992 9.91686 111.892 9.31686 111.792C8.11686 111.492 7.11689 110.692 6.71689 109.292C6.41689 108.192 6.11687 107.092 5.91687 105.992C5.51687 103.092 5.11686 100.292 4.81686 97.2916C4.41686 94.8916 3.91688 92.5916 3.61688 90.0916C3.11688 87.3916 2.71687 84.5916 2.41687 81.7916C2.11687 79.5916 1.81688 77.3916 1.61688 75.1916C1.51688 74.2916 1.41686 73.2916 1.31686 72.3916C1.21686 71.1916 1.21688 69.9916 1.11688 68.7916C1.11688 68.4916 1.01686 67.9916 0.816863 67.7916C0.716862 67.6916 0.716887 67.5916 0.716887 67.4916C-0.0831131 65.9916 -0.383113 64.5916 0.716887 63.0916C0.716887 62.2916 0.716881 61.3916 0.616881 60.4916C0.616881 59.3916 0.516875 58.0916 0.516875 56.8916C0.316875 52.8916 0.316863 48.7916 0.316863 44.6916C0.316863 41.1916 0.416875 37.7916 0.516875 34.2916C0.716875 31.1916 1.01689 27.9916 1.21689 24.7916C1.41689 22.7916 1.71688 20.6916 2.11688 18.6916C2.21688 18.1916 2.31687 17.7916 2.41687 17.2916C2.71687 16.2916 3.51687 15.8916 4.51687 15.7916C5.31687 15.7916 6.11687 15.9916 6.91687 16.3916C8.41687 17.0916 9.41688 18.0916 9.61688 19.7916C9.71688 20.7916 9.81687 21.6916 9.91687 22.6916C10.0169 24.5916 10.0169 26.4916 10.1169 28.3916C10.2169 30.9916 10.3169 33.6916 10.4169 36.3916C10.4169 36.6916 10.3169 37.0916 10.6169 37.3916C10.8169 36.8916 10.9169 36.5916 11.2169 36.1916C12.9169 31.9916 15.0169 28.0916 17.7169 24.4916C20.5169 20.5916 23.8169 17.1916 27.6169 14.2916C30.4169 12.3916 33.5169 10.6916 36.7169 9.69162C38.2169 9.29162 39.7169 8.8916 41.3169 8.8916C46.7169 8.8916 51.1169 10.8916 54.4169 15.1916C55.9169 17.0916 56.6169 19.2916 57.0169 21.4916C57.3169 24.4916 56.8169 27.5916 55.9169 30.4916C54.7169 34.2916 52.9169 37.7916 50.5169 41.0916C46.6169 46.6916 41.7169 51.4916 36.1169 55.4916C32.4169 58.2916 28.4169 60.5916 24.3169 62.6916C20.9169 64.3916 17.4169 65.9916 13.9169 67.3916C13.6169 67.4916 13.3169 67.5916 13.1169 67.7916C13.0169 67.7916 13.0169 67.7916 13.0169 67.8916C13.0169 68.3916 13.4169 68.3916 13.6169 68.4916ZM44.2169 17.7916C42.3169 18.0916 40.6169 18.7916 38.9169 19.5916C35.4169 21.2916 32.4169 23.6916 29.8169 26.4916C26.9169 29.4916 24.5169 32.8916 22.5169 36.5916C19.5169 42.1916 17.3169 48.1916 15.6169 54.2916C15.6169 54.4916 15.6169 54.7916 15.5169 55.0916C15.8169 54.9916 15.9169 54.8916 16.2169 54.7916C17.4169 54.0916 18.6169 53.5916 19.8169 52.7916C25.8169 49.2916 31.2169 45.0916 35.8169 39.8916C38.9169 36.2916 41.7169 32.3916 43.7169 27.9916C44.6169 25.9916 45.3169 24.0916 45.7169 21.8916C45.9169 20.4916 46.1169 19.2916 45.7169 17.9916C45.1169 17.5916 44.6169 17.6916 44.2169 17.7916Z" fill="#F3F0E8"/>
<path d="M54.4169 71.091C54.2169 73.491 54.3169 75.8911 54.6169 78.3911C54.8169 79.3911 55.1169 80.491 55.5169 81.591C55.6169 81.791 55.7169 81.9911 55.8169 82.2911C56.0169 82.1911 56.1169 82.0911 56.4169 81.9911C57.5169 81.0911 58.4169 79.9911 59.3169 78.7911C60.7169 77.0911 62.0169 75.1911 63.1169 73.2911C66.2169 68.3911 69.3169 63.1911 72.1169 57.9911C72.4169 57.5911 72.7169 56.9911 73.0169 56.4911C73.1169 56.1911 73.4169 55.8911 73.8169 55.7911C74.4169 55.6911 74.9169 55.6911 75.5169 55.8911C75.9169 56.0911 76.3169 56.3911 76.4169 56.8911C75.8169 57.9911 75.4169 59.2911 74.7169 60.3911C73.7169 62.3911 72.7169 64.591 71.5169 66.591C69.3169 70.491 67.1169 74.5911 64.9169 78.4911C64.1169 79.7911 63.2169 81.0911 62.4169 82.2911C61.6169 83.3911 60.7169 84.291 59.7169 85.091C58.8169 85.791 57.9169 86.1911 56.8169 86.2911C54.2169 86.5911 52.1169 85.7911 50.4169 83.8911C49.5169 82.8911 48.9169 81.891 48.5169 80.591C47.7169 78.591 47.1169 76.3911 46.9169 74.1911C46.8169 73.3911 46.7169 72.691 46.7169 72.091C46.5169 67.891 47.3169 63.9911 48.6169 60.1911C49.3169 58.2911 50.2169 56.4911 51.2169 54.6911C51.9169 53.6911 52.7169 52.7911 53.6169 51.9911C54.7169 50.9911 56.0169 50.2911 57.4169 50.1911C60.0169 50.0911 62.0169 50.9911 63.5169 52.9911C64.2169 53.9911 64.4169 54.9911 64.5169 56.0911C64.6169 57.4911 64.4169 58.6911 63.9169 59.8911C63.3169 61.7911 62.3169 63.5911 61.0169 65.1911C60.6169 65.6911 60.1169 66.0911 59.6169 66.3911C58.4169 67.3911 57.0169 67.9911 55.4169 67.9911C55.3169 67.9911 55.1169 67.9911 55.0169 67.9911C54.9169 67.9911 54.9169 67.991 54.9169 68.091C54.7169 69.091 54.5169 69.991 54.4169 71.091ZM58.6169 57.9911C57.9169 58.8911 56.7169 61.4911 56.5169 62.7911C57.8169 61.2911 58.7169 59.3911 58.6169 57.9911Z" fill="#F3F0E8"/>
<path d="M87.8169 74.3918C86.6169 76.5918 85.2169 78.7918 84.0169 80.9918C82.6169 83.1918 81.3169 85.3918 79.7169 87.2918C79.0169 88.1918 78.2169 88.9918 77.5169 89.6918C74.6169 92.4918 70.4169 91.8918 68.2169 90.5918C67.2169 89.8918 66.4169 88.9918 65.8169 87.8918C65.3169 87.0918 65.1169 86.1918 65.0169 85.2918C64.7169 83.2918 64.7169 81.3918 64.8169 79.2918C65.5169 71.4918 68.4169 64.6918 72.5169 58.0918C73.6169 56.4918 74.7169 54.9918 76.0169 53.4918C77.0169 52.3918 78.1169 51.3918 79.4169 50.4918C80.9169 49.4918 82.5169 48.7918 84.2169 48.4918C88.1169 47.7918 92.1169 49.9918 93.8169 53.5918C94.2169 54.6918 94.5169 55.6918 94.7169 56.8918C94.9169 59.2918 94.8169 61.5918 94.1169 63.9918C94.0169 64.2918 93.9169 64.7918 93.6169 65.1918C93.4169 65.7918 92.8169 65.8918 92.4169 65.8918C91.5169 65.7918 90.7169 65.3918 90.4169 64.6918C90.1169 63.7918 89.8169 62.8918 89.7169 61.9918C89.6169 61.1918 89.4169 60.2918 89.3169 59.3918C89.1169 58.1918 88.7169 56.8918 88.2169 55.7918C88.1169 55.6918 88.0169 55.5918 87.9169 55.2918C87.9169 55.2918 87.8169 55.2918 87.7169 55.2918C87.4169 55.4918 87.0169 55.9918 86.7169 56.2918C85.8169 57.3918 85.0169 58.3918 84.2169 59.5918C82.6169 61.9918 81.3169 64.6918 80.0169 67.2918C78.4169 70.7918 77.1169 74.2918 76.2169 77.9918C75.9169 79.4918 75.6169 80.8918 75.5169 82.2918C75.7169 82.3918 75.8169 82.1918 75.9169 82.0918C77.0169 80.6918 78.1169 79.2918 79.2169 77.8918C81.1169 75.0918 82.9169 72.2918 84.8169 69.4918C85.4169 68.7918 85.9169 67.9918 86.6169 67.3918C87.4169 66.3918 88.5169 65.9918 89.7169 66.1918C90.2169 66.1918 90.6169 66.3918 91.2169 66.4918C92.2169 66.8918 92.9169 67.5918 93.1169 68.6918C93.3169 69.6918 93.4169 70.6918 93.6169 71.6918C93.7169 73.2918 93.7169 74.9918 93.8169 76.4918C94.0169 78.9918 94.2169 81.4918 94.9169 83.7918C95.1169 84.5918 95.5169 85.3918 95.7169 86.1918C95.8169 86.3918 96.0169 86.6918 96.1169 86.9918C96.3169 86.8918 96.4169 86.7918 96.6169 86.6918C97.1169 85.9918 97.5169 85.2918 97.8169 84.6918C98.9169 82.3918 99.8169 80.1918 100.717 77.7918C102.717 72.2918 104.817 66.6918 106.817 61.0918C107.117 60.1918 107.517 59.2918 107.817 58.3918C107.817 58.2918 107.917 58.0918 108.017 57.8918C108.617 56.6918 110.017 56.2918 111.017 57.2918C111.217 57.4918 111.517 57.8918 111.217 58.2918C110.417 59.7918 110.017 61.3918 109.417 63.0918C107.917 67.5918 106.517 72.1918 104.917 76.6918C104.117 79.1918 103.217 81.5918 102.217 83.9918C101.717 84.9918 101.217 85.9918 100.617 86.9918C100.317 87.5918 99.8169 88.0918 99.4169 88.5918C97.7169 90.4918 94.9169 90.4918 93.0169 88.8918C92.4169 88.2918 91.9169 87.6918 91.5169 86.9918C90.7169 85.4918 90.3169 83.9918 89.8169 82.3918C89.3169 80.5918 89.1169 78.7918 88.9169 76.8918C88.8169 75.7918 88.7169 74.6918 88.6169 73.4918C88.6169 73.3918 88.5169 73.3918 88.4169 73.3918C88.3169 73.8918 88.1169 74.1918 87.8169 74.3918Z" fill="#F3F0E8"/>
<path d="M130.017 53.9919C129.317 53.7919 128.917 53.2918 128.517 52.7918C128.217 52.0918 128.017 51.2919 128.017 50.6919C127.917 49.5919 127.917 48.4918 127.817 47.2918C127.717 46.3918 127.517 45.5918 127.217 44.7918C127.217 44.6918 127.117 44.4919 127.017 44.1919C126.817 44.3919 126.517 44.4918 126.317 44.7918C125.317 45.5918 124.517 46.4919 123.717 47.4919C121.617 50.2919 119.917 53.3919 118.517 56.4919C116.617 61.0919 115.217 65.7918 114.517 70.7918C113.817 74.5918 113.517 78.3918 113.617 82.2918C113.717 84.6918 113.917 86.9919 114.517 89.3919C114.717 90.1919 114.917 90.9918 115.217 91.5918C115.417 91.9918 115.717 92.4919 115.917 92.9919C116.217 92.8919 116.517 92.8918 116.617 92.7918C117.317 92.4918 117.817 91.9918 118.417 91.5918C119.617 90.5918 120.517 89.3918 121.617 88.0918C124.917 83.6918 127.917 79.0918 130.517 74.2918C133.117 69.6918 135.617 64.9919 137.717 60.0919C137.917 59.5919 138.117 59.1918 138.517 58.8918C139.117 57.9918 140.417 57.8919 141.217 58.5919C141.417 58.7919 141.517 59.1919 141.417 59.4919C141.417 59.4919 141.417 59.5919 141.317 59.6919C137.617 68.2919 133.317 76.5918 128.817 84.7918C127.717 86.6918 126.617 88.5919 125.317 90.3919C124.617 91.4919 123.717 92.4919 122.817 93.6919C122.017 94.5919 121.117 95.2919 120.117 95.8919C117.117 97.6919 112.717 97.3919 110.017 94.3919C109.217 93.5919 108.517 92.6919 108.117 91.6919C107.217 89.8919 106.517 87.9919 106.117 85.9919C105.317 82.5919 105.017 79.0918 105.117 75.7918C105.117 67.0918 107.017 58.9918 111.117 51.3919C112.417 48.7919 113.917 46.3919 115.817 44.3919C116.917 42.8919 118.217 41.7918 119.617 40.7918C120.417 40.1918 121.217 39.7919 122.017 39.3919C124.717 38.2919 127.317 38.4919 129.817 40.0919C131.817 41.4919 132.917 43.3919 133.217 45.6919C133.317 46.8919 133.317 48.1918 133.117 49.2918C132.817 50.5918 132.517 51.8919 132.317 53.0919C132.217 53.3919 132.117 53.6919 132.017 53.8919C131.317 54.2919 130.617 54.1919 130.017 53.9919Z" fill="#F3F0E8"/>
<path d="M154.717 65.1916C151.517 69.5916 149.217 74.2915 147.917 79.5915C147.517 81.6915 147.017 83.8915 146.917 86.0915C146.817 87.0915 146.717 88.0915 146.717 89.0915C146.717 89.8915 146.217 90.5915 145.617 90.7915C144.417 91.4915 143.117 91.4915 141.917 90.7915C141.217 90.4915 140.817 89.8915 140.517 89.0915C140.217 88.0915 139.917 86.9915 139.717 85.7915C139.317 83.1915 138.917 80.5916 138.717 77.8916C138.617 75.0916 138.517 72.1915 138.217 69.2915C138.117 65.5915 138.117 61.8916 138.117 58.1916C138.117 54.2916 138.317 50.1916 138.517 46.1916C138.717 44.1916 139.117 41.9915 139.317 39.9915C139.417 38.2915 139.617 36.4915 139.917 34.7915C140.517 28.5915 141.117 22.2916 142.617 16.1916C143.417 13.0916 144.317 9.89154 145.517 6.89154C146.117 5.39154 146.717 3.99155 147.517 2.59155C147.817 1.99155 148.317 1.49155 148.917 0.991547C150.117 -0.308453 152.217 -0.208447 153.317 0.591553C154.117 0.891553 154.417 1.59154 154.517 2.39154C154.517 2.89154 154.617 3.29153 154.417 3.79153C154.217 4.39153 153.617 4.39155 153.217 4.49155C153.017 4.79155 152.917 5.29155 152.817 5.59155C152.017 8.89155 151.317 12.0915 150.817 15.3915C150.417 18.3915 149.817 21.3915 149.317 24.2915C149.017 26.9915 148.617 29.5916 148.317 32.1916C148.017 34.8916 147.917 37.4916 147.917 40.0916C147.817 45.6916 147.717 51.1915 147.717 56.7915C147.617 59.4915 147.517 62.1915 147.517 64.8915C147.517 66.2915 147.417 67.4915 147.417 68.7915C147.417 69.1915 147.417 69.5916 147.417 69.8916C147.717 69.9916 147.717 69.6915 147.817 69.5915C149.017 67.2915 150.417 65.1916 152.017 63.1916C152.317 62.7916 152.817 62.2915 153.117 61.7915C154.817 59.9915 157.917 60.2916 159.117 62.6916C159.417 63.3916 159.817 64.0915 159.917 64.7915C160.317 66.5915 160.817 68.4915 161.317 70.2915C161.617 71.7915 162.117 73.0916 162.717 74.3916C163.017 74.4916 163.117 74.2915 163.317 74.0915C163.917 73.2915 164.517 72.4916 165.017 71.6916C167.117 68.6916 168.917 65.3916 170.617 62.0916C171.217 61.0916 171.617 60.0916 172.217 59.0916C172.417 58.5916 172.717 58.1915 172.917 57.8915C173.317 57.2915 173.817 56.9916 174.517 57.1916C175.017 57.1916 175.317 57.3916 175.617 57.5916C175.817 57.7916 175.917 58.1915 175.917 58.3915C173.817 62.9915 171.517 67.4916 169.117 71.8916C168.417 72.8916 167.917 73.8915 167.217 74.9915C166.817 75.6915 166.217 76.1915 165.517 76.7915C164.317 77.7915 162.817 77.9915 161.317 77.2915C160.217 76.7915 159.417 76.0915 158.817 74.9915C158.317 74.0915 158.017 73.1916 157.717 72.3916C157.017 70.4916 156.617 68.5916 156.117 66.6916C155.917 65.8916 155.817 65.1915 155.417 64.2915C154.917 64.7915 154.817 64.9916 154.717 65.1916Z" fill="#F3F0E8"/>
<path d="M216.417 14.892C216.117 13.992 216.317 13.292 217.217 12.992C218.017 12.692 218.717 12.692 219.417 12.892C219.717 12.992 220.117 13.092 220.517 13.192C221.117 13.092 221.717 12.892 222.417 12.592C224.117 12.292 225.917 12.592 227.517 13.492C228.517 14.092 229.317 14.992 229.917 16.092C230.517 17.392 230.717 18.792 231.017 20.092C231.117 20.692 230.917 20.992 230.317 21.192C229.317 21.692 228.117 21.192 227.317 20.292C227.017 19.992 226.717 19.392 226.417 19.092C226.217 18.592 225.917 18.292 225.717 17.892C225.117 18.392 224.817 18.792 224.617 19.392C224.717 19.692 224.917 20.092 225.117 20.392C227.817 25.492 230.417 30.492 232.717 35.692C234.717 40.092 236.117 44.692 236.917 49.392C237.917 54.592 238.217 59.792 238.117 64.992C238.017 65.992 238.017 67.092 238.017 68.192C237.917 70.092 237.717 72.092 237.517 74.092C237.017 76.992 236.617 79.792 235.917 82.692C234.817 87.392 233.417 91.992 231.217 96.292C230.417 97.892 229.517 99.492 228.417 100.892C227.217 102.692 225.517 104.092 223.417 104.992C221.717 105.692 220.017 105.992 218.217 105.792C216.417 105.592 214.817 104.792 213.617 103.592C212.617 102.692 211.917 101.692 211.217 100.592C210.117 98.592 209.317 96.592 208.617 94.392C207.417 90.492 206.417 86.392 205.717 82.392C205.117 79.492 204.717 76.392 204.317 73.392C204.217 72.192 204.217 70.892 204.117 69.592C203.917 66.392 203.917 63.292 203.917 59.992C204.017 57.092 204.217 54.292 204.517 51.292C205.117 46.292 206.117 41.592 207.317 36.792C208.517 32.192 210.117 27.692 212.317 23.392C213.517 20.992 214.917 18.792 216.617 16.892C216.717 16.792 216.817 16.592 216.917 16.392C216.817 15.792 216.517 15.392 216.417 14.892ZM219.417 30.892C217.317 37.692 215.817 44.592 215.117 51.692C214.817 55.192 214.517 58.792 214.517 62.292C214.417 65.292 214.617 68.292 214.817 71.292C214.917 74.192 215.317 76.992 215.717 79.792C216.217 83.392 216.817 86.992 217.817 90.492C218.217 92.492 218.917 94.592 219.717 96.492C220.017 97.192 220.317 97.892 220.717 98.392C221.217 98.192 221.317 97.692 221.517 97.392C222.717 94.992 223.717 92.692 224.717 90.092C226.817 83.992 228.317 77.692 229.017 71.292C229.517 67.892 229.617 64.692 229.617 61.192C229.617 60.292 229.517 59.292 229.517 58.392C229.517 55.692 229.217 52.992 228.717 50.292C228.117 46.592 227.217 42.892 226.217 39.292C224.817 35.092 223.517 30.992 221.817 26.992C221.717 26.692 221.517 26.292 221.217 25.792C220.517 27.492 219.917 29.192 219.417 30.892Z" fill="#F3F0E8"/>
<path d="M260.517 72.3919C261.517 70.9919 262.417 69.6919 263.317 68.1919C265.117 65.3919 266.717 62.4919 268.017 59.4919C268.617 58.4919 269.017 57.5919 269.517 56.5919C269.717 56.0919 270.117 55.6919 270.317 55.0919C270.917 53.9919 271.917 53.4919 273.117 53.4919C274.017 53.3919 274.917 53.6919 275.717 54.1919C276.417 54.6919 276.817 55.1919 276.917 55.9919C277.017 56.5919 277.117 56.9919 277.117 57.4919C277.117 59.2919 277.117 60.9919 277.117 62.6919C277.117 66.0919 277.117 69.4919 277.117 72.6919C277.117 75.6919 277.317 78.7919 277.817 81.7919C277.917 83.4919 278.317 85.2919 278.717 86.9919C278.817 87.1919 278.817 87.4919 278.917 87.6919C279.117 87.5919 279.217 87.4919 279.417 87.1919C280.317 85.6919 281.017 84.1919 281.617 82.5919C283.317 78.3919 284.617 74.2919 286.117 69.9919C287.217 66.3919 288.317 62.6919 289.617 59.0919C289.717 58.5919 289.617 58.0919 289.717 57.5919C290.217 56.8919 290.817 56.7919 291.617 56.7919C292.317 56.7919 293.017 56.9919 293.317 57.7919C293.317 57.9919 293.317 58.4919 293.217 58.7919C291.517 64.8919 289.817 70.9919 288.117 76.9919C287.317 79.7919 286.217 82.4919 284.917 85.1919C284.317 86.3919 283.817 87.6919 283.017 88.7919C282.317 89.7919 281.517 90.6919 280.417 91.3919C279.417 91.7919 278.517 92.1919 277.417 92.0919C276.417 92.0919 275.617 91.7919 274.917 91.0919C274.317 90.4919 274.017 89.9919 273.717 89.2919C273.117 88.2919 272.717 87.1919 272.317 86.1919C271.717 83.9919 271.317 81.5919 271.017 79.2919C270.717 76.8919 270.417 74.4919 270.217 71.9919C270.217 70.8919 270.117 69.5919 270.117 68.4919C270.117 68.1919 270.117 67.7919 270.117 67.2919C269.917 67.7919 269.817 67.8919 269.717 67.9919C268.917 69.3919 268.217 70.6919 267.417 71.8919C266.717 72.8919 266.217 73.8919 265.417 74.8919C264.917 75.6919 264.317 76.3919 263.617 76.9919C262.117 78.3919 260.217 78.9919 258.217 78.8919C255.317 78.6919 253.117 77.1919 251.917 74.5919C251.117 72.9919 250.717 71.2919 250.317 69.5919C249.717 66.4919 249.617 63.1919 249.817 59.8919C250.017 57.7919 250.417 55.5919 250.917 53.5919C251.117 52.7919 251.417 52.0919 251.617 51.5919C252.217 50.3919 253.117 49.6919 254.417 49.4919C255.817 49.3919 257.117 49.5919 258.317 50.2919C259.317 50.8919 259.917 51.6919 260.017 52.8919C260.117 53.9919 260.117 55.2919 260.017 56.4919C259.917 58.3919 259.817 60.2919 259.717 62.0919C259.617 63.4919 259.517 64.8919 259.417 66.2919C259.317 68.3919 259.217 70.6919 259.617 73.0919C260.117 72.8919 260.317 72.5919 260.517 72.3919Z" fill="#F3F0E8"/>
<path d="M322.117 56.8916C321.517 57.9916 321.217 59.2916 320.917 60.4916C319.417 65.5916 317.517 70.4916 315.517 75.3916C313.917 79.0916 312.317 82.7916 310.717 86.4916C310.017 88.0916 309.217 89.4916 308.217 90.8916C307.217 92.2916 306.017 93.0916 304.417 93.4916C301.417 94.2916 298.717 93.5916 296.417 91.3916C295.417 90.3916 294.717 89.1916 294.217 87.7916C293.317 85.8916 292.717 83.8916 292.317 81.7916C291.617 78.9916 291.317 76.1916 291.017 73.1916C290.517 70.1916 290.317 66.9916 290.117 63.9916C289.917 59.3916 289.817 54.7916 289.917 50.2916C289.917 46.8916 290.017 43.4916 290.117 40.2916C290.217 38.9916 290.317 37.5916 290.317 36.2916C290.317 36.0916 290.317 35.7916 290.317 35.6916C290.217 35.5916 290.217 35.5916 290.217 35.4916H290.117C289.317 35.5916 288.517 35.5916 287.717 35.6916C286.517 35.7916 285.217 35.7916 284.017 35.5916C283.117 35.4916 282.317 35.1916 281.517 34.5916C281.217 34.3916 280.817 33.9916 280.617 33.6916C280.217 32.9916 280.417 32.1916 281.217 31.8916C281.717 31.6916 282.217 31.6916 282.817 31.6916C283.517 31.7916 284.217 31.7916 284.817 31.6916C286.117 31.5916 287.617 31.3916 289.017 31.2916C289.617 31.1916 290.117 31.1916 290.717 31.0916C290.717 30.8916 290.817 30.5916 290.817 30.3916C291.117 27.2916 291.417 24.1916 291.817 21.0916C292.017 18.3916 292.417 15.7916 293.017 13.0916C293.217 12.2916 293.517 11.3916 293.817 10.5916C294.017 9.69161 294.717 9.19161 295.617 8.99161C296.217 8.89161 296.617 8.8916 297.117 8.8916C298.117 8.9916 298.917 9.2916 299.817 9.7916C301.117 10.6916 302.017 11.8916 302.017 13.5916C302.017 14.6916 302.117 15.9916 302.117 17.1916C302.117 19.6916 302.117 22.1916 302.117 24.5916C302.117 26.3916 302.117 28.1916 302.117 29.9916C302.317 29.9916 302.617 30.0916 302.817 30.0916C306.117 29.8916 309.317 29.6916 312.617 29.4916C313.517 29.3916 314.317 29.4916 315.117 29.4916C315.817 29.4916 316.517 29.6916 317.117 29.9916C317.717 30.2916 318.217 30.7916 318.617 31.3916C318.817 32.0916 318.617 32.4916 318.017 32.8916C317.517 33.0916 317.117 33.0916 316.517 32.9916C315.617 32.6916 314.817 32.7916 313.917 32.8916C312.117 33.0916 310.317 33.1916 308.517 33.4916C306.717 33.5916 304.917 33.7916 303.117 34.0916C302.817 34.0916 302.417 34.1916 302.117 34.2916C302.117 34.3916 302.017 34.5916 302.017 34.8916C302.017 35.1916 302.017 35.5916 302.017 35.7916C301.917 40.8916 301.917 45.8916 301.717 50.8916C301.617 56.0916 301.617 61.0916 301.717 66.2916C301.717 69.0916 301.717 71.8916 301.917 74.6916C302.017 77.5916 302.117 80.3916 302.517 83.3916C302.717 84.8916 303.017 86.2916 303.417 87.6916C303.517 87.9916 303.617 88.2916 303.717 88.6916C304.017 88.4916 304.317 88.2916 304.517 87.9916C305.617 86.7916 306.517 85.3916 307.317 83.8916C308.917 81.0916 310.217 78.1916 311.617 75.0916C314.017 69.8916 316.217 64.5916 317.917 59.1916C318.217 58.2916 318.617 57.4916 319.017 56.5916C319.617 55.5916 320.917 55.1916 321.917 55.8916C322.117 55.9916 322.417 56.1916 322.417 56.6916C322.217 56.4916 322.217 56.7916 322.117 56.8916Z" fill="#F3F0E8"/>
</svg>
