<svg width="160" height="133" viewBox="0 0 160 133" fill="none" xmlns="http://www.w3.org/2000/svg">
<path opacity="0.05" d="M101.555 2.25265C121.302 5.75618 139.616 12.4447 148.056 25.8218C156.337 39.0397 154.745 58.6276 149.649 79.0118C144.393 99.5552 135.794 121.054 120.346 128.857C105.058 136.661 83.2408 130.928 66.9972 123.284C50.9128 115.799 40.4022 106.403 27.3436 93.9814C14.285 81.5598 -1.48092 65.7939 0.111595 49.3911C1.70411 32.9882 20.8143 15.789 40.7207 7.18944C60.9456 -1.41013 81.9668 -1.25088 101.555 2.25265Z" fill="#2A1C2D"/>
<path d="M20.9735 17.5408C18.4255 17.8593 16.5145 20.0888 16.6738 22.7961C16.6738 23.1146 16.6738 23.2738 16.833 23.5923L27.8214 65.7939V108.314C27.8214 111.021 29.8916 113.092 32.5989 113.092H48.524C51.2313 113.092 53.3016 111.021 53.3016 108.314V86.0189H69.2267V108.314C69.2267 111.021 71.297 113.092 74.0043 113.092H89.9294C92.6367 113.092 94.7069 111.021 94.7069 108.314V65.3162C94.7069 62.6089 92.6367 60.5386 89.9294 60.5386H53.7793L43.5872 21.0443C43.1095 18.974 41.1985 17.5408 38.969 17.5408H21.4513C21.2921 17.5408 21.1328 17.5408 20.9735 17.5408ZM27.6621 27.0959H35.3062L45.4983 66.5902C45.976 68.5012 47.887 70.0937 50.1166 70.0937H85.1519V103.537H78.7818V81.2413C78.7818 78.534 76.7115 76.4638 74.0043 76.4638H48.524C45.8168 76.4638 43.7465 78.534 43.7465 81.2413V103.537H37.3764V65.3162C37.3764 64.8384 37.3764 64.5199 37.2172 64.0422L27.6621 27.0959ZM81.4891 30.2809C79.1003 30.5994 77.1893 32.6697 77.1893 35.0584V50.9836C77.1893 53.6908 79.2596 55.7611 81.9668 55.7611H105.855V108.314C105.855 111.021 107.925 113.092 110.632 113.092H126.557C129.264 113.092 131.335 111.021 131.335 108.314V55.7611H155.222C157.93 55.7611 160 53.6908 160 50.9836V35.0584C160 32.3511 157.93 30.2809 155.222 30.2809H81.9668C81.8076 30.2809 81.6483 30.2809 81.4891 30.2809ZM86.7444 39.836H150.445V46.206H126.557C123.85 46.206 121.78 48.2763 121.78 50.9836V103.537H115.41V50.9836C115.41 48.2763 113.339 46.206 110.632 46.206H86.7444V39.836Z" fill="#2A1C2D"/>
</svg>
