<svg width="137" height="158" viewBox="0 0 137 158" fill="none" xmlns="http://www.w3.org/2000/svg">
<path opacity="0.05" d="M129.882 107.469C123.83 126.579 114.594 143.778 100.42 150.466C86.247 156.836 67.1368 152.855 47.3897 144.893C27.6425 136.93 7.5768 125.464 1.84375 109.22C-3.8893 93.1359 4.71027 72.1148 14.4246 57.1451C23.9797 42.1755 34.8088 33.0982 48.8229 21.7913C62.837 10.4845 80.5139 -3.05188 96.439 0.610897C112.523 4.43293 127.015 25.6134 132.908 46.4753C138.8 67.6557 135.933 88.3584 129.882 107.469Z" fill="#2A1C2D"/>
<path d="M112.046 14.4658C101.057 15.1028 90.069 23.7023 82.9026 36.2832C76.2141 47.7493 74.4623 60.0116 77.9659 69.5667C77.8066 69.726 77.8066 69.8852 77.6474 70.0445C76.8511 71.4777 75.5771 73.3888 74.1438 75.7775C72.0736 79.1218 69.207 83.8994 66.4998 88.5176C64.748 85.6511 62.5185 81.9883 61.0852 79.5996C59.0149 76.096 57.2632 73.2295 55.9892 71.1592C55.6707 70.5222 55.5114 70.2037 55.1929 69.726C56.3077 66.3817 57.1039 62.8782 56.9447 59.0561C56.9447 58.2599 56.6262 57.3044 56.1484 56.6674L32.42 18.9248C31.4645 17.3323 29.7127 16.536 27.9609 16.6953C25.2537 16.8545 23.3427 19.084 23.5019 21.7913C23.5019 22.5876 23.8204 23.3838 24.2982 24.0208L44.0453 54.9156L39.7455 57.3044L20.7946 26.0911C19.8391 24.4986 18.0874 23.7023 16.3356 23.7023C13.6283 23.8616 11.7173 26.0911 11.8766 28.7984C11.8766 29.5946 12.1951 30.3909 12.6728 31.0279L31.4645 61.9227L27.3239 64.1522L10.1248 32.6204C9.01002 30.2316 6.14349 29.1169 3.75472 30.2316C1.36595 31.3464 0.251193 34.2129 1.36595 36.6017C1.5252 36.7609 1.5252 37.0795 1.68445 37.2387L22.3871 75.459C22.8649 76.2553 23.3426 76.8923 24.1389 77.37C27.6424 79.4403 31.146 80.3958 34.8087 80.8736C35.1272 81.3513 35.2865 81.6698 35.605 82.1476C36.7198 84.2178 38.4715 87.2436 40.3825 90.7472C43.5676 96.4802 47.8674 104.284 52.0079 111.928L33.694 141.548C32.2607 143.778 33.057 146.804 35.2865 148.078C35.2865 148.078 35.2865 148.078 35.4458 148.078L50.7339 156.836C52.9634 158.11 55.9892 157.314 57.2632 155.085C57.2632 155.085 57.2632 155.085 57.2632 154.925L66.4998 138.204C69.6848 143.937 75.7363 154.925 75.7363 154.925C77.0103 157.314 79.8769 158.11 82.2656 156.836C82.2656 156.836 82.2657 156.836 82.4249 156.836L97.713 148.078C99.9426 146.804 100.739 143.778 99.4648 141.548C99.4648 141.548 99.4648 141.389 99.3055 141.389C99.3055 141.389 89.7505 125.942 80.9916 111.768C85.6099 103.487 90.069 95.3654 93.4132 89.3139C95.165 86.1289 96.7575 83.4216 97.713 81.6698C98.0315 81.1921 98.0315 80.8736 98.3501 80.5551C108.383 78.9626 118.256 71.637 124.945 60.1709C129.723 51.8898 132.111 43.2902 131.952 35.4869C131.793 27.6836 128.767 20.3581 122.238 16.6953C119.849 15.262 117.142 14.625 114.434 14.4658C113.638 14.3065 112.842 14.3065 112.046 14.4658ZM112.683 24.0208C113.001 24.0208 113.479 24.0208 113.957 24.0208C115.39 24.0208 116.505 24.3393 117.46 24.9763C120.327 26.5689 122.238 30.2316 122.397 35.8054C122.556 41.3792 120.645 48.5455 116.664 55.3933C110.612 65.9039 101.376 71.4777 95.165 71.637L93.4132 71.9555C93.4132 71.9555 92.7762 72.274 92.617 72.4333C92.2985 72.7518 92.1392 72.911 91.98 72.911C91.6615 73.2295 91.6615 73.2295 91.5022 73.3888C91.343 73.548 91.343 73.7073 91.1837 73.8665C91.0245 74.0258 90.8652 74.3443 90.706 74.6628C90.3875 75.1405 89.9097 75.9368 89.432 76.8923C88.3172 78.8033 86.8839 81.5106 85.1322 84.6956C82.4249 89.4731 78.9214 96.0025 75.4178 102.532C74.3031 100.621 73.5068 99.1875 72.3921 97.4357C76.2141 91.0657 80.0361 85.0141 82.7434 80.5551C84.1767 78.1663 85.4507 76.096 86.2469 74.6628C86.7247 73.8665 87.0432 73.3888 87.2025 72.911C87.3617 72.7518 87.3617 72.4333 87.521 72.274C87.521 72.1148 87.6802 71.9555 87.8394 71.637C87.8394 71.4777 87.9987 71.3185 87.9987 70.8407C87.9987 70.6815 88.1579 70.363 88.1579 69.8852C88.1579 69.726 88.158 69.4075 87.9987 69.089C87.9987 68.7705 87.6802 67.815 87.6802 67.815C84.9729 62.4004 85.4507 51.2528 91.5022 40.9015C97.2353 30.3909 106.631 24.3393 112.683 24.0208ZM46.9119 64.3114C46.5933 65.7447 46.2748 66.8595 45.6378 67.9742C45.6378 67.9742 45.1601 69.8852 45.1601 70.363C45.1601 70.8407 45.1601 71 45.3193 71.3185C45.4786 71.637 45.4786 71.7962 45.6378 71.9555C45.7971 72.274 45.7971 72.4333 45.9563 72.4333C46.1156 72.7518 46.2748 72.911 46.4341 73.2295C46.7526 73.8665 47.2303 74.6628 47.8673 75.7775C49.1414 77.8478 50.8931 80.7143 52.9634 84.2179C57.2632 91.2249 62.837 100.461 68.57 109.698C78.6029 126.101 86.5654 138.841 88.6357 142.345L81.7879 146.326C79.8769 142.663 72.5513 129.286 63.3147 112.405C58.0595 102.85 52.8041 93.2952 48.8229 86.1289C46.9118 82.4661 45.1601 79.5996 44.0453 77.37C43.4083 76.2553 42.9306 75.459 42.6121 74.822C42.4528 74.5035 42.2936 74.185 42.1343 74.0258C41.9751 73.8665 41.9751 73.8665 41.8158 73.548C41.6566 73.3888 41.6566 73.3888 41.3381 73.0703C41.1788 72.911 41.0195 72.7518 40.701 72.5925C40.3825 72.274 37.9938 71.7962 37.9938 71.7962C36.879 71.7962 35.7643 71.637 34.6495 71.3185L46.9119 64.3114ZM57.2632 121.642C59.1742 124.986 59.3335 125.305 60.926 128.49L51.2116 146.326L44.3638 142.504L57.2632 121.642Z" fill="#2A1C2D"/>
</svg>
