<svg width="796" height="120" viewBox="0 0 796 120" fill="none" xmlns="http://www.w3.org/2000/svg">
<path d="M10.4681 27.1412C10.7167 26.6494 10.9599 26.0333 11.3328 25.5361C11.9489 24.5525 12.8136 24.1796 14.0458 24.5525C14.4133 24.6768 14.7862 24.92 15.2779 25.0443C15.5265 25.1686 15.7697 25.2929 16.0183 25.5361C16.3858 25.4118 16.883 25.1686 17.2505 25.0443C21.1957 23.5636 25.1408 22.2071 29.2048 21.3478C32.7771 20.6074 36.479 19.9913 40.0512 19.3752C41.6563 19.0077 43.256 18.8834 44.98 19.0077C46.3364 19.132 47.6929 19.4995 48.8008 20.4885C49.5412 21.1046 50.033 21.9693 50.4059 22.8286C50.6545 23.8121 50.5302 24.6768 49.7898 25.5415C49.4223 26.1576 48.8062 26.2819 48.0658 26.0333C47.574 25.7847 47.0822 25.5415 46.4661 25.2929C44.245 25.6604 42.1535 26.2765 39.9323 27.0169C38.3273 27.5087 36.6033 28.1248 35.0036 28.8652C31.4314 30.2217 27.8537 31.3295 24.1572 32.5617C22.0603 33.1778 19.9689 33.7939 17.872 34.5343C17.5045 34.6586 17.2559 34.7829 16.8884 34.7829C15.6562 43.0406 14.5484 51.2984 13.3162 59.5616C13.3162 59.8102 13.3162 59.9291 13.3162 60.302C13.6837 60.1777 14.0566 60.1777 14.2998 60.0533C19.9689 58.6969 25.638 57.2161 31.3125 55.865C31.8043 55.7407 32.4204 55.6164 32.9176 55.6164C34.6415 55.3678 36.4898 56.3568 37.2302 57.9565C37.3545 58.0808 37.4788 58.324 37.4788 58.4483C37.7274 59.4319 37.4788 59.9291 36.6141 60.2966C35.3819 60.7883 34.1497 61.2801 33.0419 61.653C30.3289 62.6366 27.616 63.5013 25.0273 64.4903C21.8226 65.5982 18.7421 66.8304 15.6617 67.9436C14.797 68.3111 13.8134 68.5597 12.9487 68.8083C12.7001 68.9326 12.4569 69.0569 12.2083 69.1758C12.084 69.7919 12.084 70.5323 11.9597 71.1484C11.7111 73.121 11.5922 75.0935 11.3436 77.0661C11.095 79.6548 10.8518 82.2434 10.7275 84.8321C10.36 89.6419 10.1114 94.4463 10.36 99.2561C10.4843 100.856 10.7275 102.461 11.1004 104.061C11.349 104.801 11.4679 105.541 12.084 106.033C12.5758 106.033 12.9487 105.785 13.3162 105.541C14.4241 104.677 15.5374 103.942 16.6452 103.077C21.0822 99.5047 25.2759 95.6785 29.5885 91.8577C31.6854 90.0094 33.7769 88.1611 35.8737 86.1886C36.3655 85.8211 36.7384 85.3239 37.1059 84.9564C37.4734 84.4646 37.9706 84.216 38.4624 84.0917C39.5703 83.9674 40.5592 84.216 41.4185 84.8321C42.1589 85.4482 42.4021 86.1886 42.1589 87.1721C42.0346 87.5396 41.7914 87.9125 41.5428 88.28C41.2942 88.7718 40.9267 89.1447 40.435 89.5122C38.9542 91.2362 37.3545 92.8412 35.8737 94.4409C33.0365 97.397 30.2046 100.234 27.3674 103.072C25.3948 105.044 23.2979 107.017 20.9579 108.741C19.9743 109.357 18.9853 109.973 17.8774 110.589C16.2723 111.578 14.4241 112.07 12.4515 112.07C8.50636 112.07 5.17731 110.713 2.96155 107.26C1.97797 105.66 1.48078 104.055 0.988987 102.331C0.621495 100.483 0.372896 98.5103 0.248597 96.5378C0.124298 94.0734 0 91.3605 0 88.7718C0.248598 85.0753 0.367492 81.2544 0.61609 77.5525C0.740388 75.3313 0.98358 73.1156 1.10788 71.0187C1.23218 70.5269 1.23218 70.0297 1.23218 69.5379C1.10788 69.1704 0.864685 68.9218 0.740386 68.5489C0.372894 67.8085 0.491789 67.3168 1.10788 66.7007C1.23218 66.5764 1.47537 66.452 1.72397 66.2089C2.34006 61.399 3.08045 56.4703 4.06403 51.5416C5.04761 46.7318 6.0366 41.8031 7.39308 37.1175C7.14448 36.8689 7.02559 36.9932 6.77699 36.9932C6.2852 36.9932 5.7934 36.9932 5.29621 36.9932C3.93973 37.1175 2.45895 35.8854 1.96716 34.4046C1.71857 33.6642 1.96717 32.9238 2.70755 32.432C3.07505 32.0645 3.44794 31.8159 3.81543 31.5673C5.29621 30.7026 6.77158 29.9676 8.12806 29.2273C8.74415 28.8598 9.36024 28.6112 9.97633 28.2437C10.2249 27.8816 10.3438 27.5141 10.4681 27.1412Z" fill="#F3F0E8"/>
<path d="M67.7861 39.9602C70.0073 32.9346 72.223 25.6604 73.8281 18.5105C74.8117 13.9493 75.6764 9.38809 76.7843 4.82687C76.9086 3.96218 77.1517 3.2272 77.276 2.36251C77.4003 2.23821 77.4003 1.99501 77.5246 1.74641C77.7732 0.265632 78.8811 -0.101861 79.989 0.0224377C81.3455 0.38993 82.3291 1.25462 82.2102 2.85969C82.2102 4.09187 82.3345 5.44836 82.2102 6.68054C81.9616 10.75 81.4698 14.814 81.3455 19.0077C80.978 21.9639 80.978 24.8011 80.7294 27.7573C80.6051 30.8377 80.3619 34.0425 80.3619 37.2472C80.2376 39.3441 80.1133 41.4356 80.1133 43.4081C79.989 45.505 79.989 47.6019 79.8647 49.6933C79.6161 51.9145 79.6161 54.3789 79.6161 56.7189C79.6161 57.9511 79.4918 59.1833 79.4918 60.4155C79.4918 62.6366 79.4918 64.4849 79.4918 66.5764C79.6161 69.165 79.4918 71.7537 79.4918 74.3423C79.3675 76.931 79.4918 79.5196 79.6161 82.1083C79.4918 83.9566 79.4918 85.9292 79.4918 87.7774C79.4918 88.1449 79.6161 88.5178 79.4918 88.8853C79.6161 91.1065 79.7404 93.3222 79.7404 95.4191C79.6161 97.8834 79.6161 100.472 79.6161 102.936C79.3675 104.66 79.6161 106.39 79.6161 108.114C79.6161 109.713 79.6161 111.319 79.4918 113.043C79.6161 113.534 79.6161 114.15 79.6161 114.648C79.4918 115.388 79.4918 116.128 79.4918 116.869C79.4918 117.361 79.1243 117.733 78.8757 117.977C77.7678 118.593 75.7953 118.717 74.6874 117.852C74.3199 117.485 74.0713 117.236 74.0713 116.744C73.8227 116.253 73.7038 115.637 73.7038 115.02C72.9634 108.487 72.3473 101.71 71.9798 94.9273C71.9798 92.2143 71.8555 89.5014 71.6123 86.7938C71.6123 84.2052 71.7366 81.3679 71.7366 78.9036C71.7366 76.6824 71.7366 74.5909 71.7366 72.4941C71.7366 70.0297 71.8609 67.441 71.9852 64.8524C72.1095 61.5233 72.3527 58.1943 72.477 54.8652C72.6013 53.5088 72.6013 52.2766 72.6013 50.7958C71.2449 51.4119 70.137 51.4119 68.9048 50.6715C68.6562 51.4119 68.5373 51.9037 68.413 52.2712C67.0565 57.3242 65.4568 62.2583 63.9761 67.3114C63.36 69.2839 62.6196 71.4997 61.8792 73.5965C61.7549 74.3369 61.3874 74.953 61.1388 75.5691C60.7713 76.0609 60.647 76.677 60.2741 77.0499C59.2905 78.8982 57.5612 79.5143 55.4643 79.39C52.9999 79.0225 51.1517 77.7903 50.1627 75.3205C49.9141 74.8287 49.7952 74.2126 49.5466 73.7208C49.1791 71.7483 48.8062 69.6514 48.8062 67.6788C48.8062 60.2804 51.1463 53.5034 54.9671 47.5857C55.9507 46.1049 56.9397 44.8727 58.1719 43.8891C60.6362 41.7923 63.3492 41.1762 66.5539 41.668C66.6782 41.7923 66.9214 41.7923 67.17 41.9166C67.4186 41.0735 67.6618 40.5763 67.7861 39.9602ZM58.2962 67.5708C60.2687 62.5177 62.117 57.3404 63.7221 52.2874C63.8464 52.0388 63.8464 51.7956 63.8464 51.547C64.095 51.4227 64.095 51.2984 63.8464 51.1795C63.9707 51.4281 63.8464 51.4281 63.8464 51.547C63.3546 51.7956 63.2303 52.1631 63.106 52.5306C61.382 55.611 60.1498 58.8158 59.1608 62.1449C58.5448 63.6256 58.053 65.3496 57.9287 66.9547C57.8044 67.3222 57.9287 67.8194 57.9287 68.1869C57.9287 68.1869 57.9287 68.1868 57.9287 68.3111C57.9287 68.1868 57.9287 68.1869 57.9287 68.1869C57.9233 67.9437 58.1719 67.6951 58.2962 67.5708ZM70.9908 44.0296C71.2394 44.3971 71.4826 44.8943 71.9744 45.3861C72.223 45.8779 72.3419 46.6183 72.8391 47.1101C73.2066 42.9218 73.3309 38.728 73.7038 34.4154C73.3309 35.1558 71.1151 42.5489 70.9908 44.0296Z" fill="#F3F0E8"/>
<path d="M99.3418 73.737C100.45 72.2563 101.439 70.7809 102.422 69.1758C104.395 66.0954 106.119 62.8906 107.6 59.6859C108.216 58.578 108.707 57.589 109.205 56.4811C109.453 55.9893 109.821 55.4976 110.069 54.8761C110.685 53.6439 111.793 53.1521 113.15 53.1521C114.133 53.0278 115.122 53.4007 115.987 53.8925C116.727 54.3843 117.219 55.0003 117.344 55.865C117.468 56.4811 117.592 56.9729 117.592 57.4701C117.592 59.4427 117.592 61.2909 117.592 63.1392C117.592 66.8358 117.592 70.5377 117.592 74.1099C117.592 77.439 117.841 80.768 118.332 84.0917C118.457 85.94 118.824 87.9125 119.316 89.7608C119.44 90.0094 119.44 90.2526 119.565 90.5012C119.813 90.3769 119.932 90.2526 120.056 90.0094C121.04 88.4097 121.78 86.6803 122.521 84.9564C124.369 80.3951 125.85 75.8339 127.45 71.1484C128.682 67.2033 129.914 63.1338 131.27 59.1941C131.395 58.7023 131.27 58.0862 131.395 57.5944C131.886 56.854 132.627 56.7297 133.492 56.7297C134.232 56.7297 134.972 56.9783 135.34 57.8376C135.34 58.0862 135.34 58.578 135.216 58.9455C133.367 65.6036 131.519 72.2563 129.671 78.9144C128.806 81.9948 127.574 84.9564 126.217 87.9125C125.601 89.269 124.985 90.6255 124.12 91.8577C123.38 92.9655 122.515 93.9545 121.283 94.6949C120.175 95.1867 119.186 95.5596 117.954 95.4353C116.846 95.4353 115.982 95.0678 115.241 94.3274C114.625 93.7113 114.258 93.0952 113.885 92.3548C113.269 91.247 112.777 90.0148 112.404 88.9015C111.788 86.4371 111.296 83.8485 110.923 81.3841C110.556 78.7955 110.307 76.0825 110.059 73.3695C110.059 72.1374 109.934 70.7809 109.934 69.5487C109.934 69.1812 109.934 68.8083 109.934 68.1922C109.686 68.684 109.567 68.8083 109.442 68.9326C108.578 70.4134 107.837 71.8888 106.978 73.2453C106.238 74.3531 105.622 75.4664 104.757 76.5743C104.265 77.439 103.525 78.174 102.784 78.9144C101.179 80.3951 99.0878 81.1355 96.8666 81.0112C93.6619 80.7626 91.3218 79.163 89.9653 76.3257C89.1006 74.6017 88.6089 72.7535 88.2414 70.8998C87.6253 67.4464 87.501 63.8742 87.7496 60.2966C87.9982 57.9565 88.3657 55.611 88.9818 53.3953C89.2304 52.5306 89.4735 51.7956 89.7221 51.1741C90.3382 49.8176 91.3218 49.0772 92.8026 48.834C94.2834 48.7097 95.7587 48.9583 97.1152 49.6987C98.2231 50.3148 98.8392 51.1795 98.9635 52.536C99.0878 53.7682 99.0878 55.1246 98.9635 56.4811C98.8392 58.578 98.7149 60.6695 98.596 62.642C98.4717 64.1228 98.3474 65.7225 98.2285 67.2033C98.1042 69.5433 97.9799 72.0131 98.4771 74.6017C98.85 74.2288 99.0986 73.9802 99.3418 73.737Z" fill="#F3F0E8"/>
<path d="M155.919 53.5196C155.179 53.271 154.687 52.7792 154.314 52.1631C153.947 51.4227 153.822 50.5634 153.822 49.823C153.698 48.5908 153.698 47.3587 153.574 46.1265C153.45 45.1429 153.206 44.2782 152.958 43.4135C152.958 43.2892 152.834 43.046 152.709 42.7974C152.461 43.046 152.217 43.1649 151.969 43.4135C150.861 44.2782 149.996 45.2618 149.132 46.3697C146.792 49.4501 144.943 52.7792 143.462 56.2325C141.366 61.2855 139.89 66.4629 139.026 71.8888C138.285 76.0771 137.918 80.2708 138.042 84.4592C138.166 87.0478 138.409 89.6365 139.026 92.2251C139.274 93.0898 139.517 93.9491 139.766 94.6895C140.015 95.1813 140.258 95.6731 140.506 96.1703C140.874 96.046 141.122 96.046 141.247 95.9217C141.987 95.5542 142.603 95.057 143.219 94.5652C144.576 93.4573 145.559 92.1008 146.673 90.7444C150.245 85.9345 153.574 80.8815 156.411 75.5853C159.248 70.5323 161.956 65.355 164.301 60.0533C164.55 59.5615 164.793 59.0698 165.166 58.6969C165.782 57.7133 167.263 57.589 168.122 58.3294C168.371 58.578 168.49 58.9455 168.371 59.313C168.371 59.313 168.371 59.4373 168.247 59.5616C164.177 68.9272 159.497 78.0497 154.563 87.0478C153.331 89.1447 152.099 91.2362 150.742 93.2087C150.002 94.4409 149.018 95.5488 148.029 96.781C147.164 97.7699 146.181 98.5049 145.073 99.2453C141.744 101.218 136.939 100.845 133.978 97.6403C133.113 96.7756 132.373 95.792 131.881 94.6841C130.897 92.7115 130.157 90.6146 129.66 88.3989C128.795 84.7023 128.428 80.8815 128.552 77.1796C128.552 67.6896 130.649 58.8104 135.086 50.4283C136.567 47.591 138.166 45.0024 140.263 42.7866C141.495 41.1815 142.852 39.9494 144.451 38.8415C145.316 38.2254 146.175 37.7336 147.04 37.3607C149.996 36.1285 152.834 36.3771 155.546 38.1011C157.768 39.5819 159 41.6733 159.243 44.262C159.367 45.6185 159.367 46.9749 159.119 48.2071C158.751 49.6879 158.503 51.0444 158.254 52.4009C158.13 52.7684 158.005 53.0169 157.887 53.2655C157.276 53.8924 156.535 53.7682 155.919 53.5196Z" fill="#F3F0E8"/>
<path d="M182.049 75.9528C180.693 78.4172 179.212 80.7626 177.861 83.227C176.38 85.6913 174.905 88.0368 173.175 90.1283C172.435 91.1118 171.57 91.9765 170.711 92.7169C167.506 95.7974 162.945 95.1813 160.481 93.7005C159.373 92.9601 158.508 91.9765 157.892 90.7444C157.4 89.8797 157.152 88.8961 157.027 87.9071C156.66 85.6859 156.66 83.5945 156.779 81.3733C157.519 72.8669 160.724 65.3496 165.161 58.1997C166.393 56.4757 167.625 54.7463 168.982 53.1467C170.089 51.9145 171.322 50.8066 172.678 49.8176C174.283 48.7097 176.131 47.9693 177.98 47.5964C182.292 46.8561 186.61 49.1961 188.459 53.1413C188.95 54.3734 189.199 55.4813 189.442 56.7135C189.691 59.3021 189.567 61.8908 188.826 64.4795C188.702 64.847 188.578 65.3442 188.334 65.8359C188.086 66.452 187.47 66.5763 186.978 66.5763C185.994 66.452 185.13 66.0845 184.757 65.2198C184.389 64.2363 184.141 63.2473 184.016 62.2637C183.892 61.399 183.649 60.4154 183.525 59.4265C183.276 58.07 182.908 56.7135 182.292 55.4813C182.168 55.357 182.044 55.2327 181.925 54.9895C181.925 54.9895 181.801 54.9895 181.676 54.9895C181.309 55.2381 180.936 55.7299 180.568 56.0974C179.585 57.3296 178.72 58.4375 177.855 59.6697C176.131 62.2583 174.651 65.2145 173.294 68.0517C171.57 71.8726 170.089 75.6934 169.106 79.7628C168.738 81.3625 168.49 82.9676 168.365 84.4483C168.614 84.5726 168.733 84.3241 168.857 84.1998C170.089 82.719 171.322 81.1193 172.429 79.6385C174.526 76.5581 176.499 73.4776 178.59 70.3918C179.206 69.6514 179.823 68.7921 180.563 68.0517C181.428 66.9438 182.66 66.5709 184.016 66.6952C184.508 66.6952 185 66.9438 185.616 67.0627C186.724 67.5545 187.464 68.2949 187.713 69.5271C187.961 70.635 188.08 71.7482 188.205 72.8561C188.329 74.5801 188.329 76.4284 188.453 78.1577C188.702 80.8707 188.945 83.5837 189.685 86.1723C189.934 87.037 190.302 87.8963 190.55 88.761C190.674 89.0096 190.918 89.2528 191.042 89.6257C191.29 89.5014 191.409 89.3771 191.534 89.2582C192.025 88.5178 192.517 87.7774 192.89 87.037C194.122 84.5727 195.111 82.1083 196.095 79.5196C198.316 73.4776 200.532 67.3167 202.753 61.2747C203.121 60.2911 203.493 59.3022 203.861 58.3186C203.861 58.1943 203.985 57.9511 204.109 57.8268C204.726 56.4703 206.331 56.1028 207.439 57.2107C207.687 57.4593 207.93 57.8268 207.687 58.3186C206.822 59.9183 206.331 61.7719 205.715 63.6202C204.109 68.5489 202.51 73.6019 200.786 78.536C199.921 81.249 198.938 83.962 197.83 86.5506C197.338 87.6585 196.722 88.7718 196.106 89.8797C195.738 90.4957 195.241 91.1118 194.749 91.6036C192.901 93.7005 189.821 93.7005 187.724 91.9711C187.108 91.355 186.491 90.6147 186.119 89.8743C185.254 88.2692 184.762 86.5452 184.27 84.8212C183.779 82.8487 183.53 80.8761 183.287 78.7792C183.162 77.5471 183.038 76.3149 182.919 75.0827C182.919 74.9584 182.795 74.9584 182.671 74.9584C182.541 75.3367 182.298 75.7096 182.049 75.9528Z" fill="#F3F0E8"/>
<path d="M239.119 56.7243C238.502 57.9565 238.135 59.313 237.762 60.6695C236.157 66.2143 234.066 71.6402 231.844 76.9418C230.12 81.0112 228.391 85.0753 226.543 89.1447C225.802 90.8687 224.943 92.4738 223.83 93.9545C222.722 95.4353 221.365 96.4189 219.636 96.7918C216.307 97.6565 213.351 96.9161 210.886 94.4517C209.779 93.3438 209.038 91.9874 208.422 90.5066C207.439 88.4097 206.817 86.194 206.325 83.9728C205.585 80.8923 205.217 77.8119 204.844 74.6072C204.353 71.2781 204.104 67.8302 203.861 64.5011C203.612 59.4481 203.493 54.3951 203.612 49.461C203.612 45.7644 203.737 42.0625 203.861 38.4902C203.985 37.0095 204.109 35.5341 204.109 34.0533C204.109 33.8047 204.109 33.5615 204.109 33.4372C203.985 33.3129 203.985 33.3129 203.985 33.1886H203.861C202.996 33.3129 202.137 33.3129 201.272 33.4372C199.916 33.5615 198.559 33.5615 197.203 33.3129C196.219 33.1886 195.355 32.8211 194.49 32.205C194.122 31.9564 193.749 31.5889 193.506 31.2215C193.014 30.4811 193.258 29.6164 194.122 29.2489C194.614 29.0003 195.23 29.0003 195.846 29.0003C196.587 29.1246 197.327 29.1246 198.067 29.0003C199.548 28.876 201.148 28.6328 202.629 28.5085C203.245 28.3842 203.861 28.3842 204.477 28.2599C204.477 28.0113 204.601 27.7681 204.601 27.5195C204.969 24.0662 205.217 20.7425 205.709 17.2892C205.958 14.333 206.325 11.4958 207.066 8.53962C207.314 7.67493 207.557 6.69136 207.93 5.82667C208.179 4.84309 208.914 4.34589 209.903 4.1027C210.519 3.9784 211.011 3.97839 211.508 3.97839C212.616 4.10269 213.481 4.47019 214.464 4.96198C215.945 5.94556 216.928 7.30205 216.928 9.15572C216.928 10.3879 217.053 11.7444 217.053 13.1009C217.053 15.8138 217.053 18.5268 217.053 21.2343C217.053 23.2069 217.053 25.1795 217.053 27.152C217.301 27.152 217.545 27.2763 217.793 27.2763C221.365 27.0277 224.943 26.7845 228.515 26.6602C229.499 26.5359 230.364 26.6602 231.228 26.6602C231.969 26.6602 232.709 26.9088 233.449 27.152C234.066 27.5195 234.682 28.0167 235.055 28.6328C235.303 29.3732 235.055 29.865 234.438 30.2379C233.947 30.4865 233.455 30.4865 232.839 30.3622C231.855 29.9947 230.99 30.1136 230.001 30.2379C228.029 30.4865 226.056 30.6054 224.084 30.854C222.111 30.9783 220.139 31.2215 218.166 31.4701C217.799 31.4701 217.426 31.5944 217.058 31.7187C217.058 31.843 216.934 32.0861 216.934 32.3347C216.934 32.7022 216.934 33.0751 216.934 33.3183C216.81 38.8631 216.81 44.4133 216.566 49.8339C216.442 55.503 216.442 61.0532 216.566 66.7223C216.566 69.8027 216.566 72.8832 216.815 75.969C216.939 79.1738 217.064 82.2542 217.431 85.459C217.68 87.064 217.923 88.6637 218.415 90.1445C218.539 90.512 218.663 90.7606 218.782 91.2524C219.15 91.0038 219.398 90.7606 219.647 90.512C220.879 89.1555 221.868 87.6747 222.727 86.0751C224.451 82.9946 225.932 79.7899 227.413 76.4608C230.001 70.7917 232.466 64.9983 234.314 59.0806C234.682 58.097 235.054 57.2323 235.546 56.2433C236.162 55.1355 237.643 54.7626 238.751 55.503C239 55.6273 239.243 55.8705 239.243 56.3677C239.243 56.3569 239.243 56.6 239.119 56.7243Z" fill="#F3F0E8"/>
<path d="M243.923 41.6896C242.939 44.2782 241.086 45.0186 238.497 44.5268C237.141 44.2782 235.784 43.6621 234.8 42.5543C232.952 40.5817 231.844 38.3605 231.963 35.653C232.088 33.1886 233.195 31.0917 235.292 29.7353C236.524 28.8706 237.881 28.8706 239.362 29.3678C239.978 29.4921 240.345 29.8596 240.842 30.3514C241.091 30.6 241.334 30.9674 241.583 31.216C242.448 31.8321 243.064 32.6968 243.555 33.6804C244.172 35.1612 244.42 36.6366 244.539 38.1173C244.544 39.4684 244.296 40.5763 243.923 41.6896ZM246.144 91.8577C247.252 90.3769 248.241 88.7772 249.1 87.1721C251.689 82.4866 254.029 77.6822 256.25 72.8724C258.098 68.9272 259.822 64.8578 261.179 60.7938C261.303 60.302 261.427 59.9291 261.671 59.5616C261.919 58.9455 262.287 58.6969 262.779 58.6969C263.27 58.5726 263.762 58.5726 264.259 58.8212C264.627 58.9455 265 59.1887 265.124 59.6859C264.757 60.7938 264.384 62.0259 264.016 63.1392C262.784 67.2087 261.06 71.1538 259.331 75.0935C257.234 80.1465 254.769 85.1996 252.305 90.1337C251.565 91.8577 250.705 93.4627 249.592 94.9435C248.976 95.6839 248.36 96.3 247.744 96.9161C245.896 98.6401 243.674 99.013 241.334 98.5158C239.854 98.2672 238.497 97.5322 237.638 96.2946C236.773 95.311 236.281 94.1977 235.789 93.0898C234.925 90.993 234.309 88.9015 233.817 86.6803C232.709 81.7516 232.336 76.6986 232.585 71.6402C232.833 67.4464 233.325 63.3824 234.309 59.313C234.557 58.3294 234.925 57.3404 235.292 56.4757C235.66 55.2435 236.649 54.7517 237.757 54.7517C238.865 54.6274 239.854 54.876 240.713 55.4921C241.702 55.9839 242.194 56.8486 242.194 57.9565C242.194 58.9401 242.194 59.9291 242.194 60.9127C242.069 62.5177 241.945 64.2417 241.945 65.8414C241.821 68.43 241.696 70.8944 241.696 73.4831C241.572 75.3313 241.572 77.4282 241.696 79.2764C241.821 83.2216 242.188 87.1667 243.177 90.8633C243.426 91.728 243.669 92.4683 243.918 93.2033C244.042 93.4519 244.166 93.6951 244.285 94.068C245.161 93.333 245.777 92.5981 246.144 91.8577Z" fill="#F3F0E8"/>
<path d="M279.424 57.9565C279.672 60.9127 279.424 63.8742 279.175 66.8304C278.808 69.6676 278.311 72.4995 277.576 75.3367C277.084 76.9418 276.711 78.5415 275.852 80.0223C275.484 80.8869 275.111 81.6219 274.619 82.2434C272.895 84.7078 270.674 85.4482 267.842 84.9564C265.621 84.5889 264.022 83.3567 262.914 81.503C261.806 79.6548 261.19 77.6822 260.817 75.7096C260.325 72.9967 260.201 70.2837 260.325 67.5762C260.817 61.9071 262.049 56.3569 264.394 51.0606C265.135 49.0881 266.118 47.3641 267.351 45.6347C267.842 45.0186 268.34 44.2782 268.95 43.6621C270.799 41.6896 273.387 41.9382 275.117 43.1704C275.981 43.7865 276.473 44.7754 276.349 45.8833C276.224 46.3751 276.224 46.8669 276.224 47.483C276.224 47.9748 276.1 48.3477 275.608 48.7152C278.067 51.4227 278.932 54.5086 279.424 57.9565ZM270.917 77.9254C271.658 76.5689 272.274 74.9693 272.766 73.4885C273.998 70.0351 274.614 66.5872 274.987 63.1338C275.235 61.037 275.479 58.9455 275.111 56.7243C274.863 55.1193 274.495 53.3953 273.63 51.9145C273.63 51.7902 273.382 51.547 273.263 51.2984C273.139 51.6659 273.014 51.9145 272.895 52.1631C272.031 54.6275 271.415 57.2161 270.799 59.8048C270.058 62.7609 269.442 65.8468 269.318 69.0515C269.193 71.2727 269.193 73.4885 269.318 75.7096C269.318 76.9418 269.442 78.0497 269.81 79.4062C270.426 78.9144 270.674 78.4226 270.917 77.9254Z" fill="#F3F0E8"/>
<path d="M307.402 50.4391C305.305 55.6164 303.332 60.6695 301.733 66.0954C300.625 69.7919 299.76 73.6128 299.144 77.4336C298.895 78.9144 298.652 80.2708 298.404 81.7462C298.279 82.1137 298.279 82.7298 298.155 83.1027C297.788 84.3349 297.047 84.8267 295.815 84.951C293.718 84.951 291.994 84.0863 290.762 82.3623C290.27 81.6219 289.897 80.7627 289.53 79.7737C289.038 78.5415 288.789 77.185 288.541 75.8285C288.049 72.132 287.8 68.43 287.8 64.7335C287.8 62.0205 287.8 59.4319 287.8 56.7189C287.8 54.006 288.168 51.293 288.417 48.4612C288.541 47.5965 288.665 46.6129 288.784 45.7482C288.908 45.1321 289.033 44.516 289.151 44.0242C289.4 43.4081 289.892 43.0407 290.384 42.9164C290.875 42.7921 291.367 42.6678 291.864 42.7921C292.848 42.7921 293.713 43.1595 294.577 43.6567C295.442 44.2728 296.058 45.1375 296.177 46.2454C296.301 47.4776 296.545 48.7098 296.669 49.9419C296.917 53.5142 297.285 56.9675 297.161 60.5452C297.161 60.7938 297.161 61.1612 297.409 61.4098C297.409 61.1612 297.534 60.7938 297.658 60.4263C299.382 54.7572 301.846 49.3313 304.316 44.0296C304.808 43.2893 305.181 42.5489 305.672 41.8085C306.656 40.452 307.894 39.8359 309.493 40.0845C311.217 40.3331 312.574 41.1924 313.19 42.9218C313.438 43.6621 313.557 44.4025 313.682 45.1429C313.806 46.3751 313.93 47.6073 313.93 48.8395C314.054 52.7846 314.054 56.854 314.298 60.7938C314.422 64.366 314.665 67.9436 315.406 71.5159C315.654 72.3806 315.773 73.1156 316.022 73.9802C316.27 74.472 316.513 74.9692 316.762 75.461C317.011 75.3367 317.254 75.3367 317.502 75.2124C318.119 74.4721 318.859 73.9803 319.351 73.2399C320.215 72.132 320.95 71.143 321.572 70.0351C322.804 67.9382 324.036 65.8468 325.144 63.6256C326.133 61.9017 327.117 60.0534 328.1 58.1997C328.225 57.8322 328.468 57.4593 328.716 57.2161C329.581 55.9839 331.429 55.8597 332.413 56.9675C332.537 57.2161 332.661 57.4593 332.661 57.5836C332.537 57.8322 332.537 57.9511 332.413 58.0754C332.045 58.324 331.797 58.8158 331.548 59.3076C330.067 62.3881 328.711 65.5928 327.236 68.6732C326.495 70.2729 325.636 71.878 324.771 73.4831C324.155 74.7152 323.415 75.8231 322.55 76.6878C322.183 77.0553 321.81 77.4282 321.442 77.7957C319.47 79.3954 317.13 79.7683 314.665 78.7793C312.941 78.1632 311.585 76.931 310.72 75.207C309.98 73.9749 309.612 72.7427 309.239 71.3862C308.747 69.165 308.499 66.9493 308.25 64.7281C307.758 60.2912 307.758 55.8542 307.758 51.293C307.758 50.9255 307.758 50.4283 307.758 49.8122C307.526 50.1905 307.526 50.3148 307.402 50.4391Z" fill="#F3F0E8"/>
<path d="M384.354 56.7622C382.505 55.53 380.744 54.4707 379.247 53.2385C375.723 50.6823 373.086 47.5154 372.113 43.2028C370.529 35.5449 372.378 29.0273 378.187 23.6554C381.36 21.0127 384.791 18.9915 389.104 18.3754C392.098 17.9377 394.914 18.5538 397.729 19.5211L399.491 20.2237C399.756 19.5211 399.842 18.9051 400.107 18.289C400.988 15.9111 401.691 13.7115 402.571 11.512C402.836 10.7175 403.188 10.1015 403.631 9.48537C405.041 7.45875 407.592 7.54522 408.824 9.75017C409.089 10.2798 409.003 10.9824 408.824 11.5984C407.857 15.2085 406.711 18.7321 405.652 22.2503C405.301 23.569 405.387 24.2769 406.354 25.3308C412.078 30.9675 412.078 38.7118 408.997 43.9972C407.938 45.8455 406.884 47.5208 405.122 48.5747C403.452 49.542 401.777 49.4555 400.367 48.2234C399.572 47.6073 399.221 46.9047 399.75 45.8455C400.188 44.7862 400.718 43.6459 401.334 42.6732C403.182 39.2414 404.15 35.6314 403.885 31.8429C403.885 31.4917 403.798 30.962 403.447 30.6108L403.004 31.5781C400.712 39.6792 398.513 47.6937 396.135 55.7029C395.784 57.1134 395.784 58.1673 396.751 59.313C397.897 60.5452 397.367 61.7773 395.784 62.1286C394.552 62.3934 394.287 63.096 394.022 64.1552L388.126 89.777C387.423 92.8574 386.802 95.9379 386.186 99.2886C386.623 99.3751 387.153 99.6398 387.596 99.6398C393.055 99.6398 397.897 98.0564 401.593 93.9167C403.177 92.3333 404.236 90.3931 404.766 88.1935C405.733 83.7026 406.084 79.3899 405.03 74.9854C404.766 74.191 404.501 73.4885 404.15 72.8724C403.533 71.6402 402.566 70.7593 400.977 70.6728L396.665 69.8784C396.221 69.7919 395.784 69.7001 395.519 69.4407C394.903 68.911 394.816 68.2949 395.432 67.8572C396.048 67.4194 396.756 67.2411 397.459 67.0628C400.983 66.7979 404.15 67.5924 407.23 69.1758C410.046 70.7593 411.894 73.2236 412.688 76.3095C414.099 81.5949 413.921 87.0478 412.245 92.2468C411.629 94.5382 410.046 96.3811 408.197 98.0564C404.15 101.753 399.215 103.601 393.757 104.217C391.206 104.39 388.65 104.217 386.007 103.774H385.126L383.716 113.021C383.538 113.902 383.186 114.869 382.657 115.485C382.041 116.366 381.338 116.28 380.63 115.664C379.836 114.783 379.484 113.815 379.571 112.848C379.836 110.205 380.1 107.654 380.452 104.925C380.452 104.223 380.63 103.428 380.717 102.547L377.285 101.142C374.291 99.6453 371.74 97.8835 369.362 95.5974C363.201 89.4365 361.969 82.1245 365.579 74.1153C369.276 66.0143 375.085 60.0263 383.538 57.1242L384.354 56.7622ZM388.666 64.7767H388.05C381.008 68.2085 376.074 73.5803 373.875 81.2436C371.762 88.9934 376.161 94.803 381.619 97.5322L388.666 64.7767ZM398.264 24.2715L397.999 24.0932C397.735 24.0932 397.47 23.9148 397.297 23.9148C394.833 23.4771 392.455 24.0932 390.255 25.147C384.797 27.9627 379.252 34.745 380.657 43.8999C381.095 46.7156 381.889 49.4447 384.181 51.2065C386.294 52.6171 388.493 53.8493 390.698 55.2544C393.33 44.7863 395.8 34.5721 398.264 24.2715Z" fill="#F3F0E8"/>
<path d="M457.268 27.1412C457.517 26.6494 457.76 26.0333 458.133 25.5361C458.749 24.5525 459.614 24.1796 460.846 24.5525C461.214 24.6768 461.586 24.92 462.078 25.0443C462.327 25.1686 462.57 25.2929 462.819 25.5361C463.186 25.4118 463.683 25.1686 464.051 25.0443C467.996 23.5636 471.941 22.2071 476.005 21.3478C479.577 20.6074 483.279 19.9913 486.851 19.3752C488.451 19.0077 490.056 18.8834 491.78 19.0077C493.137 19.132 494.493 19.4995 495.601 20.4885C496.341 21.1046 496.833 21.9693 497.201 22.8286C497.449 23.8121 497.325 24.6768 496.585 25.5415C496.217 26.1576 495.596 26.2819 494.861 26.0333C494.369 25.7847 493.872 25.5415 493.256 25.2929C491.034 25.6604 488.943 26.2765 486.722 27.0169C485.117 27.5087 483.393 28.1248 481.793 28.8652C478.221 30.2217 474.643 31.3295 470.947 32.5617C468.85 33.1778 466.753 33.7939 464.661 34.5343C464.294 34.6586 464.045 34.7829 463.672 34.7829C462.44 43.0406 461.332 51.2984 460.1 59.5616C460.1 59.8102 460.1 59.9291 460.1 60.302C460.468 60.1777 460.841 60.1777 461.089 60.0533C466.758 58.6969 472.427 57.2161 478.102 55.865C478.594 55.7407 479.21 55.6164 479.707 55.6164C481.431 55.3678 483.279 56.3568 484.02 57.9565C484.144 58.0808 484.268 58.324 484.268 58.4483C484.517 59.4319 484.268 59.9291 483.404 60.2966C482.171 60.7883 480.939 61.2801 479.831 61.653C477.118 62.6366 474.405 63.5013 471.817 64.4903C468.612 65.5982 465.532 66.8304 462.451 67.9436C461.586 68.3111 460.603 68.5597 459.738 68.8083C459.49 68.9326 459.246 69.0569 458.998 69.1758C458.873 69.7919 458.873 70.5323 458.749 71.1484C458.501 73.121 458.382 75.0935 458.133 77.0661C457.884 79.6548 457.641 82.2434 457.517 84.8321C457.149 89.6419 456.901 94.4463 457.149 99.2561C457.274 100.856 457.517 102.461 457.89 104.061C458.138 104.801 458.257 105.541 458.873 106.033C459.365 106.033 459.738 105.785 460.106 105.541C461.214 104.677 462.327 103.942 463.435 103.077C467.872 99.5047 472.065 95.6785 476.378 91.8577C478.475 90.0094 480.566 88.1611 482.663 86.1886C483.155 85.8211 483.528 85.3239 483.895 84.9564C484.263 84.4646 484.76 84.216 485.252 84.0917C486.36 83.9674 487.349 84.216 488.208 84.8321C488.948 85.4482 489.197 86.1886 488.948 87.1721C488.824 87.5396 488.581 87.9125 488.332 88.28C488.084 88.7718 487.716 89.1447 487.224 89.5122C485.744 91.2362 484.144 92.8412 482.663 94.4409C479.826 97.397 476.994 100.234 474.157 103.072C472.184 105.044 470.087 107.017 467.747 108.741C466.758 109.357 465.775 109.973 464.667 110.589C463.067 111.578 461.213 112.07 459.241 112.07C455.296 112.07 451.967 110.713 449.751 107.26C448.762 105.66 448.27 104.055 447.778 102.331C447.411 100.483 447.162 98.5103 447.038 96.5378C446.914 94.0734 446.789 91.3605 446.789 88.7718C447.038 85.0753 447.157 81.2544 447.406 77.5525C447.53 75.3313 447.773 73.1156 447.897 71.0187C448.022 70.5269 448.022 70.0297 448.022 69.5379C447.897 69.1704 447.654 68.9218 447.53 68.5489C447.162 67.8085 447.281 67.3168 447.897 66.7007C448.022 66.5764 448.265 66.452 448.513 66.2089C449.129 61.399 449.87 56.4703 450.853 51.5416C451.837 46.7318 452.826 41.8031 454.183 37.1175C453.934 36.8689 453.815 36.9932 453.566 36.9932C453.075 36.9932 452.583 36.9932 452.086 36.9932C450.729 37.1175 449.248 35.8854 448.757 34.4046C448.508 33.6642 448.757 32.9238 449.497 32.432C449.864 32.0645 450.237 31.8159 450.605 31.5673C452.086 30.7026 453.561 29.9676 454.917 29.2273C455.534 28.8598 456.15 28.6112 456.766 28.2437C457.025 27.8816 457.144 27.5141 457.268 27.1412Z" fill="#F3F0E8"/>
<path d="M533.691 54.0114C534.431 54.0114 535.171 54.1357 535.787 54.6275C536.155 54.8761 536.528 55.3679 536.403 55.984C536.403 56.4757 536.403 56.9675 536.155 57.589C535.663 59.313 535.047 61.1613 534.431 62.8906C532.458 67.9436 532.334 68.4355 530.361 73.4939C529.129 76.5743 527.773 79.5359 525.925 82.3677C525.06 83.5999 524.201 84.8321 523.212 85.8211C521.731 87.3019 520.131 88.534 518.159 89.0258C515.078 89.7662 512.117 89.3933 509.409 87.7936C508.053 86.9289 506.945 85.8211 505.956 84.5889C505.215 83.5999 504.599 82.7406 503.859 81.7516C503.491 81.7516 503.491 82.1191 503.367 82.3677C501.886 84.9564 500.53 87.545 499.054 90.258C498.563 91.247 497.947 92.2306 497.33 93.2142C497.206 93.5817 496.963 93.9546 496.714 94.1977C495.974 95.0624 494.742 95.1867 493.877 94.5652C493.628 94.3166 493.51 94.0734 493.385 93.8248C495.725 88.0314 498.195 82.1137 501.4 76.8121C501.276 76.4446 501.151 76.196 501.151 75.8285C499.303 71.143 498.071 66.3386 497.082 61.2802C496.833 60.048 496.59 58.8158 496.466 57.5836C496.341 56.4758 496.341 55.4868 496.341 54.5032C496.466 52.6549 497.325 51.547 499.179 51.1741C500.535 50.8066 501.892 50.9255 503.248 51.4227C504.113 51.9145 504.853 52.5306 505.345 53.5196C505.469 54.1357 505.837 54.7518 505.961 55.3679C506.826 58.0808 507.561 60.9127 508.425 63.7499C508.55 64.1174 508.55 64.4903 508.793 64.8578C508.917 64.6092 509.16 64.4903 509.285 64.366C510.268 62.8852 511.133 61.5288 512.122 60.1723C514.343 56.9675 516.435 53.6385 518.656 50.4337C519.023 49.8176 519.52 49.0773 520.012 48.5855C520.753 47.7208 522.109 47.4776 522.968 48.0937C523.46 48.3423 523.709 48.8341 523.46 49.3259C523.336 49.5745 523.093 49.8176 522.968 50.0662C519.023 56.3514 515.202 62.6421 511.257 68.9272C510.89 69.419 510.641 69.9162 510.393 70.408C510.393 70.6566 510.393 70.8998 510.393 71.1484C511.257 73.7371 511.992 76.45 513.106 78.9144C513.722 80.2709 514.338 81.6273 515.327 82.7352C515.451 83.1027 515.818 83.4756 516.067 83.7242C516.435 83.7242 516.559 83.4756 516.807 83.3567C517.915 82.2488 518.904 81.0166 519.888 79.7845C522.725 75.8393 525.065 71.5267 527.038 67.0898C529.259 62.1611 529.502 61.6639 531.599 56.8594C531.967 56.2434 531.967 55.6273 531.967 55.0112C532.458 54.26 533.074 54.1357 533.691 54.0114Z" fill="#F3F0E8"/>
<path d="M545.775 70.5323C545.034 74.3532 544.294 78.174 543.926 81.9948C543.678 84.4592 543.434 86.8047 543.31 89.1447C543.062 91.6091 543.062 94.0734 543.062 96.5432C543.186 100.24 543.429 103.817 543.802 107.514C544.051 110.843 544.418 114.172 544.667 117.501C544.667 117.75 544.667 117.869 544.667 117.993C544.667 118.982 544.299 119.474 543.434 119.841C541.338 120.457 538.749 119.225 538.257 117.128C537.765 115.529 537.392 113.923 537.149 112.318C536.533 108.622 535.917 105.044 535.425 101.348C534.934 98.3915 534.442 95.5542 534.069 92.5981C533.701 90.3769 533.453 88.0369 533.204 85.8211C532.956 83.7242 532.712 81.6328 532.588 79.5359C532.464 78.3037 532.339 77.0715 532.221 75.8393C531.972 70.662 531.853 65.609 531.972 60.4317C532.096 57.1026 532.339 53.7736 532.712 50.4446C533.328 45.759 534.069 41.0789 535.425 36.5177C535.674 35.5341 536.041 34.5451 536.414 33.5615C536.782 32.8211 537.155 32.205 537.522 31.589C538.387 30.2325 539.619 29.7407 541.219 30.1082C542.943 30.3568 544.175 31.4647 544.548 33.1886C544.915 34.6694 545.04 36.1448 545.288 37.6256C545.288 37.8742 545.288 37.9931 545.288 38.1174C545.164 38.4848 544.796 38.6091 544.548 38.7334C543.807 38.8577 543.067 38.6091 542.451 38.2416C542.202 38.6091 542.202 39.1063 542.083 39.4738C541.959 41.0789 541.835 42.6786 541.716 44.2837C541.467 46.3805 541.467 48.3531 541.348 50.4446C541.224 53.1575 541.1 55.8705 541.1 58.4591C541.1 58.8266 541.1 59.1995 541.1 59.6913C541.716 59.1995 542.332 58.8266 542.948 58.3348C543.072 58.0862 543.197 57.7187 543.316 57.3458C544.796 52.9089 546.52 48.7152 548.985 44.7754C550.093 43.0515 551.325 41.4464 552.681 39.9656C553.789 38.8577 554.902 37.8687 556.254 37.0095C557.118 36.3934 558.102 36.0259 559.21 35.7773C563.647 34.7937 567.84 37.5013 568.948 42.0625C569.44 44.0351 569.316 46.0076 569.072 48.1045C568.824 50.4445 568.208 52.79 567.224 55.0058C566.116 57.4701 564.636 59.6913 562.539 61.291C561.182 62.5232 559.583 63.2635 557.853 63.8796C554.524 65.1118 551.076 65.7279 547.623 65.8522C547.374 65.8522 547.255 65.8522 546.882 65.8522C546.51 67.4519 546.142 69.0515 545.775 70.5323ZM560.069 40.8249C559.08 41.441 558.096 42.4246 557.232 43.2893C555.875 44.8943 554.643 46.494 553.659 48.3423C551.195 52.4117 549.466 56.973 548.115 61.5342C547.99 61.7828 547.99 61.9017 548.239 62.026C549.963 61.7774 551.692 61.2856 553.416 60.6695C556.372 59.4373 558.594 57.4647 559.95 54.6275C560.074 54.26 560.199 53.8871 560.317 53.5196C561.182 51.547 561.674 49.5745 562.041 47.3587C562.29 45.759 562.533 44.1539 562.409 42.5489C562.409 41.6842 562.409 40.8249 561.917 39.9602C561.301 40.0845 560.685 40.452 560.069 40.8249Z" fill="#F3F0E8"/>
<path d="M581.27 72.2563C581.021 74.8449 581.146 77.5579 581.519 80.2709C581.767 81.3787 582.01 82.6109 582.508 83.7242C582.632 83.9728 582.756 84.216 582.875 84.4646C583.124 84.3403 583.243 84.216 583.491 84.0971C584.723 83.1135 585.712 81.8759 586.696 80.6438C588.177 78.7955 589.652 76.6986 590.884 74.6018C594.338 69.1758 597.661 63.5067 600.747 57.8376C601.115 57.3458 601.363 56.7298 601.736 56.2326C601.86 55.8651 602.228 55.6164 602.601 55.4921C603.217 55.3678 603.833 55.3679 604.449 55.6165C604.941 55.8651 605.314 56.1082 605.433 56.7243C604.817 57.9565 604.325 59.313 603.584 60.5452C602.476 62.7663 601.363 65.1064 600.131 67.3222C597.667 71.6348 595.321 76.0717 592.857 80.3897C591.992 81.8705 591.009 83.227 590.144 84.5835C589.279 85.8157 588.296 86.8046 587.188 87.6639C586.204 88.4043 585.215 88.8961 583.983 89.0204C581.146 89.3879 578.806 88.5286 576.957 86.4317C575.974 85.3239 575.358 84.2106 574.86 82.8595C573.996 80.6383 573.38 78.2983 573.137 75.8339C573.012 74.9692 572.888 74.2289 572.888 73.4939C572.639 68.9327 573.504 64.62 574.985 60.4263C575.725 58.3294 576.709 56.3568 577.822 54.3843C578.562 53.2764 579.427 52.2874 580.411 51.4281C581.643 50.3202 582.999 49.5798 584.599 49.4555C587.436 49.3312 589.652 50.3202 591.257 52.536C591.997 53.6439 592.241 54.7572 592.365 55.9894C592.489 57.4701 592.241 58.8266 591.749 60.1777C591.133 62.2746 590.025 64.2471 588.544 65.9711C588.052 66.4629 587.561 66.9547 587.063 67.3276C585.707 68.4354 584.226 69.0515 582.502 69.0515C582.378 69.0515 582.135 69.0515 582.01 69.0515C581.886 69.0515 581.886 69.0515 581.886 69.1758C581.519 70.1594 581.394 71.1484 581.27 72.2563ZM585.831 57.9565C585.091 58.9401 583.734 61.7774 583.491 63.2581C584.972 61.5342 585.956 59.4373 585.831 57.9565Z" fill="#F3F0E8"/>
<path d="M635.632 43.165C636.74 42.7975 637.729 42.5489 638.837 42.3003C640.933 42.176 642.533 42.6678 644.014 44.1485C644.506 44.516 644.754 44.7646 644.754 45.505C644.63 45.8725 644.387 45.9968 644.014 46.1211C643.641 46.2454 643.149 46.1211 642.657 45.8725C642.29 45.7482 642.166 45.505 641.793 45.3807C641.301 45.0132 640.928 44.7646 640.436 44.8889C639.82 45.1375 639.204 45.2564 638.588 45.6293C633.286 47.9694 628.358 52.5306 624.412 56.4757C615.539 65.7225 612.826 80.1412 610.853 89.6365C610.604 90.5012 610.113 91.1173 609.864 91.8577C609.248 92.9656 608.264 93.5816 607.027 93.4573C604.806 93.2087 602.957 92.2252 602.098 90.1283C601.482 89.0204 601.109 87.9071 600.866 86.6749C600.617 85.0753 600.374 83.3459 600.25 81.7462C599.882 77.8011 599.634 73.856 599.634 69.6676C599.758 66.9547 599.758 64.1228 600.126 61.2856C600.493 58.3294 600.99 55.4921 601.725 52.6549C602.093 51.547 602.341 50.558 602.833 49.5745C603.082 49.0827 603.201 48.8341 603.449 48.3423C604.314 46.9858 605.546 46.3697 607.146 46.494C608.502 46.8615 609.61 47.2344 610.718 48.0937C611.826 49.0773 612.442 50.4337 612.442 52.1631C612.193 53.5196 612.193 55.0004 612.074 56.4757C611.707 58.9401 611.458 61.4045 611.334 63.8742C611.21 66.4629 611.085 69.1758 610.967 71.8888C610.842 73.8614 610.718 75.8339 610.599 77.9308C610.599 77.9308 610.723 77.9308 610.848 77.9308C610.113 62.8906 623.056 49.8231 635.632 43.165Z" fill="#F3F0E8"/>
<path d="M649.434 41.6896C648.445 44.2782 646.597 45.0186 644.008 44.5268C642.652 44.2782 641.295 43.6621 640.312 42.5543C638.464 40.5817 637.356 38.3605 637.475 35.653C637.599 33.1886 638.707 31.0917 640.804 29.7353C642.036 28.8706 643.392 28.8706 644.873 29.3678C645.489 29.4921 645.862 29.8596 646.354 30.3514C646.603 30.6 646.846 30.9674 647.094 31.216C647.959 31.8321 648.575 32.6968 649.067 33.6804C649.683 35.1612 649.932 36.6366 650.056 38.1173C650.05 39.4684 649.802 40.5763 649.434 41.6896ZM651.65 91.8577C652.758 90.3769 653.747 88.7772 654.606 87.1721C657.195 82.4866 659.535 77.6822 661.756 72.8724C663.604 68.9272 665.328 64.8578 666.685 60.7938C666.809 60.302 666.934 59.9291 667.177 59.5616C667.425 58.9455 667.793 58.6969 668.285 58.6969C668.776 58.5726 669.268 58.5726 669.765 58.8212C670.133 58.9455 670.506 59.1887 670.63 59.6859C670.262 60.7938 669.89 62.0259 669.522 63.1392C668.29 67.2087 666.566 71.1538 664.837 75.0935C662.74 80.1465 660.275 85.1996 657.811 90.1337C657.071 91.8577 656.211 93.4627 655.098 94.9435C654.482 95.6839 653.866 96.3 653.25 96.9161C651.402 98.6401 649.18 99.013 646.84 98.5158C645.36 98.2672 644.003 97.5322 643.144 96.2946C642.279 95.311 641.787 94.1977 641.296 93.0898C640.431 90.993 639.815 88.9015 639.323 86.6803C638.215 81.7516 637.842 76.6986 638.091 71.6402C638.339 67.4464 638.831 63.3824 639.815 59.313C640.063 58.3294 640.431 57.3404 640.798 56.4757C641.166 55.2435 642.155 54.7517 643.263 54.7517C644.371 54.6274 645.36 54.876 646.219 55.4921C647.208 55.9839 647.7 56.8486 647.7 57.9565C647.7 58.9401 647.7 59.9291 647.7 60.9127C647.575 62.5177 647.451 64.2417 647.451 65.8414C647.327 68.43 647.202 70.8944 647.202 73.4831C647.078 75.3313 647.078 77.4282 647.202 79.2764C647.327 83.2216 647.694 87.1667 648.683 90.8633C648.932 91.728 649.175 92.4683 649.424 93.2033C649.548 93.4519 649.672 93.6951 649.791 94.068C650.667 93.333 651.283 92.5981 651.65 91.8577Z" fill="#F3F0E8"/>
<path d="M672.851 72.2563C672.603 74.8449 672.727 77.5579 673.1 80.2709C673.348 81.3787 673.592 82.6109 674.089 83.7242C674.213 83.9728 674.337 84.216 674.456 84.4646C674.705 84.3403 674.824 84.216 675.072 84.0971C676.305 83.1135 677.294 81.8759 678.277 80.6438C679.758 78.7955 681.233 76.6986 682.465 74.6018C685.919 69.1758 689.242 63.5067 692.328 57.8376C692.696 57.3458 692.944 56.7298 693.312 56.2326C693.436 55.8651 693.804 55.6164 694.177 55.4921C694.793 55.3678 695.409 55.3679 696.025 55.6165C696.517 55.8651 696.89 56.1082 697.008 56.7243C696.392 57.9565 695.9 59.313 695.16 60.5452C694.052 62.7663 692.939 65.1064 691.707 67.3222C689.242 71.6348 686.897 76.0717 684.433 80.3897C683.568 81.8705 682.584 83.227 681.72 84.5835C680.855 85.8157 679.871 86.8046 678.763 87.6639C677.78 88.4043 676.791 88.8961 675.559 89.0204C672.721 89.3879 670.381 88.5286 668.533 86.4317C667.55 85.3239 666.934 84.2106 666.436 82.8595C665.572 80.6383 664.956 78.2983 664.712 75.8339C664.588 74.9692 664.464 74.2289 664.464 73.4939C664.215 68.9327 665.08 64.62 666.561 60.4263C667.301 58.3294 668.285 56.3568 669.398 54.3843C670.138 53.2764 671.003 52.2874 671.986 51.4281C673.219 50.3202 674.575 49.5798 676.175 49.4555C679.012 49.3312 681.228 50.3202 682.833 52.536C683.573 53.6439 683.816 54.7572 683.941 55.9894C684.065 57.4701 683.817 58.8266 683.325 60.1777C682.709 62.2746 681.601 64.2471 680.12 65.9711C679.628 66.4629 679.136 66.9547 678.639 67.3276C677.283 68.4354 675.802 69.0515 674.078 69.0515C673.954 69.0515 673.71 69.0515 673.586 69.0515C673.462 69.0515 673.462 69.0515 673.462 69.1758C673.1 70.1594 672.976 71.1484 672.851 72.2563ZM677.412 57.9565C676.672 58.9401 675.316 61.7774 675.072 63.2581C676.548 61.5342 677.537 59.4373 677.412 57.9565Z" fill="#F3F0E8"/>
<path d="M711.557 50.4391C709.46 55.6164 707.487 60.6695 705.888 66.0954C704.78 69.7919 703.915 73.6128 703.299 77.4336C703.05 78.9144 702.807 80.2708 702.559 81.7462C702.434 82.1137 702.434 82.7298 702.31 83.1027C701.942 84.3349 701.202 84.8267 699.97 84.951C697.873 84.951 696.149 84.0863 694.917 82.3623C694.425 81.6219 694.052 80.7627 693.685 79.7737C693.193 78.5415 692.944 77.185 692.696 75.8285C692.204 72.132 691.955 68.43 691.955 64.7335C691.955 62.0205 691.955 59.4319 691.955 56.7189C691.955 54.006 692.323 51.293 692.571 48.4612C692.696 47.5965 692.82 46.6129 692.939 45.7482C693.063 45.1321 693.188 44.516 693.306 44.0242C693.555 43.4081 694.047 43.0407 694.539 42.9164C695.03 42.7921 695.522 42.6678 696.019 42.7921C697.003 42.7921 697.868 43.1595 698.732 43.6567C699.597 44.2728 700.213 45.1375 700.332 46.2454C700.456 47.4776 700.699 48.7098 700.824 49.9419C701.072 53.5142 701.44 56.9675 701.316 60.5452C701.316 60.7938 701.316 61.1612 701.564 61.4098C701.564 61.1612 701.689 60.7938 701.813 60.4263C703.537 54.7572 706.001 49.3313 708.471 44.0296C708.963 43.2893 709.336 42.5489 709.827 41.8085C710.811 40.452 712.049 39.8359 713.648 40.0845C715.372 40.3331 716.729 41.1924 717.345 42.9218C717.593 43.6621 717.712 44.4025 717.837 45.1429C717.961 46.3751 718.085 47.6073 718.085 48.8395C718.209 52.7846 718.209 56.854 718.453 60.7938C718.577 64.366 718.82 67.9436 719.561 71.5159C719.809 72.3806 719.928 73.1156 720.177 73.9802C720.425 74.472 720.668 74.9692 720.917 75.461C721.166 75.3367 721.409 75.3367 721.657 75.2124C722.273 74.4721 723.014 73.9803 723.506 73.2399C724.37 72.132 725.105 71.143 725.727 70.0351C726.959 67.9382 728.191 65.8468 729.299 63.6256C730.288 61.9017 731.272 60.0534 732.255 58.1997C732.379 57.8322 732.623 57.4593 732.871 57.2161C733.736 55.9839 735.584 55.8597 736.568 56.9675C736.692 57.2161 736.816 57.4593 736.816 57.5836C736.692 57.8322 736.692 57.9511 736.568 58.0754C736.2 58.324 735.952 58.8158 735.703 59.3076C734.222 62.3881 732.866 65.5928 731.391 68.6732C730.65 70.2729 729.791 71.878 728.926 73.4831C728.31 74.7152 727.57 75.8231 726.705 76.6878C726.337 77.0553 725.965 77.4282 725.597 77.7957C723.625 79.3954 721.284 79.7683 718.82 78.7793C717.096 78.1632 715.74 76.931 714.875 75.207C714.135 73.9749 713.767 72.7427 713.394 71.3862C712.902 69.165 712.654 66.9493 712.405 64.7281C711.913 60.2912 711.913 55.8542 711.913 51.293C711.913 50.9255 711.913 50.4283 711.913 49.8122C711.681 50.1905 711.681 50.3148 711.557 50.4391Z" fill="#F3F0E8"/>
<path d="M756.915 53.5196C756.175 53.271 755.683 52.7792 755.315 52.1631C754.948 51.4227 754.824 50.5634 754.824 49.823C754.699 48.5908 754.699 47.3587 754.575 46.1265C754.451 45.1429 754.207 44.2782 753.959 43.4135C753.959 43.2892 753.835 43.046 753.71 42.7974C753.462 43.046 753.218 43.1649 752.97 43.4135C751.862 44.2782 750.997 45.2618 750.133 46.3697C747.793 49.4501 745.939 52.7792 744.463 56.2325C742.367 61.2855 740.886 66.4629 740.027 71.8888C739.286 76.0771 738.919 80.2708 739.043 84.4592C739.167 87.0478 739.41 89.6365 740.027 92.2251C740.275 93.0898 740.518 93.9491 740.767 94.6895C741.016 95.1813 741.259 95.6731 741.507 96.1703C741.875 96.046 742.123 96.046 742.248 95.9217C742.988 95.5542 743.604 95.057 744.22 94.5652C745.577 93.4573 746.56 92.1008 747.674 90.7444C751.251 85.9345 754.575 80.8815 757.412 75.5853C760.249 70.5323 762.957 65.355 765.302 60.0533C765.551 59.5615 765.794 59.0698 766.167 58.6969C766.783 57.7133 768.264 57.589 769.123 58.3294C769.372 58.578 769.491 58.9455 769.372 59.313C769.372 59.313 769.372 59.4373 769.248 59.5616C765.178 68.9272 760.498 78.0497 755.564 87.0478C754.332 89.1447 753.1 91.2362 751.743 93.2087C751.003 94.4409 750.019 95.5488 749.03 96.781C748.165 97.7699 747.182 98.5049 746.074 99.2453C742.745 101.218 737.941 100.845 734.979 97.6403C734.114 96.7756 733.379 95.792 732.882 94.6841C731.893 92.7115 731.158 90.6146 730.661 88.3989C729.796 84.7023 729.429 80.8815 729.553 77.1796C729.553 67.6896 731.65 58.8104 736.087 50.4283C737.568 47.591 739.167 45.0024 741.264 42.7866C742.496 41.1815 743.853 39.9494 745.452 38.8415C746.317 38.2254 747.176 37.7336 748.041 37.3607C750.997 36.1285 753.835 36.3771 756.548 38.1011C758.769 39.5819 760.001 41.6733 760.244 44.262C760.368 45.6185 760.368 46.9749 760.12 48.2071C759.752 49.6879 759.504 51.0444 759.255 52.4009C759.131 52.7684 759.006 53.0169 758.888 53.2655C758.271 53.8924 757.531 53.7682 756.915 53.5196Z" fill="#F3F0E8"/>
<path d="M771.707 72.2563C771.458 74.8449 771.582 77.5579 771.955 80.2709C772.204 81.3787 772.447 82.6109 772.944 83.7242C773.068 83.9728 773.193 84.216 773.312 84.4646C773.56 84.3403 773.679 84.216 773.928 84.0971C775.16 83.1135 776.149 81.8759 777.133 80.6438C778.613 78.7955 780.089 76.6986 781.321 74.6018C784.774 69.1758 788.098 63.5067 791.184 57.8376C791.551 57.3458 791.8 56.7298 792.173 56.2326C792.297 55.8651 792.664 55.6164 793.037 55.4921C793.653 55.3678 794.27 55.3679 794.886 55.6165C795.377 55.8651 795.75 56.1082 795.869 56.7243C795.253 57.9565 794.761 59.313 794.021 60.5452C792.913 62.7663 791.8 65.1064 790.568 67.3222C788.103 71.6348 785.758 76.0717 783.293 80.3897C782.429 81.8705 781.445 83.227 780.58 84.5835C779.716 85.8157 778.732 86.8046 777.624 87.6639C776.641 88.4043 775.652 88.8961 774.42 89.0204C771.582 89.3879 769.242 88.5286 767.394 86.4317C766.41 85.3239 765.794 84.2106 765.297 82.8595C764.432 80.6383 763.816 78.2983 763.573 75.8339C763.449 74.9692 763.325 74.2289 763.325 73.4939C763.076 68.9327 763.941 64.62 765.421 60.4263C766.162 58.3294 767.145 56.3568 768.259 54.3843C768.999 53.2764 769.864 52.2874 770.847 51.4281C772.08 50.3202 773.436 49.5798 775.036 49.4555C777.873 49.3312 780.089 50.3202 781.694 52.536C782.434 53.6439 782.677 54.7572 782.802 55.9894C782.926 57.4701 782.677 58.8266 782.186 60.1777C781.569 62.2746 780.462 64.2471 778.981 65.9711C778.489 66.4629 777.997 66.9547 777.5 67.3276C776.143 68.4354 774.663 69.0515 772.939 69.0515C772.814 69.0515 772.571 69.0515 772.447 69.0515C772.323 69.0515 772.323 69.0515 772.323 69.1758C771.95 70.1594 771.831 71.1484 771.707 72.2563ZM776.268 57.9565C775.527 58.9401 774.171 61.7774 773.928 63.2581C775.403 61.5342 776.392 59.4373 776.268 57.9565Z" fill="#F3F0E8"/>
</svg>
