<svg width="167" height="146" viewBox="0 0 167 146" fill="none" xmlns="http://www.w3.org/2000/svg">
<path d="M14.3441 92.6536C12.5141 90.5536 10.8141 88.3436 9.30412 86.0136C1.61412 74.1136 -0.665858 61.1136 2.88414 49.4036C10.5641 24.1436 47.4141 1.2536 78.0041 1.2536C80.4441 1.2536 82.8441 1.40359 85.1941 1.70359C99.8241 3.59359 112.924 11.9536 121.124 24.6536C121.284 24.9036 121.424 25.1536 121.584 25.4036C122.074 25.3936 122.574 25.3936 123.064 25.4336C122.774 24.9436 122.484 24.4536 122.174 23.9736C113.764 10.9636 100.344 2.39359 85.3541 0.453593C53.1241 -3.69641 10.1241 21.2736 1.69414 49.0336C-1.97586 61.0936 0.364137 74.4636 8.25414 86.6836C9.91414 89.2536 11.8041 91.6636 13.8441 93.9536C13.9941 93.5236 14.1541 93.0836 14.3441 92.6536Z" fill="#E8B67C"/>
<path d="M44.1141 109.513C42.7041 109.513 41.5541 110.663 41.5541 112.073C41.5541 113.483 42.7041 114.633 44.1141 114.633C45.5241 114.633 46.6741 113.483 46.6741 112.073C46.6741 110.663 45.5241 109.513 44.1141 109.513Z" fill="#B85459"/>
<path d="M76.1842 74.3935C75.9941 64.9735 82.3641 57.3135 91.4241 56.1135C81.2441 42.7035 66.9541 34.6835 52.3441 36.2335C34.9941 38.1935 17.3142 53.6035 11.6942 76.7935C6.07416 99.9835 12.5742 131.054 31.5142 141.364C50.4542 151.674 81.9541 141.264 95.9741 123.814C99.7041 119.204 102.204 114.104 103.684 108.754C89.0641 105.904 76.4742 88.3535 76.1842 74.3935ZM31.3342 102.484C29.2342 102.484 27.5242 100.774 27.5242 98.6735C27.5242 96.5735 29.2342 94.8635 31.3342 94.8635C33.4342 94.8635 35.1442 96.5735 35.1442 98.6735C35.1442 100.774 33.4342 102.484 31.3342 102.484ZM44.1141 115.884C42.0141 115.884 40.3041 114.174 40.3041 112.074C40.3041 109.974 42.0141 108.264 44.1141 108.264C46.2141 108.264 47.9241 109.974 47.9241 112.074C47.9241 114.174 46.2141 115.884 44.1141 115.884ZM44.1141 89.0835C42.0141 89.0835 40.3041 87.3735 40.3041 85.2735C40.3041 83.1735 42.0141 81.4635 44.1141 81.4635C46.2141 81.4635 47.9241 83.1735 47.9241 85.2735C47.9241 87.3735 46.2141 89.0835 44.1141 89.0835ZM56.8942 89.0835C54.7942 89.0835 53.0842 87.3735 53.0842 85.2735C53.0842 83.1735 54.7942 81.4635 56.8942 81.4635C58.9942 81.4635 60.7042 83.1735 60.7042 85.2735C60.7042 87.3735 58.9942 89.0835 56.8942 89.0835Z" fill="#B85459"/>
<path d="M31.3342 96.1135C29.9242 96.1135 28.7742 97.2636 28.7742 98.6736C28.7742 100.084 29.9242 101.234 31.3342 101.234C32.7442 101.234 33.8942 100.084 33.8942 98.6736C33.8942 97.2636 32.7442 96.1135 31.3342 96.1135Z" fill="#B85459"/>
<path d="M44.1141 82.7134C42.7041 82.7134 41.5541 83.8634 41.5541 85.2734C41.5541 86.6834 42.7041 87.8334 44.1141 87.8334C45.5241 87.8334 46.6741 86.6834 46.6741 85.2734C46.6641 83.8634 45.5241 82.7134 44.1141 82.7134Z" fill="#B85459"/>
<path d="M56.8942 82.7134C55.4842 82.7134 54.3342 83.8634 54.3342 85.2734C54.3342 86.6834 55.4842 87.8334 56.8942 87.8334C58.3042 87.8334 59.4542 86.6834 59.4542 85.2734C59.4442 83.8634 58.3042 82.7134 56.8942 82.7134Z" fill="#B85459"/>
<path d="M122.944 83.3738C123.274 82.7738 123.604 82.1738 123.974 81.5838C124.354 80.9838 124.774 80.4038 125.194 79.8238C125.544 79.3338 125.874 78.8238 126.254 78.3538C127.004 77.4038 127.824 76.4938 128.684 75.6238C128.764 75.5438 128.834 75.4438 128.924 75.3538C129.694 74.5838 130.484 73.8638 131.304 73.1838C131.334 72.9038 131.354 72.6138 131.354 72.3338C131.354 63.8338 127.274 55.7138 120.114 49.8838C112.954 55.7138 108.874 63.8338 108.874 72.3338C108.874 72.6038 108.894 72.8738 108.914 73.1438C109.764 73.8438 110.584 74.5838 111.354 75.3638C111.444 75.4538 111.514 75.5538 111.594 75.6338C112.444 76.5038 113.254 77.4138 114.014 78.3538C114.404 78.8338 114.734 79.3538 115.094 79.8438C115.504 80.4138 115.924 80.9838 116.294 81.5838C116.664 82.1638 116.984 82.7638 117.314 83.3638C117.624 83.9338 117.934 84.4938 118.224 85.0838C118.504 85.6738 118.764 86.2738 119.014 86.8838C119.294 87.5638 119.554 88.2438 119.794 88.9338C119.894 89.2338 120.034 89.5138 120.134 89.8138C120.234 89.4938 120.384 89.1838 120.494 88.8638C120.724 88.2038 120.974 87.5538 121.234 86.9138C121.494 86.2938 121.754 85.6738 122.054 85.0638C122.334 84.4938 122.644 83.9338 122.944 83.3738Z" fill="#E8B67C"/>
<path d="M117.854 93.8637C117.734 93.3237 117.604 92.7837 117.464 92.2437C117.364 91.8737 117.284 91.4937 117.164 91.1237C116.584 89.2237 115.834 87.3737 114.914 85.6037C114.824 85.4237 114.714 85.2537 114.624 85.0737C114.244 84.3737 113.834 83.6837 113.404 83.0037C113.254 82.7737 113.104 82.5437 112.954 82.3237C112.544 81.7137 112.094 81.1237 111.644 80.5437C111.464 80.3137 111.284 80.0737 111.094 79.8437C110.544 79.1837 109.974 78.5537 109.374 77.9337C109.274 77.8337 109.184 77.7237 109.084 77.6237C108.274 76.8137 107.414 76.0537 106.524 75.3437C100.894 70.8437 93.974 68.5737 86.404 68.7337C86.214 77.5737 89.2741 85.4037 95.3041 91.4237C101.504 97.6237 109.964 101.014 118.564 100.904C118.564 100.854 118.564 100.794 118.564 100.744C118.584 98.9337 118.424 97.1537 118.144 95.3837C118.044 94.8737 117.954 94.3637 117.854 93.8637Z" fill="#E8B67C"/>
<path d="M133.654 75.4337C133.014 75.9537 132.394 76.5237 131.774 77.1137C131.584 77.2937 131.374 77.4537 131.194 77.6437C130.464 78.3737 129.774 79.1437 129.124 79.9337C128.994 80.0837 128.874 80.2537 128.744 80.4137C128.224 81.0737 127.724 81.7437 127.254 82.4337C127.134 82.6037 127.024 82.7737 126.914 82.9437C126.434 83.6837 125.984 84.4437 125.564 85.2137C125.504 85.3337 125.434 85.4337 125.374 85.5537C124.434 87.3637 123.664 89.2437 123.074 91.1937C122.994 91.4437 122.934 91.7137 122.864 91.9737C122.684 92.6337 122.524 93.3037 122.384 93.9737C122.304 94.3737 122.234 94.7837 122.164 95.1837C121.854 97.0137 121.694 98.8737 121.714 100.754C121.714 100.804 121.714 100.854 121.714 100.904C130.284 100.934 138.774 97.6237 144.984 91.4237C151.014 85.3937 154.064 77.5737 153.884 68.7437C146.244 68.5737 139.294 70.8637 133.654 75.4337Z" fill="#E8B67C"/>
<path d="M118.274 21.0437C94.2141 21.0437 70.5241 50.3737 70.5241 77.3437C70.5241 104.224 94.2141 128.664 118.274 128.664C142.244 128.664 166.684 104.224 166.684 77.3437C166.684 50.3737 142.244 21.0437 118.274 21.0437ZM147.254 93.6937C140.564 100.384 131.524 104.114 122.184 104.114C121.504 104.114 120.824 104.094 120.134 104.054C119.454 104.094 118.764 104.114 118.084 104.114C108.744 104.114 99.7041 100.374 93.0141 93.6937C85.9841 86.6737 82.6141 77.4737 83.2441 67.0937C83.2941 66.2837 83.9341 65.6337 84.7541 65.5837C92.5741 65.1037 99.7041 66.9037 105.754 70.8137C106.234 61.4837 111.014 52.7037 119.144 46.5537C119.714 46.1237 120.514 46.1237 121.084 46.5537C129.224 52.7137 134.014 61.5137 134.484 70.8537C140.544 66.9137 147.704 65.0937 155.534 65.5837C156.344 65.6337 156.994 66.2737 157.044 67.0937C157.664 77.4737 154.284 86.6737 147.254 93.6937Z" fill="#E8B67C"/>
</svg>
