<svg width="157" height="140" viewBox="0 0 157 140" fill="none" xmlns="http://www.w3.org/2000/svg">
<path opacity="0.05" d="M45.8446 17.1612C62.2475 5.53589 79.9244 -2.58593 95.2125 0.758349C110.501 4.26188 123.241 19.0723 134.07 37.0677C144.899 55.2223 154.136 76.562 148.721 92.9649C143.625 109.209 124.037 120.834 107.156 126.885C90.435 132.937 76.4209 133.733 58.4255 134.37C40.43 134.848 18.1349 135.167 7.62428 122.426C-2.88631 109.686 -1.77153 84.0468 6.35029 63.8219C14.6314 43.4377 29.601 28.6273 45.8446 17.1612Z" fill="#2A1C2D"/>
<path d="M84.5427 110.482C92.0275 110.482 97.7605 109.368 98.3975 109.368C98.716 109.368 98.8753 109.208 99.0345 109.208L99.3531 109.049C99.6716 108.89 99.9901 108.731 100.309 108.571L100.946 107.934V107.775C101.105 107.457 101.423 107.297 101.583 106.979C101.583 106.82 101.742 106.82 101.742 106.66L101.901 106.183C102.06 105.386 103.812 99.1756 104.131 90.8945C108.43 88.8242 112.093 86.1169 114.8 82.7727C125.63 69.7141 123.4 39.9341 123.081 36.4305C122.922 35.3158 122.444 34.201 121.489 33.4047C120.533 32.6085 119.419 32.29 118.145 32.4492C114.8 32.7677 86.1352 35.7935 74.8284 48.2151C60.1772 43.9153 44.0928 43.4376 43.2966 43.4376C42.1818 43.4376 40.9078 43.9153 40.1115 44.7116C39.156 45.5078 38.6783 46.6226 38.6783 47.8966C38.519 51.7186 38.2005 85.4799 51.2591 99.3348C60.1772 108.571 74.1914 110.482 84.5427 110.482ZM114.323 48.6929C114.163 57.611 112.889 70.6696 107.793 76.8804C106.679 78.3136 105.245 79.4284 103.653 80.5431C103.016 74.8101 101.423 69.7141 98.8753 65.255L114.323 48.6929ZM84.2242 50.6039C90.7535 45.8263 101.264 42.9598 109.227 41.2081L94.257 57.2924C91.709 54.7444 88.3647 52.5149 84.2242 50.6039ZM54.4442 53.3112C64.9547 54.5852 80.7206 57.6109 87.4092 64.618C95.531 73.0583 95.531 86.754 94.5755 95.3535L54.4442 53.3112ZM87.8869 101.405C79.1281 101.724 65.4325 100.927 57.7884 92.9648C51.0999 85.9577 48.8704 70.1918 48.0741 59.6812L87.8869 101.405Z" fill="#2A1C2D"/>
<path d="M128.337 6.17287C111.138 -0.674936 93.3015 4.73961 81.0391 20.3462C68.936 4.73961 51.0999 -0.674936 33.7415 6.17287C16.0646 13.1799 -0.0197921 34.2011 6.50951 63.6626C17.3386 112.394 76.5801 137.715 79.1281 138.829C79.7651 138.989 80.2429 139.148 80.8799 139.148C81.5169 139.148 82.1539 138.989 82.6316 138.829C83.2687 138.511 98.2383 132.3 114.641 120.038C136.618 103.475 150.791 84.0468 155.25 63.8219C162.098 34.2011 146.014 13.1799 128.337 6.17287ZM77.0578 31.0161C77.8541 32.4494 79.4466 33.2456 81.0391 33.2456C82.6316 33.2456 84.2242 32.4494 85.0204 31.0161C96.3273 11.9059 113.049 10.1542 124.833 14.7725C139.007 20.3462 151.747 37.5454 146.332 61.7516C137.573 101.405 90.1165 125.293 81.0391 129.433C71.9618 125.134 24.5049 101.246 15.7461 61.7516C10.3315 37.5454 23.0716 20.5055 37.245 14.7725C40.9078 13.3392 44.7298 12.5429 48.5519 12.5429C56.5144 12.5429 67.9805 15.728 77.0578 31.0161Z" fill="#2A1C2D"/>
</svg>
