<svg width="358" height="120" viewBox="0 0 358 120" fill="none" xmlns="http://www.w3.org/2000/svg">
<path d="M13.6598 91.6913C14.8598 90.4993 16.0598 89.0906 17.0598 87.6819C19.7598 83.9976 22.0598 80.0964 24.0598 75.9786C25.2598 73.2695 26.5598 70.6689 27.8598 67.9598C28.1598 67.0929 28.5598 66.3343 28.9598 65.6841C29.6598 64.167 30.8598 63.6252 32.3598 63.6252C33.1598 63.6252 33.8598 63.6252 34.4598 63.8419C36.1598 64.6005 37.2598 65.7925 37.8598 67.6347C38.1598 69.1518 38.5598 70.5605 38.6598 71.8608C38.8598 74.6783 39.0598 77.3874 39.3598 80.0965C39.6598 83.1306 39.9598 86.2731 40.2598 89.524C40.4598 92.3415 40.6598 95.2673 40.8598 98.0847C40.8598 101.227 41.0598 104.478 41.4598 107.512C41.5598 109.246 41.6598 111.088 41.7598 112.714C41.7598 112.822 41.7598 112.93 41.7598 113.039C41.8598 114.122 41.5598 114.881 40.0598 115.206C39.7598 115.314 39.3598 115.315 38.9598 115.315C37.1598 115.206 36.5598 114.339 36.3598 113.039C35.9598 111.197 35.4598 109.354 35.1598 107.404C34.4598 103.936 33.9598 100.577 33.2598 97.1095C32.6598 94.292 32.3598 91.4746 32.0598 88.5488C31.6598 84.9728 31.3598 81.3968 31.1598 77.8208C31.1598 77.6041 31.1598 77.4957 31.0598 77.1707C30.8598 77.4957 30.5598 77.9292 30.4598 78.2543C29.0598 81.0717 27.5598 83.8891 25.9598 86.4899C24.3598 89.0906 22.7598 91.583 20.9598 93.9669C20.0598 94.9422 19.1598 96.0259 18.0598 96.8928C15.2598 99.1684 11.9598 99.7102 8.55981 98.7349C6.55981 98.0847 5.0598 96.8928 3.8598 95.0506C2.9598 93.7502 2.3598 92.2331 1.8598 90.8244C1.0598 88.1153 0.459795 85.1895 0.259795 82.3721C-0.0402051 78.7961 -0.0401868 75.4368 0.0598132 71.8608C0.259813 69.1517 0.559801 66.551 0.859801 63.7336C1.4598 60.3743 1.95979 56.7984 2.75979 53.3307C4.15979 47.5875 5.65982 42.0609 8.15982 36.7511C9.85982 32.9584 11.8598 29.3825 14.4598 26.2399C15.9598 24.3977 17.3598 22.8807 19.1598 21.3636C20.1598 20.605 21.1598 20.0632 22.1598 19.5214C26.4598 17.5708 30.9598 19.5214 33.4598 23.2057C34.4598 24.8312 35.0598 26.6734 35.3598 28.6239C35.7598 31.8748 35.6598 35.2341 35.1598 38.3766C35.0598 39.2435 34.6598 39.4602 33.9598 39.4602C33.5598 39.4602 33.0598 39.3519 32.7598 39.1351C32.1598 38.8101 31.8598 38.2682 31.8598 37.5097C31.9598 35.7759 31.7598 34.0421 31.3598 32.525C30.8598 30.4661 30.3598 28.5155 29.4598 26.6734C29.2598 26.3483 29.0598 25.9148 28.7598 25.4814C28.5598 25.6981 28.1598 25.6981 28.0598 25.9148C26.8598 26.7817 25.6598 27.9737 24.7598 29.1657C21.9598 32.8501 19.8598 36.7511 17.9598 40.9773C15.8598 46.0704 14.2598 51.3802 12.9598 56.69C12.1598 60.266 11.4598 63.7336 11.0598 67.3096C10.8598 69.0434 10.6598 70.7772 10.4598 72.4026C10.3598 74.3532 10.1598 76.3037 10.1598 78.2543C10.1598 82.1554 10.2598 85.948 11.1598 89.7408C11.3598 90.6077 11.5598 91.3662 11.9598 92.0164C11.9598 92.1248 12.0598 92.3415 12.1598 92.4498C12.7598 92.5582 13.1598 92.1247 13.6598 91.6913Z" fill="#F3F0E8"/>
<path d="M55.2598 71.6438C55.0598 74.2445 55.1598 76.8453 55.4598 79.5544C55.6598 80.638 55.9598 81.8299 56.3598 83.0219C56.4598 83.2387 56.5598 83.4554 56.6598 83.7805C56.8598 83.6721 56.9598 83.5638 57.2598 83.4554C58.3598 82.4801 59.2598 81.2881 60.1598 79.9878C61.5598 78.1456 62.8598 76.0867 63.9598 74.0278C67.0598 68.718 70.1598 63.0831 72.9598 57.4482C73.2598 57.0148 73.5598 56.3646 73.8598 55.8228C73.9598 55.4977 74.2598 55.1726 74.6598 55.0642C75.2598 54.9559 75.7598 54.9559 76.3598 55.1726C76.7598 55.3893 77.1598 55.7144 77.2598 56.2562C76.6598 57.4482 76.2598 58.8569 75.5598 60.0489C74.5598 62.2162 73.5598 64.6002 72.3598 66.7674C70.1598 70.9936 67.9598 75.4365 65.7598 79.6627C64.9598 81.0714 64.0598 82.4801 63.2598 83.7805C62.4598 84.9725 61.5598 85.9477 60.5598 86.8146C59.6598 87.5732 58.7598 88.0067 57.6598 88.115C55.0598 88.4401 52.9598 87.5732 51.2598 85.5143C50.3598 84.4307 49.7598 83.347 49.3598 81.9383C48.5598 79.771 47.9598 77.3871 47.7598 75.0031C47.6598 74.1362 47.5598 73.3776 47.5598 72.7274C47.3598 68.1762 48.1598 63.95 49.4598 59.8322C50.1598 57.7733 51.0598 55.8228 52.0598 53.8723C52.7598 52.7886 53.5598 51.8133 54.4598 50.9464C55.5598 49.8628 56.8598 49.1043 58.2598 48.9959C60.8598 48.8875 62.8598 49.8628 64.3598 52.0301C65.0598 53.1137 65.2598 54.1973 65.3598 55.3893C65.4598 56.9064 65.2598 58.2068 64.7598 59.5071C64.1598 61.566 63.1598 63.5166 61.8598 65.2504C61.4598 65.7922 60.9598 66.2257 60.4598 66.5508C59.2598 67.6344 57.8598 68.2846 56.2598 68.2846C56.1598 68.2846 55.9598 68.2846 55.8598 68.2846C55.7598 68.2846 55.7598 68.2845 55.7598 68.3929C55.4598 69.4765 55.3598 70.4518 55.2598 71.6438ZM59.4598 57.4482C58.7598 58.4235 57.5598 61.2409 57.3598 62.6497C58.6598 61.0242 59.5598 58.9653 59.4598 57.4482Z" fill="#F3F0E8"/>
<path d="M105.16 56.2561C104.56 57.4481 104.26 58.8568 103.96 60.1571C102.46 65.6837 100.56 70.9935 98.5598 76.3033C96.9598 80.3127 95.4598 84.3222 93.7598 88.3316C93.0598 90.0654 92.2598 91.5825 91.2598 93.0996C90.2598 94.6167 89.0598 95.4836 87.4598 95.917C84.4598 96.7839 81.7598 96.0254 79.4598 93.6414C78.4598 92.5578 77.7598 91.2574 77.2598 89.7403C76.3598 87.6814 75.7598 85.5141 75.3598 83.2385C74.6598 80.2043 74.3598 77.1702 73.9598 73.9193C73.4598 70.6684 73.2598 67.2008 73.0598 63.9499C72.8598 58.9652 72.7598 53.9804 72.8598 49.1041C72.8598 45.4197 72.9598 41.7354 73.0598 38.2678C73.1598 36.859 73.2598 35.3419 73.2598 33.9332C73.2598 33.7165 73.2598 33.3914 73.2598 33.2831C73.1598 33.1747 73.1598 33.1747 73.1598 33.0663H72.9598C72.1598 33.1747 71.3598 33.1747 70.5598 33.2831C69.3598 33.3914 68.0598 33.3914 66.8598 33.1747C65.9598 33.0663 65.1598 32.7412 64.3598 32.0911C64.0598 31.8743 63.6598 31.4409 63.4598 31.1158C62.9598 30.3573 63.2598 29.4903 64.0598 29.1652C64.4598 28.9485 65.0598 28.9485 65.6598 28.9485C66.3598 29.0569 67.0598 29.0569 67.6598 28.9485C69.0598 28.8402 70.4598 28.6234 71.8598 28.5151C72.4598 28.4067 72.9598 28.4067 73.5598 28.2984C73.5598 28.0816 73.6598 27.7565 73.6598 27.5398C73.9598 24.1805 74.2598 20.8213 74.6598 17.462C74.8598 14.5362 75.2598 11.7188 75.8598 8.79297C76.0598 7.92606 76.3598 6.95079 76.6598 6.08389C76.8598 5.10862 77.5598 4.5668 78.4598 4.35007C79.0598 4.24171 79.4598 4.2417 79.9598 4.2417C80.9598 4.35006 81.7598 4.67515 82.6598 5.21696C84.0598 6.19223 84.8598 7.49261 84.8598 9.33479C84.8598 10.5268 84.9598 11.9355 84.9598 13.2359C84.9598 15.945 84.9598 18.654 84.9598 21.2547C84.9598 23.2053 84.9598 25.1558 84.9598 27.1064C85.1598 27.1064 85.4598 27.2147 85.6598 27.2147C88.9598 26.998 92.1598 26.7813 95.4598 26.5645C96.3598 26.4562 97.1598 26.5645 97.9598 26.5645C98.6598 26.5645 99.3598 26.7813 99.9598 27.1064C100.56 27.4314 101.06 27.9733 101.46 28.6234C101.66 29.382 101.46 29.8154 100.86 30.2489C100.36 30.4656 99.9598 30.4656 99.3598 30.3573C98.4598 30.0322 97.6598 30.1405 96.7598 30.2489C94.9598 30.4656 93.1598 30.574 91.3598 30.8991C89.5598 31.0074 87.7598 31.2242 85.9598 31.5493C85.6598 31.5493 85.2598 31.6576 84.9598 31.766C84.9598 31.8743 84.8598 32.0911 84.8598 32.4161C84.8598 32.7412 84.8598 33.1747 84.8598 33.3914C84.7598 38.9179 84.7598 44.3361 84.5598 49.7543C84.4598 55.3892 84.4598 60.8073 84.5598 66.4422C84.5598 69.4764 84.5598 72.5106 84.7598 75.5447C84.8598 78.6873 84.9598 81.7215 85.3598 84.9724C85.5598 86.5978 85.8598 88.1149 86.2598 89.632C86.3598 89.9571 86.4598 90.2822 86.5598 90.7156C86.8598 90.4989 87.1598 90.2821 87.3598 89.957C88.4598 88.6567 89.3598 87.1396 90.1598 85.5142C91.7598 82.48 93.0598 79.3374 94.4598 75.9782C96.8598 70.3433 99.0598 64.6001 100.76 58.7484C101.06 57.7732 101.46 56.9063 101.86 55.931C102.46 54.8474 103.76 54.4139 104.76 55.1724C104.96 55.2808 105.16 55.4975 105.16 56.0394C105.26 55.8226 105.26 56.1477 105.16 56.2561Z" fill="#F3F0E8"/>
<path d="M156.96 50.1879C158.76 47.4789 160.26 44.6614 161.76 41.7356C163.96 37.5095 166.26 33.0666 168.16 28.407C169.36 25.4811 170.56 22.4469 171.26 19.3044C171.76 17.3539 172.06 15.4033 172.06 13.3444C172.06 12.8026 172.16 12.3692 171.96 11.719C171.06 11.8273 170.36 12.2608 169.56 12.4775C167.06 13.5612 164.96 15.1866 162.96 17.0288C159.96 19.7379 157.36 22.8804 155.16 26.348C151.16 32.5247 148.16 39.2433 146.46 46.612C145.86 49.2127 145.56 51.705 145.36 54.3058C145.16 58.3152 145.46 62.2163 146.46 66.009C147.66 70.777 149.86 75.0031 153.06 78.6875C154.56 80.3129 155.96 81.8301 157.56 83.3471C159.16 85.081 160.86 86.598 162.36 88.2235C164.26 90.174 166.06 92.2329 167.66 94.4001C168.66 96.0256 169.46 97.5427 170.16 99.2765C171.66 103.394 171.26 107.295 169.26 111.088C168.46 112.497 167.46 113.906 166.26 115.098C163.76 117.265 161.06 118.89 157.96 119.649C156.16 119.974 154.26 120.191 152.36 119.757C150.46 119.432 148.66 118.89 146.86 117.807C145.56 117.048 144.36 116.073 143.36 114.881C141.16 112.172 139.66 109.029 138.86 105.453C138.66 104.478 138.56 103.611 138.56 102.636C138.56 100.36 138.56 98.0845 138.66 95.9173C138.66 94.0751 138.76 92.3413 139.26 90.7158C139.36 90.2824 139.46 89.7405 139.66 89.1987C140.16 87.5733 141.16 86.9231 142.56 86.9231C143.56 86.8148 144.56 87.1398 145.36 87.79C145.66 88.0067 145.96 88.4402 146.16 88.7653C146.46 89.1988 146.36 89.7405 145.96 90.2823C145.86 90.4991 145.66 90.6075 145.36 90.7158C145.16 92.7747 145.16 94.7253 145.36 96.6758C145.46 97.6511 145.56 98.7347 145.66 99.71C145.86 101.552 146.26 103.286 147.06 104.803C147.56 106.212 148.16 107.621 148.86 108.813C149.16 109.571 149.66 110.113 150.06 110.763C150.26 111.088 150.76 111.522 151.06 111.847C152.46 113.039 152.66 112.93 153.96 112.388C156.76 110.98 158.56 108.487 159.36 105.236C159.96 102.961 159.56 100.685 158.56 98.518C157.76 96.7842 156.76 95.267 155.56 93.8583C153.76 91.6911 151.86 89.8489 149.86 87.8983C147.76 85.9478 145.66 83.889 143.66 81.7217C140.86 78.5792 138.46 75.1115 136.56 71.3188C134.76 67.5261 133.66 63.5166 133.06 59.3988C132.56 56.473 132.46 53.5472 132.56 50.5131C133.06 43.1444 134.66 36.2091 137.66 29.4906C139.56 24.9393 141.96 20.7131 144.86 16.8121C146.96 13.8863 149.36 11.1772 151.96 8.90157C154.76 6.30085 157.96 4.35028 161.46 3.04992C163.66 2.07466 166.16 1.53286 168.66 1.74959C173.26 2.07467 177.06 4.13358 180.06 8.25138C181.46 10.3103 182.16 12.6943 182.26 15.1866C182.36 17.5706 182.06 20.063 181.36 22.3386C180.76 24.2891 180.16 26.1313 179.36 28.0818C176.96 33.6084 173.96 38.8098 170.66 43.7945C168.86 46.5036 166.96 49.2127 164.76 51.4883C163.56 52.7887 162.26 54.1974 160.86 55.1727C160.26 55.6061 159.66 56.0396 158.96 56.2563C157.86 56.7981 156.76 56.7981 155.56 56.3647C154.96 56.1479 154.46 55.8228 153.96 55.281C153.76 55.0643 153.56 54.7392 153.36 54.5225C153.16 53.8723 153.26 53.3305 153.86 53.0054C154.16 52.7887 154.66 52.6803 154.96 52.4636C155.96 51.8134 156.56 50.9465 156.96 50.1879Z" fill="#F3F0E8"/>
<path d="M209.26 56.2561C208.66 57.4481 208.36 58.8568 208.06 60.1571C206.56 65.6837 204.66 70.9935 202.66 76.3033C201.06 80.3127 199.46 84.3222 197.86 88.3316C197.16 90.0654 196.36 91.5825 195.36 93.0996C194.36 94.6167 193.16 95.4836 191.56 95.917C188.56 96.7839 185.86 96.0254 183.56 93.6414C182.56 92.5578 181.86 91.2574 181.36 89.7403C180.46 87.6814 179.86 85.5141 179.46 83.2385C178.76 80.2043 178.46 77.1702 178.16 73.9193C177.66 70.6684 177.46 67.2008 177.26 63.9499C177.06 58.9652 176.96 53.9804 177.06 49.1041C177.06 45.4197 177.16 41.7354 177.26 38.2678C177.36 36.859 177.46 35.3419 177.46 33.9332C177.46 33.7165 177.46 33.3914 177.46 33.2831C177.36 33.1747 177.36 33.1747 177.36 33.0663H177.26C176.46 33.1747 175.66 33.1747 174.86 33.2831C173.66 33.3914 172.36 33.3914 171.16 33.1747C170.26 33.0663 169.46 32.7412 168.66 32.0911C168.36 31.8743 167.96 31.4409 167.76 31.1158C167.36 30.3573 167.56 29.4903 168.36 29.1652C168.86 28.9485 169.36 28.9485 169.96 28.9485C170.66 29.0569 171.36 29.0569 171.96 28.9485C173.26 28.8402 174.76 28.6234 176.16 28.5151C176.76 28.4067 177.26 28.4067 177.86 28.2984C177.86 28.0816 177.96 27.7565 177.96 27.5398C178.26 24.1805 178.56 20.8213 178.96 17.462C179.16 14.5362 179.56 11.7188 180.16 8.79297C180.36 7.92606 180.56 6.95079 180.96 6.08389C181.16 5.10862 181.86 4.5668 182.76 4.35007C183.36 4.24171 183.76 4.2417 184.26 4.2417C185.26 4.35006 186.06 4.67515 186.96 5.21696C188.26 6.19223 189.16 7.49261 189.16 9.33479C189.16 10.5268 189.26 11.9355 189.26 13.2359C189.26 15.945 189.26 18.654 189.26 21.2547C189.26 23.2053 189.26 25.1558 189.26 27.1064C189.46 27.1064 189.76 27.2147 189.96 27.2147C193.26 26.998 196.46 26.7813 199.76 26.5645C200.66 26.4562 201.46 26.5645 202.26 26.5645C202.96 26.5645 203.56 26.7813 204.26 27.1064C204.86 27.4314 205.36 27.9733 205.76 28.6234C205.96 29.382 205.76 29.8154 205.16 30.2489C204.66 30.4656 204.26 30.4656 203.66 30.3573C202.76 30.0322 201.96 30.1405 201.06 30.2489C199.26 30.4656 197.46 30.574 195.66 30.8991C193.86 31.0074 192.06 31.2242 190.26 31.5493C189.96 31.5493 189.56 31.6576 189.26 31.766C189.26 31.8743 189.16 32.0911 189.16 32.4161C189.16 32.7412 189.16 33.1747 189.16 33.3914C189.06 38.9179 189.06 44.3361 188.86 49.7543C188.76 55.3892 188.76 60.8073 188.86 66.4422C188.86 69.4764 188.86 72.5106 189.06 75.5447C189.16 78.6873 189.26 81.7215 189.66 84.9724C189.86 86.5978 190.16 88.1149 190.56 89.632C190.66 89.9571 190.76 90.2822 190.86 90.7156C191.16 90.4989 191.46 90.2821 191.66 89.957C192.76 88.6567 193.66 87.1396 194.46 85.5142C196.06 82.48 197.36 79.3374 198.76 75.9782C201.16 70.3433 203.36 64.6001 205.06 58.7484C205.36 57.7732 205.76 56.9063 206.16 55.931C206.76 54.8474 208.06 54.4139 209.06 55.1724C209.26 55.2808 209.56 55.4975 209.56 56.0394C209.36 55.8226 209.36 56.1477 209.26 56.2561Z" fill="#F3F0E8"/>
<path d="M220.86 75.2201C219.66 77.6041 218.26 79.9881 217.06 82.3721C215.66 84.756 214.36 87.14 212.76 89.1989C212.06 90.1742 211.26 91.0411 210.56 91.7997C207.66 94.8338 203.46 94.1836 201.26 92.7749C200.26 92.0164 199.46 91.0411 198.86 89.8491C198.36 88.9822 198.16 88.0069 198.06 87.0317C197.76 84.8644 197.76 82.8055 197.86 80.5299C198.56 72.0775 201.46 64.7088 205.56 57.5569C206.66 55.8231 207.76 54.1976 209.06 52.5722C210.06 51.3802 211.16 50.2965 212.46 49.3213C213.96 48.2376 215.66 47.4791 217.26 47.154C221.16 46.3955 225.16 48.7795 226.86 52.6805C227.36 53.8725 227.56 54.9561 227.76 56.2565C227.96 58.8572 227.86 61.3496 227.16 63.9503C227.06 64.2754 226.96 64.8172 226.66 65.2507C226.46 65.9009 225.86 66.0092 225.46 66.0092C224.56 65.9009 223.76 65.4674 223.46 64.7089C223.16 63.7336 222.86 62.7583 222.76 61.783C222.66 60.9161 222.46 59.9409 222.26 58.9656C222.06 57.6652 221.66 56.2565 221.16 55.0645C221.06 54.9561 220.96 54.8478 220.86 54.5227C220.86 54.5227 220.76 54.5227 220.66 54.5227C220.36 54.7394 219.96 55.2812 219.66 55.6063C218.76 56.7983 217.96 57.882 217.16 59.1823C215.56 61.783 214.26 64.7088 212.96 67.5263C211.36 71.319 210.06 75.1117 209.16 79.1212C208.86 80.7466 208.56 82.2637 208.46 83.7808C208.66 83.8891 208.76 83.6724 208.96 83.564C210.06 82.0469 211.16 80.5299 212.26 79.0128C214.16 75.9786 215.96 72.9444 217.86 69.9103C218.46 69.1517 218.96 68.2849 219.66 67.6347C220.46 66.551 221.56 66.1176 222.86 66.3343C223.36 66.3343 223.76 66.551 224.36 66.6594C225.36 67.0928 226.06 67.8514 226.26 69.0434C226.46 70.127 226.56 71.2106 226.76 72.2943C226.86 74.0281 226.86 75.8703 226.96 77.4957C227.16 80.2048 227.46 82.9139 228.06 85.4062C228.26 86.2731 228.66 87.1401 228.86 88.007C228.96 88.2237 229.16 88.5488 229.36 88.8739C229.56 88.7655 229.66 88.6571 229.76 88.5488C230.26 87.7902 230.66 87.0317 230.96 86.3815C232.06 83.8892 232.96 81.5051 233.86 78.9044C235.86 72.9444 237.86 66.8761 239.96 60.8078C240.26 59.8325 240.66 58.8572 240.96 57.882C240.96 57.7736 241.06 57.5569 241.16 57.3401C241.76 56.0398 243.16 55.6063 244.16 56.6899C244.36 56.9067 244.56 57.3401 244.36 57.7736C243.56 59.399 243.16 61.1329 242.56 62.975C241.06 67.8514 239.66 72.8361 238.06 77.7124C237.26 80.4215 236.36 83.0222 235.36 85.623C234.86 86.7066 234.36 87.7902 233.76 88.8739C233.46 89.524 232.96 90.0658 232.56 90.6076C230.86 92.6665 228.06 92.6666 226.16 90.9328C225.56 90.2826 225.06 89.6324 224.66 88.8739C223.86 87.2484 223.46 85.623 222.96 83.8892C222.46 81.9386 222.26 79.9881 222.06 77.9292C221.96 76.7372 221.86 75.5452 221.76 74.2448C221.76 74.1364 221.66 74.1365 221.56 74.1365C221.36 74.6783 221.06 75.0034 220.86 75.2201Z" fill="#F3F0E8"/>
<path d="M272.76 42.8197C273.76 42.4946 274.66 42.1695 275.66 41.9528C277.56 41.8444 279.06 42.2778 280.36 43.7949C280.86 44.12 281.06 44.4451 281.06 45.0953C280.96 45.4204 280.76 45.5287 280.36 45.7455C280.06 45.8538 279.56 45.7455 279.16 45.5287C278.86 45.4204 278.66 45.2036 278.36 44.9869C277.86 44.6618 277.56 44.3367 277.16 44.5535C276.56 44.7702 276.06 44.8785 275.46 45.312C270.66 47.5876 266.16 52.1389 262.56 56.04C254.46 65.1425 251.96 79.4464 250.16 88.874C249.96 89.7409 249.46 90.3911 249.26 91.0413C248.66 92.1249 247.76 92.7751 246.66 92.6668C244.66 92.45 242.96 91.4748 242.16 89.4159C241.56 88.3322 241.26 87.2486 241.06 85.9482C240.86 84.3228 240.56 82.6973 240.46 81.0719C240.16 77.1708 239.86 73.2697 239.86 69.1519C239.96 66.4428 239.96 63.6254 240.36 60.9163C240.66 57.9905 241.16 55.1731 241.86 52.3556C242.16 51.272 242.46 50.2967 242.86 49.3215C243.06 48.7796 243.16 48.5629 243.46 48.1294C244.26 46.8291 245.36 46.1789 246.86 46.2873C248.06 46.6124 249.06 47.0458 250.16 47.9127C251.16 48.888 251.76 50.1883 251.76 51.9222C251.56 53.2225 251.56 54.7396 251.46 56.1483C251.16 58.5323 250.86 61.0247 250.76 63.517C250.66 66.1178 250.56 68.7185 250.46 71.4276C250.36 73.3781 250.26 75.3287 250.16 77.3876C250.16 77.3876 250.26 77.3876 250.36 77.3876C249.46 62.3251 261.26 49.4298 272.76 42.8197Z" fill="#F3F0E8"/>
<path d="M308.96 56.2561C308.36 57.4481 308.06 58.8568 307.76 60.1571C306.26 65.6837 304.36 70.9935 302.36 76.3033C300.76 80.3127 299.16 84.3222 297.56 88.3316C296.86 90.0654 296.06 91.5825 295.06 93.0996C294.06 94.6167 292.86 95.4836 291.26 95.917C288.26 96.7839 285.56 96.0254 283.26 93.6414C282.26 92.5578 281.56 91.2574 281.06 89.7403C280.16 87.6814 279.56 85.5141 279.16 83.2385C278.46 80.2043 278.16 77.1702 277.86 73.9193C277.36 70.6684 277.16 67.2008 276.96 63.9499C276.76 58.9652 276.66 53.9804 276.76 49.1041C276.76 45.4197 276.86 41.7354 276.96 38.2678C277.06 36.859 277.16 35.3419 277.16 33.9332C277.16 33.7165 277.16 33.3914 277.16 33.2831C277.06 33.1747 277.06 33.1747 277.06 33.0663H276.96C276.16 33.1747 275.36 33.1747 274.56 33.2831C273.36 33.3914 272.06 33.3914 270.86 33.1747C269.96 33.0663 269.16 32.7412 268.36 32.0911C268.06 31.8743 267.66 31.4409 267.46 31.1158C267.06 30.3573 267.26 29.4903 268.06 29.1652C268.56 28.9485 269.06 28.9485 269.66 28.9485C270.36 29.0569 271.06 29.0569 271.66 28.9485C272.96 28.8402 274.46 28.6234 275.86 28.5151C276.46 28.4067 276.96 28.4067 277.56 28.2984C277.56 28.0816 277.66 27.7565 277.66 27.5398C277.96 24.1805 278.26 20.8213 278.66 17.462C278.86 14.5362 279.26 11.7188 279.86 8.79297C280.06 7.92606 280.26 6.95079 280.66 6.08389C280.86 5.10862 281.56 4.5668 282.46 4.35007C283.06 4.24171 283.46 4.2417 283.96 4.2417C284.96 4.35006 285.76 4.67515 286.66 5.21696C287.96 6.19223 288.86 7.49261 288.86 9.33479C288.86 10.5268 288.96 11.9355 288.96 13.2359C288.96 15.945 288.96 18.654 288.96 21.2547C288.96 23.2053 288.96 25.1558 288.96 27.1064C289.16 27.1064 289.46 27.2147 289.66 27.2147C292.96 26.998 296.16 26.7813 299.46 26.5645C300.36 26.4562 301.16 26.5645 301.96 26.5645C302.66 26.5645 303.26 26.7813 303.96 27.1064C304.56 27.4314 305.06 27.9733 305.46 28.6234C305.66 29.382 305.46 29.8154 304.86 30.2489C304.36 30.4656 303.96 30.4656 303.36 30.3573C302.46 30.0322 301.66 30.1405 300.76 30.2489C298.96 30.4656 297.16 30.574 295.36 30.8991C293.56 31.0074 291.76 31.2242 289.96 31.5493C289.66 31.5493 289.26 31.6576 288.96 31.766C288.96 31.8743 288.86 32.0911 288.86 32.4161C288.86 32.7412 288.86 33.1747 288.86 33.3914C288.76 38.9179 288.76 44.3361 288.56 49.7543C288.46 55.3892 288.46 60.8073 288.56 66.4422C288.56 69.4764 288.56 72.5106 288.76 75.5447C288.86 78.6873 288.96 81.7215 289.36 84.9724C289.56 86.5978 289.86 88.1149 290.26 89.632C290.36 89.9571 290.46 90.2822 290.56 90.7156C290.86 90.4989 291.16 90.2821 291.36 89.957C292.46 88.6567 293.36 87.1396 294.16 85.5142C295.76 82.48 297.06 79.3374 298.46 75.9782C300.86 70.3433 303.06 64.6001 304.76 58.7484C305.06 57.7732 305.46 56.9063 305.86 55.931C306.46 54.8474 307.76 54.4139 308.76 55.1724C308.96 55.2808 309.26 55.4975 309.26 56.0394C309.06 55.8226 309.06 56.1477 308.96 56.2561Z" fill="#F3F0E8"/>
<path d="M310.16 71.6438C309.96 74.2445 310.06 76.8453 310.36 79.5544C310.56 80.638 310.76 81.8299 311.26 83.0219C311.36 83.2387 311.46 83.4554 311.56 83.7805C311.76 83.6721 311.86 83.5638 312.16 83.4554C313.26 82.4801 314.16 81.2881 315.06 79.9878C316.46 78.1456 317.76 76.0867 318.86 74.0278C322.06 68.718 325.06 63.0831 327.86 57.4482C328.16 57.0148 328.46 56.3646 328.76 55.8228C328.86 55.4977 329.26 55.1726 329.56 55.0642C330.16 54.9559 330.66 54.9559 331.26 55.1726C331.76 55.3893 332.06 55.7144 332.16 56.2562C331.56 57.4482 331.16 58.8569 330.46 60.0489C329.46 62.2162 328.46 64.6002 327.26 66.7674C325.06 70.9936 322.86 75.4365 320.66 79.6627C319.86 81.0714 318.96 82.4801 318.16 83.7805C317.36 84.9725 316.46 85.9477 315.46 86.8146C314.56 87.5732 313.66 88.0067 312.56 88.115C309.96 88.4401 307.86 87.5732 306.16 85.5143C305.26 84.4307 304.66 83.347 304.26 81.9383C303.46 79.771 302.86 77.3871 302.66 75.0031C302.56 74.1362 302.46 73.3776 302.46 72.7274C302.26 68.1762 303.06 63.95 304.36 59.8322C305.06 57.7733 305.96 55.8228 306.96 53.8723C307.66 52.7886 308.46 51.8133 309.36 50.9464C310.46 49.8628 311.76 49.1043 313.16 48.9959C315.76 48.8875 317.76 49.8628 319.26 52.0301C319.96 53.1137 320.16 54.1973 320.26 55.3893C320.36 56.9064 320.16 58.2068 319.66 59.5071C319.06 61.566 318.06 63.5166 316.76 65.2504C316.26 65.7922 315.86 66.2257 315.46 66.5508C314.26 67.6344 312.86 68.2846 311.26 68.2846C311.16 68.2846 310.96 68.2846 310.76 68.2846C310.66 68.2846 310.66 68.2845 310.66 68.3929C310.46 69.4765 310.36 70.4518 310.16 71.6438ZM314.36 57.4482C313.66 58.4235 312.46 61.2409 312.26 62.6497C313.56 61.0242 314.46 58.9653 314.36 57.4482Z" fill="#F3F0E8"/>
<path d="M343.86 39.6768C345.86 32.7416 347.96 25.4812 349.36 18.4376C350.26 13.8863 351.06 9.44345 352.06 4.89219C352.16 4.02529 352.36 3.26676 352.56 2.39985C352.66 2.29149 352.66 2.07475 352.76 1.74966C352.96 0.340941 353.96 -0.0925183 354.96 0.015845C356.16 0.340935 357.06 1.20785 356.96 2.8333C356.96 4.02529 357.06 5.43401 356.96 6.62601C356.76 10.6355 356.26 14.6449 356.16 18.7627C355.86 21.6885 355.86 24.5059 355.56 27.4317C355.46 30.4659 355.26 33.6085 355.26 36.8594C355.16 38.9183 355.06 40.9772 355.06 42.9277C354.96 44.9866 354.96 47.0455 354.86 49.1044C354.66 51.2717 354.66 53.764 354.66 56.0397C354.66 57.2317 354.56 58.4236 354.56 59.724C354.56 61.8913 354.56 63.7335 354.56 65.7924C354.66 68.3931 354.56 70.8854 354.56 73.4861C354.46 76.0868 354.56 78.5792 354.66 81.18C354.56 83.0221 354.56 84.9726 354.56 86.8148C354.56 87.1399 354.66 87.5733 354.56 87.8984C354.66 90.0657 354.76 92.233 354.76 94.4002C354.66 96.7842 354.66 99.385 354.66 101.877C354.46 103.611 354.66 105.345 354.66 106.97C354.66 108.596 354.66 110.113 354.56 111.847C354.66 112.28 354.66 112.93 354.66 113.472C354.56 114.231 354.56 114.989 354.56 115.639C354.56 116.181 354.26 116.506 353.96 116.723C352.96 117.373 351.16 117.482 350.16 116.615C349.86 116.29 349.56 115.965 349.56 115.531C349.36 114.989 349.26 114.447 349.26 113.797C348.56 107.295 348.06 100.577 347.66 93.9668C347.66 91.2577 347.56 88.5486 347.36 85.9479C347.36 83.3472 347.46 80.5297 347.46 78.1457C347.46 75.9785 347.46 73.9196 347.46 71.7523C347.46 69.26 347.56 66.7676 347.66 64.1669C347.76 60.916 347.96 57.5567 348.16 54.3058C348.26 53.0055 348.26 51.7051 348.26 50.2964C347.06 50.9466 346.06 50.9466 344.86 50.188C344.66 50.9466 344.56 51.38 344.36 51.8135C343.16 56.7982 341.66 61.6745 340.36 66.6592C339.76 68.6098 339.16 70.7771 338.46 72.836C338.36 73.5945 338.06 74.1363 337.76 74.7865C337.46 75.2199 337.26 75.8702 336.96 76.3036C336.06 78.1458 334.46 78.6876 332.56 78.5792C330.36 78.2541 328.66 76.9538 327.76 74.5698C327.56 74.0279 327.46 73.4861 327.16 72.9443C326.86 70.9938 326.46 68.9349 326.46 66.9843C326.46 59.6156 328.56 53.0055 332.06 47.1539C332.96 45.6368 333.86 44.4448 334.96 43.4695C337.16 41.4106 339.66 40.7604 342.66 41.3023C342.76 41.4106 342.96 41.4106 343.26 41.519C343.46 40.7604 343.76 40.2186 343.86 39.6768ZM335.16 66.9843C336.96 61.9996 338.66 56.9065 340.16 51.8135C340.26 51.5967 340.26 51.2717 340.26 51.0549C340.46 50.9466 340.46 50.8382 340.26 50.7298C340.36 50.9466 340.26 50.9466 340.26 51.0549C339.76 51.2717 339.66 51.7051 339.56 52.0302C337.96 55.0644 336.86 58.2069 335.96 61.5662C335.36 63.0832 334.96 64.7087 334.86 66.3342C334.76 66.6593 334.86 67.201 334.86 67.5261C334.86 67.5261 334.86 67.5262 334.86 67.6345C334.86 67.5262 334.86 67.5261 334.86 67.5261C334.86 67.3094 335.06 67.0927 335.16 66.9843ZM346.76 43.6862C346.96 44.0113 347.16 44.5531 347.66 44.9866C347.86 45.5284 347.96 46.1786 348.46 46.7204C348.76 42.6026 348.86 38.3764 349.26 34.1503C348.86 34.9088 346.86 42.1691 346.76 43.6862Z" fill="#F3F0E8"/>
</svg>
