<svg width="124" height="124" viewBox="0 0 124 124" fill="none" xmlns="http://www.w3.org/2000/svg">
<path d="M62.1 58.2C54 58.2 47.5 51.7 47.5 43.6C47.5 35.5 54 29 62.1 29C70.1 29 76.7 35.5 76.7 43.6C76.7 51.7 70.1 58.2 62.1 58.2ZM62.1 33C56.3 33 51.5 37.8 51.5 43.6C51.5 49.4 56.3 54.2 62.1 54.2C67.9 54.2 72.7 49.4 72.7 43.6C72.7 37.8 67.9 33 62.1 33Z" fill="#E8B67C"/>
<path d="M91.2 59.4C85.5 59.4 80.8 54.7 80.8 49C80.8 43.3 85.5 38.6 91.2 38.6C96.9 38.6 101.6 43.3 101.6 49C101.6 54.7 96.9 59.4 91.2 59.4ZM91.2 42.6C87.7 42.6 84.8 45.5 84.8 49C84.8 52.5 87.7 55.4 91.2 55.4C94.7 55.4 97.6 52.5 97.6 49C97.6 45.5 94.7 42.6 91.2 42.6Z" fill="#E8B67C"/>
<path d="M33 59.4C27.3 59.4 22.6 54.7 22.6 49C22.6 43.3 27.3 38.6 33 38.6C38.7 38.6 43.4 43.3 43.4 49C43.4 54.7 38.7 59.4 33 59.4ZM33 42.6C29.5 42.6 26.6 45.5 26.6 49C26.6 52.5 29.5 55.4 33 55.4C36.5 55.4 39.4 52.5 39.4 49C39.4 45.5 36.5 42.6 33 42.6Z" fill="#E8B67C"/>
<path d="M91.3 81.5C87.3 81.5 84.7 81.3 82.6 81L81 80.7V78.6C81 74.5 79.7 70.4 77.2 66.7L76.5 65.7L77 64.7C79.8 59.1 85.3 55.5 91.1 55.5C99.7 55.5 107.1 63.3 107.2 72.5C107.3 81.5 98.8 81.5 91.3 81.5ZM85 77.3C86.6 77.5 88.6 77.5 91.3 77.5C101.2 77.5 103.3 76.6 103.3 72.5C103.2 65.6 97.6 59.5 91.2 59.5C87.3 59.5 83.5 61.8 81.2 65.5C83.5 69.2 84.7 73.2 85 77.3Z" fill="#E8B67C"/>
<path d="M33 81.5C25.5 81.5 17 81.5 17 72.5C17 63.3 24.3 55.5 33 55.5C38.8 55.5 44.3 59.1 47.1 64.7L47.6 65.7L46.9 66.7C45.2 69.3 43.1 73.4 43.2 78.5V80.6L41.7 81C39.6 81.3 37 81.5 33 81.5ZM33 59.5C26.6 59.5 21 65.6 21 72.5C21 76.6 23.1 77.5 33 77.5C35.7 77.5 37.7 77.4 39.3 77.3C39.5 73.3 40.7 69.2 43 65.6C40.7 61.8 36.9 59.5 33 59.5Z" fill="#E8B67C"/>
<path d="M62.1 91C50.8 91 39.2 90.9999 39.2 78.5999C39.2 65.5999 49.9 54.2 62.1 54.2C74.3 54.2 85 65.5999 85 78.5999C85 90.9999 73.4 91 62.1 91ZM62.1 58.2C52 58.2 43.2 67.6999 43.2 78.5999C43.2 85.7999 47.7 87 62.1 87C76.5 87 81 85.7999 81 78.5999C81 67.6999 72.2 58.2 62.1 58.2Z" fill="#E8B67C"/>
<circle cx="62" cy="62" r="62" fill="#553B59" fill-opacity="0.05"/>
</svg>
