<svg width="167" height="146" viewBox="0 0 167 146" fill="none" xmlns="http://www.w3.org/2000/svg">
<path d="M152.34 92.6536C154.17 90.5536 155.87 88.3436 157.38 86.0136C165.07 74.1136 167.35 61.1136 163.8 49.4036C156.12 24.1436 119.27 1.2536 88.6799 1.2536C86.2399 1.2536 83.8399 1.40359 81.4899 1.70359C66.8599 3.59359 53.7599 11.9536 45.5599 24.6536C45.3999 24.9036 45.2599 25.1536 45.0999 25.4036C44.6099 25.3936 44.1099 25.3936 43.6199 25.4336C43.9099 24.9436 44.1999 24.4536 44.5099 23.9736C52.9199 10.9636 66.3399 2.39359 81.3299 0.453593C113.56 -3.69641 156.56 21.2736 164.99 49.0336C168.66 61.0936 166.32 74.4636 158.43 86.6836C156.77 89.2536 154.88 91.6636 152.84 93.9536C152.7 93.5236 152.53 93.0836 152.34 92.6536Z" fill="#553B59"/>
<path d="M122.58 109.514C123.99 109.514 125.14 110.664 125.14 112.074C125.14 113.484 123.99 114.634 122.58 114.634C121.17 114.634 120.02 113.484 120.02 112.074C120.02 110.664 121.17 109.514 122.58 109.514Z" fill="#E8B67C"/>
<path d="M63.01 108.774C64.49 114.114 66.99 119.224 70.72 123.834C84.74 141.284 116.24 151.694 135.18 141.384C154.12 131.074 160.62 100.014 155 76.8136C149.38 53.6136 131.7 38.2036 114.35 36.2536C103.28 35.0836 92.4 39.4136 83.35 47.4036C84.66 49.4636 85.68 51.5637 86.51 53.9237C87.06 55.6837 87.14 57.4436 86.75 59.1936C86.71 60.1736 86.51 61.1036 86.19 62.0036C88.99 65.2636 90.6 69.6036 90.5 74.4036C90.21 88.3536 77.63 105.904 63.01 108.774ZM131.55 98.6737C131.55 96.5737 133.26 94.8636 135.36 94.8636C137.46 94.8636 139.17 96.5737 139.17 98.6737C139.17 100.774 137.46 102.484 135.36 102.484C133.26 102.484 131.55 100.774 131.55 98.6737ZM118.77 112.074C118.77 109.974 120.48 108.264 122.58 108.264C124.68 108.264 126.39 109.974 126.39 112.074C126.39 114.174 124.68 115.884 122.58 115.884C120.48 115.884 118.77 114.174 118.77 112.074ZM118.77 85.2736C118.77 83.1736 120.48 81.4636 122.58 81.4636C124.68 81.4636 126.39 83.1736 126.39 85.2736C126.39 87.3736 124.68 89.0836 122.58 89.0836C120.48 89.0836 118.77 87.3736 118.77 85.2736ZM105.99 85.2736C105.99 83.1736 107.7 81.4636 109.8 81.4636C111.9 81.4636 113.61 83.1736 113.61 85.2736C113.61 87.3736 111.9 89.0836 109.8 89.0836C107.7 89.0836 105.99 87.3736 105.99 85.2736Z" fill="#E8B67C"/>
<path d="M135.36 96.1136C136.77 96.1136 137.92 97.2637 137.92 98.6737C137.92 100.084 136.77 101.234 135.36 101.234C133.95 101.234 132.8 100.084 132.8 98.6737C132.8 97.2637 133.95 96.1136 135.36 96.1136Z" fill="#E8B67C"/>
<path d="M122.58 82.7136C123.99 82.7136 125.14 83.8636 125.14 85.2736C125.14 86.6836 123.99 87.8336 122.58 87.8336C121.17 87.8336 120.02 86.6836 120.02 85.2736C120.02 83.8636 121.17 82.7136 122.58 82.7136Z" fill="#E8B67C"/>
<path d="M109.8 82.7136C111.21 82.7136 112.36 83.8636 112.36 85.2736C112.36 86.6836 111.21 87.8336 109.8 87.8336C108.39 87.8336 107.24 86.6836 107.24 85.2736C107.24 83.8636 108.39 82.7136 109.8 82.7136Z" fill="#E8B67C"/>
<path d="M0 77.3536C0 104.234 24.44 128.674 48.41 128.674C72.47 128.674 96.16 104.234 96.16 77.3536C96.16 50.3736 72.47 21.0436 48.41 21.0436C24.44 21.0436 0 50.3736 0 77.3536ZM17.34 55.6236C25.6 47.3836 38.96 47.3836 47.22 55.6236L47.77 56.1736L48.32 55.6236C56.67 47.4736 70.05 47.6436 78.19 55.9936C86.19 64.1936 86.19 77.2836 78.2 85.4936L49.6 114.094C49.12 114.574 48.44 114.784 47.77 114.654C47.64 114.664 47.51 114.664 47.37 114.654C46.83 114.654 46.32 114.444 45.94 114.064L17.34 85.4936C9.11003 77.2436 9.11003 63.8836 17.34 55.6236Z" fill="#553B59"/>
<path d="M18.9 81.3136C19.32 81.7736 19.76 82.2136 20.22 82.6336L47.77 110.184L75.32 82.6336C81.98 75.9736 81.99 65.1636 75.33 58.5036C68.67 51.8436 57.86 51.8336 51.2 58.4936L49.17 60.4736C48.38 61.2636 47.1 61.2636 46.3 60.4736L44.27 58.4936C37.97 51.4936 27.18 50.9236 20.18 57.2236C13.16 63.5236 12.59 74.3136 18.9 81.3136ZM34.74 80.0236C34.74 78.9036 35.65 77.9936 36.77 77.9936H45.73V69.0336C45.73 67.9136 46.64 67.0036 47.76 67.0036C48.88 67.0036 49.79 67.9136 49.79 69.0336V77.9936H58.75C59.87 77.9936 60.78 78.9036 60.78 80.0236C60.78 81.1436 59.87 82.0536 58.75 82.0536H49.79V91.0136C49.79 92.1336 48.88 93.0436 47.76 93.0436C46.64 93.0436 45.73 92.1336 45.73 91.0136V82.0536H36.77C35.65 82.0636 34.74 81.1536 34.74 80.0236Z" fill="#553B59"/>
</svg>
