<svg width="385" height="70" viewBox="0 0 385 70" fill="none" xmlns="http://www.w3.org/2000/svg">
<path d="M14.6731 54.9483C14.3809 54.4303 13.9227 54.0783 13.3449 53.9057C12.9996 53.7928 12.6543 53.6732 12.3621 53.6732C11.7843 53.6134 11.2663 53.6732 10.7417 53.6732C10.569 53.6732 10.4495 53.6732 10.3366 53.6135C10.2768 53.5006 10.2768 53.3212 10.2768 53.2083C10.2171 52.6903 10.1639 52.1657 10.1639 51.6477C10.051 49.7418 9.99127 47.8358 9.9315 45.9232C9.87173 44.1301 9.87173 42.3969 9.87173 40.5507C9.87173 39.9131 9.87173 39.2822 9.9315 38.6447C9.99127 37.2568 10.1042 35.8157 10.1639 34.4277C10.2237 32.462 10.2768 30.4962 10.3366 28.5903C10.3964 26.6246 10.2768 24.7186 10.2237 22.8127C10.2237 22.4076 10.2237 22.0024 10.1639 21.5973C10.1042 20.5016 10.051 19.4589 9.99127 18.3565C9.9315 17.3737 9.81861 16.3311 9.64594 15.3482C9.47328 14.4251 9.24084 13.4954 8.66307 12.6918C8.6033 12.632 8.66307 12.632 8.66307 12.5789C9.24084 12.2336 9.93814 12.0012 10.569 11.8285C10.8612 11.7687 11.1468 11.6558 11.439 11.7687C11.5519 11.8816 11.6714 12.0011 11.8441 12.114C12.0168 12.2269 12.1894 12.3465 12.3621 12.4062C12.827 12.5191 13.1125 12.2934 13.1723 11.8285C13.1723 11.4832 13.1125 11.1909 12.9399 10.9054C12.6477 10.4405 12.4219 10.0354 12.0699 9.69009C11.605 9.285 11.0273 8.93966 10.4495 8.8799C10.1042 8.82013 9.75883 8.82013 9.46663 8.82013C8.7162 8.82013 7.96577 8.99279 7.26847 9.16545C5.01718 9.68345 2.93192 10.7261 1.08573 12.1738C0.853295 12.4062 0.56773 12.5789 0.335296 12.8645C0.0430934 13.15 -0.0698046 13.5551 0.0430918 13.9602C0.215757 14.538 0.561092 15.0029 1.08573 15.2353C1.31816 15.3482 1.60372 15.408 1.89593 15.3482C2.12836 15.2884 2.36079 15.2884 2.53345 15.2353C3.17099 15.1224 3.80188 14.89 4.38629 14.6575C4.49919 14.5978 4.67849 14.4251 4.90428 14.5446C4.90428 14.7173 4.90428 14.89 4.90428 15.0626C4.84452 15.7533 4.79138 16.5104 4.73161 17.201C4.67184 18.8745 4.49918 20.4949 4.43941 22.1153C4.32651 23.676 4.26676 25.2964 4.20699 26.857C4.14722 29.2278 4.14721 31.6518 4.31988 34.0824C4.31988 34.3148 4.37964 34.6004 4.37964 34.8926C4.49254 35.8157 4.55231 36.7985 4.67185 37.7216C4.73162 38.5916 4.84451 39.4549 4.96405 40.3249C5.02382 41.3077 5.13672 42.3504 5.25625 43.3332C5.31602 44.2563 5.42892 45.1263 5.54846 46.1092C5.66136 47.3244 5.78088 48.5398 5.95355 49.8082C6.12621 50.9039 6.24575 52.0063 6.47154 53.1021C6.58444 53.5072 6.64421 53.8525 6.76375 54.2576C6.59108 54.3705 6.35865 54.4303 6.18599 54.4901C5.03046 54.8354 3.93471 55.3534 3.00498 56.1105C2.77254 56.2831 2.5401 56.5156 2.36743 56.6882C2.07523 57.0336 2.02211 57.3789 2.19478 57.784C2.30768 58.0164 2.48697 58.2488 2.65963 58.4215C3.29717 59.059 4.10737 59.2915 4.9707 59.0591C5.54846 58.9462 6.12621 58.7735 6.76375 58.5942C7.68684 58.2489 8.55683 57.9566 9.47992 57.5515C10.6354 57.1464 11.791 56.8609 12.9465 56.6284C13.2387 56.5687 13.5243 56.5156 13.8696 56.5687C14.0423 56.6285 14.2747 56.5089 14.4473 56.4558C14.7927 56.2831 15.0251 55.9909 14.9122 55.5858C14.8458 55.3534 14.786 55.1741 14.6731 54.9483Z" fill="#B85459"/>
<path d="M18.8304 22.2282L22.0645 21.8231C23.6849 19.1667 26.1686 12.9773 27.4968 8.1228L22.2372 8.6408C21.6063 12.8113 20.1054 18.8214 18.8304 22.2282Z" fill="#B85459"/>
<path d="M54.6119 30.0911C54.1471 29.8587 53.6888 30.0314 53.3966 30.3767C53.2239 30.6689 53.1044 31.0142 52.9915 31.3596C52.5864 32.5151 52.2411 33.6706 51.836 34.8859C51.3711 36.0415 50.9129 37.197 50.448 38.3525C50.2156 38.8705 49.9832 39.3354 49.6378 39.8002C49.4652 39.9729 49.3456 40.1456 49.0601 40.2651C49.0003 40.1522 48.8874 40.0924 48.8276 39.9729C48.7147 39.7405 48.5952 39.508 48.4823 39.2225C48.137 38.3525 47.9643 37.4892 47.7916 36.5661C47.619 35.7559 47.4994 34.9457 47.3268 34.1953C47.267 33.8499 47.0943 33.5046 46.9814 33.2124C46.8088 32.8671 46.4634 32.6346 46.0583 32.5217C45.3079 32.4088 44.4977 32.5815 44.0329 33.3917C43.92 33.6241 43.7407 33.9097 43.6278 34.1421C43.05 35.5899 42.4722 37.031 41.8347 38.4787C41.7749 38.6514 41.7218 38.8838 41.5425 39.1693C41.4827 38.7642 41.4827 38.5318 41.4827 38.2994C41.4229 37.0841 41.3698 35.8157 41.3698 34.6004C41.2569 31.3662 41.3101 28.1254 41.4296 24.8913C41.4894 24.3135 41.4894 23.7357 41.4894 23.158C41.4894 22.3478 41.5491 21.5973 41.4894 20.7871C41.4894 19.9769 41.4894 19.1136 41.3167 18.3034C41.2569 17.7854 41.0843 17.2608 40.7987 16.8026C40.1612 15.8197 38.3681 15.4146 37.5048 16.8026C37.3321 17.035 37.1595 17.3803 37.0399 17.6725C36.7477 18.3101 36.5219 18.8878 36.3493 19.5254C35.3066 22.6466 34.4433 25.8808 33.6929 29.0618C33.58 29.4071 33.5202 29.7524 33.4604 30.1044C33.4007 29.6396 33.4007 29.1813 33.4007 28.7165C33.5136 27.0961 33.4007 25.4225 33.228 23.8021C33.228 23.2842 32.9358 22.9322 32.5373 22.7064C31.8998 22.3611 31.2623 22.3013 30.5716 22.5337C30.1067 22.6466 29.7614 22.9388 29.6485 23.397C29.5356 23.6295 29.4759 23.915 29.4161 24.1475C29.3032 24.8979 29.1239 25.6483 29.1239 26.3988C29.011 27.9594 28.8914 29.52 28.8317 31.0806C28.7719 33.6241 28.9446 36.1676 29.2966 38.7111C29.4095 39.5213 29.5887 40.3315 29.7614 41.0819C29.8743 41.5468 29.9939 41.9519 30.2263 42.3504C30.4587 42.8152 30.9169 43.041 31.4416 43.041C32.3647 43.041 33.2944 42.4633 33.58 41.5402C33.7526 41.1351 33.8722 40.73 33.9253 40.2651C34.1577 39.0498 34.3304 37.8345 34.5031 36.5661C34.6757 35.2379 34.9082 33.8499 35.1406 32.5217C35.7781 29.0552 36.5883 25.6417 37.6243 22.2349C37.9165 21.3649 38.2619 20.4418 38.5474 19.5187C38.6072 19.4058 38.6072 19.3461 38.7201 19.3461C38.7201 19.5187 38.7201 19.6914 38.7201 19.8641C38.6603 20.8469 38.6072 21.8298 38.5474 22.8126C38.4876 23.5033 38.4345 24.2006 38.3747 24.8913C38.315 25.9339 38.2619 26.9699 38.2021 28.0125C38.1423 30.2638 38.1423 32.462 38.2619 34.7199C38.3748 36.1079 38.4345 37.4958 38.5541 38.8838C38.6138 39.5744 38.7267 40.2718 38.8994 40.9093C38.9592 41.2546 39.072 41.5468 39.2447 41.8324C39.5369 42.4101 40.0549 42.7023 40.6925 42.5828C41.0976 42.5828 41.5026 42.4101 41.848 42.1777C42.1933 41.8855 42.4257 41.5999 42.5984 41.1948C42.8308 40.73 43.0633 40.212 43.2891 39.694C43.8071 38.5384 44.2719 37.3232 44.7899 36.1079C44.8497 35.995 44.9028 35.9352 45.0224 35.7625C45.0821 35.995 45.0821 36.1079 45.1352 36.2805C45.195 36.7985 45.2481 37.3231 45.3677 37.8411C45.5403 38.5916 45.713 39.342 46.0583 40.0924C46.231 40.4975 46.4635 40.9026 46.8088 41.248C47.2139 41.6531 47.7319 41.8855 48.3694 41.8855C48.8343 41.8855 49.2925 41.7726 49.7574 41.5402C50.2222 41.248 50.6805 40.8495 51.0324 40.3846C51.4375 39.8666 51.67 39.2889 51.9555 38.7111C52.6462 37.0376 53.2306 35.3574 53.8084 33.6241C54.1537 32.5284 54.3861 31.426 54.851 30.3833C54.7846 30.204 54.7248 30.1509 54.6119 30.0911Z" fill="#B85459"/>
<path d="M96.4035 25.4092C96.636 25.2366 96.6957 25.0639 96.6957 24.8315C96.6957 24.5459 96.6957 24.3135 96.7555 24.081C96.8153 23.5631 96.5829 23.0982 96.1778 22.806C95.3676 22.2282 94.1523 22.1153 93.2889 23.0384C92.9967 23.324 92.7709 23.676 92.5385 23.9615C91.9607 24.7717 91.4959 25.5819 91.1505 26.505C90.7521 27.4148 90.42 28.3313 90.1477 29.2677C90.0946 29.2876 90.0481 29.3075 89.995 29.3341C89.5301 29.6794 89.0122 29.9716 88.6071 30.3169C87.6242 31.1271 86.6413 31.8776 85.778 32.6878C84.0447 34.2484 82.3645 35.8688 80.7508 37.4825C80.6379 37.5954 80.5184 37.7681 80.3457 37.7681C80.2859 37.7083 80.2328 37.6552 80.173 37.5357C79.655 36.845 79.1901 36.1477 78.6722 35.457C78.2073 34.8195 77.6893 34.1288 77.1713 33.4315C76.7064 32.794 76.3611 32.1565 76.0158 31.4658C75.3251 30.0181 75.0927 28.4575 75.2056 26.8968C75.3185 25.396 75.7236 23.9482 76.3013 22.5603C76.474 22.2149 76.6467 21.9227 76.8193 21.6372C76.8791 21.5243 76.9322 21.4047 77.0518 21.345C77.5166 21.5176 77.9749 21.7501 78.4397 21.4579C78.9046 20.5879 78.7851 19.8973 78.0944 19.2597C77.9217 19.0273 77.6893 18.9144 77.4569 18.7417C76.2416 18.1042 74.9731 18.1042 73.7578 18.682C73.0672 19.0273 72.5426 19.4922 72.0843 20.0699C71.2144 21.0528 70.6366 22.2083 70.2315 23.3638C69.4811 25.5022 69.3084 27.6406 69.9393 29.779C70.3444 31.167 71.035 32.4354 71.8452 33.5976C72.4828 34.4609 73.1734 35.218 73.8707 35.9684C74.4485 36.6591 75.0263 37.2966 75.604 37.9939C76.3545 38.8638 76.9322 39.8998 77.3971 40.9425C77.4569 41.0022 77.4569 41.1151 77.51 41.2347C77.3373 41.4073 77.2776 41.58 77.1647 41.7527C75.9494 43.6586 75.086 45.6841 74.8536 47.8823C74.7407 48.9781 74.7407 50.0804 75.0263 51.1762C75.1392 51.5215 75.2587 51.9266 75.4911 52.272C75.8365 52.79 76.3013 53.1419 76.8791 53.3146C78.0944 53.7197 79.1304 53.3744 80.1133 52.5642C80.4586 52.2188 80.691 51.8735 80.9235 51.4684C81.2157 50.9504 81.4415 50.4258 81.6141 49.9078C82.1321 48.2874 82.3048 46.7268 82.3048 45.0532C82.3048 43.3797 82.0723 41.6995 81.4348 40.1389C81.375 40.026 81.3219 39.8467 81.2621 39.7338C81.727 39.156 82.1321 38.6381 82.5903 38.1134C84.4432 36.1477 86.3491 34.2417 88.368 32.3889C88.7996 32.0104 89.218 31.6518 89.643 31.3064C89.4505 32.276 89.3176 33.2522 89.2313 34.2417C89.1715 35.5168 89.2313 36.7852 89.4637 38.0536C89.6364 38.9767 89.9286 39.9065 90.4466 40.7698C90.9646 41.6398 91.715 42.2175 92.7577 42.3902C94.0859 42.6226 95.1285 42.2773 95.9387 41.1218C96.1711 40.8296 96.3438 40.4843 96.5164 40.0792C96.9215 39.3885 97.0942 38.6314 97.3266 37.881C97.672 36.5528 97.9044 35.2246 98.0771 33.8898C98.19 32.5018 98.3095 31.1138 98.19 29.7259C97.9642 28.1254 97.5591 26.6843 96.4035 25.4092ZM78.5393 48.5331C78.5393 49.2835 78.3667 50.034 78.1342 50.7844C78.0213 51.07 77.9018 51.3622 77.6694 51.5348C77.5565 51.5348 77.5565 51.4219 77.4967 51.3622C77.2643 50.8442 77.1514 50.3195 77.0916 49.8015C77.0319 48.9382 77.2045 48.128 77.3838 47.258C77.6163 46.4478 77.9018 45.5845 78.2538 44.7743C78.3136 44.7145 78.3667 44.6017 78.3667 44.5419C78.4264 44.5419 78.4265 44.5419 78.4796 44.5419C78.5393 44.947 78.5925 45.4118 78.5925 45.8169C78.5991 46.6803 78.5991 47.6034 78.5393 48.5331ZM96.1113 32.1698C95.9387 33.7902 95.6465 35.4039 95.0687 37.0243C94.8363 37.715 94.5507 38.472 94.1987 39.1029C94.0858 39.3354 93.9663 39.5678 93.6807 39.7936C93.5081 39.156 93.4483 38.6381 93.4483 38.0603C93.3885 37.0177 93.3885 35.9817 93.4483 34.939C93.5081 33.4382 93.7936 31.9904 94.139 30.6025C94.4312 29.3872 94.7167 28.1719 95.1218 27.0164C95.1816 26.9035 95.2347 26.7839 95.2945 26.6113C95.3543 26.7242 95.4672 26.8437 95.4672 26.9035C95.8723 27.5941 96.0449 28.4043 96.1578 29.1548C96.3438 30.204 96.2309 31.1869 96.1113 32.1698Z" fill="#B85459"/>
<path d="M180.618 2.57762C180.1 2.51785 179.575 2.69052 179.462 3.38782C179.402 3.50072 179.402 3.62026 179.349 3.68002C179.289 4.08512 179.177 4.43045 179.117 4.83555C178.599 6.97394 178.194 9.11233 177.729 11.2507C176.978 14.6044 175.936 18.0112 174.9 21.3051C174.84 21.5973 174.727 21.8231 174.608 22.2282C174.495 22.1685 174.375 22.1685 174.315 22.1153C172.814 21.8829 171.539 22.1751 170.384 23.158C169.806 23.6228 169.341 24.2006 168.883 24.8913C167.741 26.6578 166.891 28.5836 166.413 30.649C166.333 30.8681 166.247 31.0873 166.167 31.3064C165.124 34.1421 164.088 37.0309 163.046 39.86C162.581 41.0753 162.123 42.2308 161.545 43.3863C161.372 43.7317 161.14 44.077 160.907 44.429C160.847 44.4888 160.794 44.5419 160.675 44.6017C160.615 44.429 160.502 44.3161 160.442 44.1965C160.329 43.7915 160.15 43.3864 160.037 42.9813C159.692 41.766 159.572 40.4975 159.459 39.2225C159.4 38.4123 159.4 37.549 159.347 36.7388C159.287 36.2208 159.234 35.6961 159.114 35.1781C159.001 34.6004 158.649 34.255 158.131 34.0226C157.839 33.9628 157.613 33.8499 157.381 33.8499C156.743 33.7902 156.166 33.9628 155.76 34.4875C155.415 34.8328 155.123 35.2379 154.837 35.5832C153.855 37.0309 152.931 38.472 151.949 39.9198C151.431 40.6104 150.853 41.3675 150.275 42.0582C150.215 42.1179 150.162 42.2308 150.043 42.1711C150.102 41.4804 150.215 40.7233 150.388 39.9729C150.853 38.0669 151.543 36.2739 152.354 34.4808C152.991 33.1526 153.682 31.7647 154.492 30.5494C154.897 29.9716 155.302 29.4536 155.767 28.8758C155.94 28.7032 156.112 28.4707 156.285 28.3578C156.345 28.3578 156.398 28.3578 156.398 28.3578C156.458 28.4707 156.511 28.5305 156.571 28.5903C156.863 29.168 157.036 29.8056 157.148 30.4431C157.208 30.908 157.321 31.3662 157.381 31.7713C157.441 32.2362 157.554 32.6944 157.726 33.1593C157.899 33.5644 158.304 33.737 158.769 33.7968C159.001 33.7968 159.287 33.737 159.406 33.4515C159.519 33.219 159.579 32.9866 159.639 32.8139C159.984 31.5986 160.044 30.3833 159.931 29.1747C159.818 28.5969 159.699 28.0789 159.466 27.5012C158.596 25.6483 156.577 24.5526 154.552 24.8979C153.682 25.0706 152.819 25.4159 152.068 25.9405C151.431 26.4054 150.853 26.9234 150.335 27.5012C149.784 28.152 149.279 28.8493 148.774 29.5532C148.621 29.6263 148.482 29.7724 148.429 29.9318C148.389 30.0513 148.343 30.1708 148.296 30.2904C146.344 33.5179 144.942 36.9181 144.61 40.7433C144.557 41.6929 144.557 42.5961 144.69 43.5391C144.398 44.3559 144.059 45.1661 143.627 45.9431C143.568 46.1158 143.455 46.3482 143.282 46.5209C143.222 46.4611 143.169 46.3482 143.109 46.2884C142.997 45.8833 142.877 45.538 142.764 45.1927C142.359 43.6321 142.246 42.0117 142.127 40.4511C142.014 38.8904 141.894 37.3896 141.894 35.8289C141.781 31.2599 141.781 26.6976 142.007 22.1286C142.007 22.0689 142.007 22.0157 142.007 21.956C142.067 20.2824 142.18 18.6023 142.299 16.869C142.359 15.999 142.412 15.0759 142.472 14.2126C142.532 12.8246 142.645 11.4964 142.764 10.1682C142.824 9.29827 142.877 8.49471 142.937 7.62474C142.937 7.15987 142.997 6.75478 143.05 6.23678C143.109 6.17701 143.222 6.06413 143.342 6.00436C143.342 5.89147 143.402 5.77193 143.342 5.71216C143.229 5.30706 143.169 4.90195 143.229 4.49685C143.229 4.21129 143.116 3.97885 142.937 3.80618C142.591 3.46085 142.186 3.22843 141.721 3.16866C140.739 3.05576 140.161 3.28156 139.756 4.15153C139.583 4.55663 139.41 4.90195 139.291 5.30705C138.826 6.75478 138.54 8.19587 138.248 9.70336C137.956 11.0913 137.783 12.5324 137.611 13.9801C137.438 15.5408 137.265 17.1014 137.206 18.662C137.093 20.2227 136.973 21.7833 136.86 23.2841C136.801 24.9045 136.801 26.4652 136.801 28.0789C136.801 28.6899 136.807 29.2743 136.827 29.8654C135.858 31.4061 134.888 32.9534 133.912 34.5539C133.042 35.9418 132.178 37.27 131.308 38.658C131.249 38.8307 131.196 39.0033 131.016 39.1229C130.903 39.01 130.903 38.9502 130.903 38.8373C130.844 38.3724 130.79 37.8544 130.731 37.3896C130.671 36.0016 130.498 34.6136 130.266 33.2854C130.153 32.4752 129.974 31.7248 129.688 30.9744C129.456 30.3966 129.17 29.8189 128.592 29.5267C128.533 29.4138 128.533 29.354 128.479 29.2942C128.074 28.3114 127.384 27.6207 126.341 27.1558C124.953 26.5781 123.565 26.5781 122.177 27.1558C121.134 27.5609 120.271 28.2516 119.574 29.1216C118.651 30.2173 117.953 31.4924 117.376 32.8206C116.858 34.089 116.565 35.477 116.506 36.9247C116.446 37.9673 116.565 39.0033 116.738 40.0459C116.911 40.9159 117.203 41.7195 117.661 42.4168C118.817 44.1501 121.301 44.2696 122.629 42.9348C122.974 42.6426 123.206 42.2972 123.439 41.9519C123.904 41.3741 124.249 40.7366 124.594 40.0459C125.059 39.0033 125.518 37.9673 125.982 36.9247C126.447 35.8821 126.905 34.7863 127.37 33.7437C127.43 33.6839 127.43 33.5112 127.603 33.5112C128.008 36.9247 128.121 40.2717 128.293 43.6852C128.181 43.8579 128.061 44.0305 128.001 44.2032C127.483 44.9536 127.018 45.7638 126.554 46.574C125.278 48.7124 124.123 50.9637 123.14 53.3345C122.27 55.4729 121.639 57.6113 121.407 59.9224C121.294 61.1974 121.347 62.4659 121.579 63.7409C121.812 64.5511 122.097 65.3015 122.622 65.9922C123.26 66.8024 124.123 67.2075 125.106 67.2075C126.261 67.2673 127.184 66.8622 127.995 66.1118C128.459 65.7664 128.865 65.3016 129.21 64.7836C129.555 64.2058 129.901 63.5683 130.133 62.8776C130.651 61.4896 130.943 60.0485 131.176 58.541C131.408 56.748 131.468 54.9549 131.521 53.1685C131.521 50.9703 131.408 48.7722 131.348 46.6404C131.289 45.1927 131.176 43.7516 131.116 42.2441C131.289 41.8988 131.521 41.5535 131.753 41.2015C133.447 38.3193 135.173 35.477 136.874 32.6479C136.9 33.6507 136.94 34.6535 137.013 35.6563C137.186 37.104 137.305 38.5451 137.531 39.9331C137.704 41.3808 137.996 42.7621 138.341 44.1501C138.633 45.1927 138.979 46.1755 139.557 47.1584C139.789 47.5635 140.021 47.9089 140.367 48.2542C141.695 49.5824 144.006 49.2968 145.049 47.7893C145.221 47.5569 145.394 47.2713 145.513 46.9791C145.646 46.7068 145.772 46.4412 145.885 46.1689C146.025 46.2951 146.164 46.4146 146.324 46.5209C147.479 47.2115 149.618 47.5038 151.118 46.056C151.524 45.7107 151.929 45.3056 152.274 44.8407C153.084 43.8579 153.775 42.7621 154.472 41.6066C155.11 40.451 155.8 39.3553 156.438 38.1931C156.551 38.0802 156.67 37.9076 156.73 37.7283C156.79 37.7283 156.843 37.7283 156.843 37.788C156.903 38.3658 156.956 38.9435 157.016 39.5213C157.129 40.5042 157.248 41.4273 157.48 42.3504C157.713 43.1606 157.945 43.9708 158.35 44.7212C158.523 45.0665 158.815 45.4119 159.101 45.7041C160.084 46.5143 161.532 46.5142 162.395 45.5314C162.627 45.299 162.86 45.0134 163.032 44.7212C163.325 44.2032 163.61 43.6786 163.843 43.1606C164.361 41.9453 164.825 40.6768 165.23 39.4018C165.569 38.4388 165.888 37.4692 166.213 36.493C166.253 36.7122 166.293 36.9313 166.333 37.1505C166.446 37.3829 166.506 37.6685 166.625 37.9009C167.09 39.0565 167.953 39.6342 169.109 39.8069C170.092 39.8666 170.902 39.5744 171.36 38.7111C171.533 38.5385 171.593 38.2463 171.765 38.0205C171.878 37.7283 172.057 37.4427 172.111 37.0974C172.456 36.1145 172.801 35.0719 173.093 34.1488C173.784 31.7779 174.541 29.4669 175.172 27.0961C175.232 26.9234 175.285 26.691 175.404 26.3456C175.982 26.691 176.5 26.691 177.138 26.4054C177.138 27.0961 177.138 27.6805 177.078 28.3114C177.018 29.872 176.905 31.4326 176.846 32.9932C176.786 34.2085 176.733 35.4238 176.733 36.5794C176.733 37.5622 176.733 38.5451 176.733 39.5877C176.733 40.7432 176.673 42.0714 176.673 43.2867C176.786 44.5618 176.846 45.8302 176.846 47.1053C177.018 50.2863 177.31 53.4607 177.656 56.5288C177.656 56.821 177.716 57.1066 177.828 57.339C177.828 57.5715 177.941 57.6843 178.121 57.857C178.639 58.2621 179.568 58.2023 180.086 57.9168C180.199 57.8039 180.379 57.6246 180.379 57.3988C180.379 57.0535 180.379 56.7081 180.438 56.3562C180.438 56.1237 180.438 55.8382 180.379 55.6057C180.438 54.7955 180.438 54.0451 180.438 53.2947C180.438 52.4845 180.325 51.6743 180.438 50.8641C180.438 49.7086 180.438 48.4933 180.498 47.3377C180.498 46.3549 180.438 45.3122 180.385 44.2762C180.445 44.1036 180.385 43.9309 180.385 43.7582C180.385 42.8949 180.385 41.9652 180.445 41.1019C180.385 39.8866 180.332 38.6713 180.385 37.4626C180.385 36.2473 180.445 35.032 180.385 33.8234C180.385 32.8405 180.385 31.9705 180.385 30.9345C180.385 30.3568 180.445 29.779 180.445 29.2013C180.445 28.1055 180.445 26.95 180.558 25.9073C180.618 24.9245 180.618 23.9416 180.671 22.9587C180.671 22.0357 180.731 21.0528 180.784 20.0699C180.784 18.5691 180.897 17.0616 180.956 15.6205C181.069 14.2325 181.069 12.9043 181.249 11.5164C181.308 9.55063 181.541 7.64466 181.654 5.73871C181.713 5.16094 181.654 4.52342 181.654 3.94566C181.713 3.15538 181.255 2.75029 180.618 2.57762ZM121.254 40.7831C121.194 40.7233 121.141 40.7233 121.141 40.7233C121.081 40.6104 121.028 40.4311 121.028 40.3182C120.968 39.2225 121.028 38.1201 121.261 37.0243C121.726 34.6535 122.649 32.5749 124.149 30.6689C124.382 30.3767 124.614 30.1509 124.84 29.9185C125.073 29.686 125.245 29.5134 125.591 29.4005C125.65 29.5134 125.763 29.5731 125.883 29.6329C126.055 29.7458 126.175 29.9251 126.348 30.038C124.9 33.7901 123.28 37.3763 121.254 40.7831ZM128.539 55.2338C128.426 57.3722 128.247 59.5704 127.729 61.649C127.497 62.5721 127.211 63.4421 126.686 64.2523C126.514 64.5976 126.221 65.0027 125.936 65.2949C125.703 65.4676 125.531 65.6403 125.245 65.7C124.9 65.5871 124.608 65.3547 124.435 65.0625C124.143 64.7171 123.97 64.312 123.857 63.9069C123.685 63.3292 123.565 62.8112 123.565 62.2334C123.452 60.5001 123.738 58.8266 124.203 57.2062C124.84 54.9549 125.65 52.8165 126.633 50.7313C127.098 49.6886 127.616 48.6526 128.134 47.61C128.194 47.4971 128.194 47.3178 128.367 47.2647L128.426 47.3244C128.426 47.7893 128.486 48.3073 128.486 48.7722C128.539 50.8973 128.599 53.0357 128.539 55.2338ZM173.047 26.7374C173.047 26.8503 173.047 26.9699 172.987 27.0828C172.237 29.4536 171.367 31.8776 170.444 34.2484C170.384 34.3082 170.271 34.421 170.271 34.5406C170.271 34.3679 170.211 34.1355 170.271 33.9628C170.331 33.2124 170.563 32.4022 170.849 31.7115C171.314 30.1509 171.891 28.65 172.702 27.2023C172.755 27.0297 172.814 26.857 173.047 26.7374C173.047 26.6777 173.107 26.6777 173.047 26.5648C173.16 26.6246 173.16 26.6843 173.047 26.7374ZM177.264 24.6588C177.031 24.4264 176.972 24.0811 176.859 23.8486C176.626 23.6162 176.513 23.3838 176.394 23.2111C176.454 22.5204 177.49 19.0472 177.669 18.7019C177.496 20.7274 177.437 22.6931 177.264 24.6588Z" fill="#B85459"/>
<path d="M233.852 25.4092C234.084 25.2366 234.144 25.0639 234.144 24.8315C234.144 24.5459 234.144 24.3135 234.204 24.081C234.263 23.563 234.031 23.0982 233.626 22.806C232.816 22.2282 231.6 22.1153 230.737 23.0384C230.445 23.324 230.219 23.676 229.987 23.9615C229.409 24.7717 228.944 25.5819 228.599 26.505C228.247 27.3019 227.954 28.1121 227.702 28.929C227.576 28.9754 227.45 29.0352 227.324 29.1016C226.686 29.6794 226.048 30.2571 225.53 30.8947C224.548 32.0502 223.625 33.2655 222.642 34.4808C222.004 35.3508 221.313 36.2739 220.676 37.1372C220.616 37.2501 220.563 37.3696 220.384 37.3099C220.384 37.2501 220.384 37.1372 220.324 37.0774C220.032 35.2246 219.633 33.3186 219.049 31.5256C218.704 30.483 218.358 29.5001 217.774 28.577C217.541 28.1719 217.309 27.8266 217.023 27.5344C216.505 27.0164 215.928 26.7839 215.171 26.7839C214.42 26.8437 213.955 27.1292 213.723 27.8797C213.55 28.225 213.49 28.5704 213.378 28.9755C212.913 30.5958 212.508 32.2694 211.99 33.8898C211.525 35.3906 210.894 36.7786 210.084 38.0536C209.679 38.6314 209.214 39.2092 208.636 39.7272C208.576 39.7869 208.523 39.8401 208.403 39.7869C208.344 39.674 208.344 39.5545 208.291 39.4416C208.118 38.4587 208.118 37.4759 208.118 36.493C208.058 35.4504 208.058 34.3546 208.058 33.2589C208.058 32.6213 208.118 31.9838 208.118 31.3529C208.118 30.4829 208.178 29.6196 208.178 28.7497C208.178 28.577 208.118 28.4575 208.118 28.2848C208.058 27.707 207.713 27.3019 207.195 27.0695C206.504 26.6644 205.747 26.5515 204.943 26.7242C204.425 26.8968 203.961 27.189 203.788 27.8199C203.675 28.0523 203.615 28.2848 203.556 28.5106C203.443 29.1481 203.323 29.7856 203.263 30.4165C203.15 31.2799 203.15 32.1498 203.15 32.96C203.15 34.0027 203.263 34.9855 203.443 35.9684C203.615 37.1239 203.848 38.2197 204.253 39.3221C204.425 39.7272 204.598 40.1323 204.831 40.5374C205.986 42.5031 208.53 42.5031 209.858 41.4073C210.15 41.2347 210.376 41.0022 210.608 40.7167C210.954 40.3116 211.246 39.9065 211.531 39.4416C212.342 38.2263 212.979 36.8383 213.497 35.3973C214.015 33.7769 214.54 32.1631 215.117 30.5427C215.177 30.37 215.23 30.1974 215.29 29.9052C215.35 30.1376 215.403 30.1907 215.463 30.3103C215.755 31.3529 215.981 32.3358 216.1 33.3718C216.565 35.8024 216.791 38.2861 216.97 40.7698C217.03 41.2347 217.03 41.7527 217.083 42.2175C216.97 42.45 216.851 42.5629 216.738 42.7355C216.273 43.486 215.755 44.2364 215.29 44.9868C213.437 47.8159 211.824 50.7113 210.548 53.8326C209.453 56.4358 208.47 59.0922 208.118 61.9279C207.945 63.2561 207.885 64.6441 208.058 66.0321C208.171 66.6696 208.35 67.3005 208.636 67.938C208.868 68.4029 209.154 68.8611 209.559 69.2662C210.196 69.7842 210.887 70.0166 211.638 69.9037C212.215 69.9037 212.793 69.731 213.311 69.4388C213.889 69.0935 214.467 68.6884 214.985 68.2236C215.795 67.3536 216.545 66.4305 217.183 65.3945C218.398 63.369 219.261 61.2306 219.839 58.9793C220.649 55.8581 221.054 52.7368 221.227 49.5558C221.227 48.978 221.227 48.4601 221.287 47.8823C221.347 46.6139 221.227 45.279 221.174 44.0106C221.174 43.4328 221.114 42.8551 221.061 42.2175C221.001 41.7527 220.948 41.2347 220.888 40.7698C220.948 40.6569 221.001 40.5971 221.061 40.5374C222.735 37.9939 224.528 35.4504 226.381 32.9667C226.56 32.7409 226.732 32.5217 226.905 32.2959C226.806 32.9401 226.726 33.5843 226.673 34.2351C226.613 35.5102 226.673 36.7786 226.905 38.047C227.078 38.9701 227.37 39.8998 227.888 40.7632C228.406 41.6331 229.163 42.2109 230.199 42.3836C231.527 42.616 232.57 42.2707 233.38 41.1151C233.613 40.8229 233.785 40.4776 233.958 40.0725C234.363 39.3818 234.536 38.6248 234.768 37.8743C235.113 36.5462 235.346 35.218 235.519 33.8831C235.631 32.4952 235.751 31.1072 235.631 29.7192C235.412 28.1254 235.007 26.6843 233.852 25.4092ZM217.262 46.9725C217.262 47.8955 217.262 48.8784 217.262 49.8015C217.262 50.1468 217.203 50.4391 217.203 50.7844C217.143 52.2321 217.03 53.6732 216.857 55.1209C216.744 56.3362 216.625 57.5515 216.393 58.7602C215.987 60.8986 215.469 62.9772 214.54 64.9429C214.194 65.6934 213.789 66.3906 213.271 67.0813C213.039 67.3669 212.806 67.6591 212.521 67.8915C212.116 68.2369 211.883 68.2369 211.538 67.8915C211.306 67.6591 211.193 67.3138 211.073 67.0216C210.96 66.5036 210.841 66.0387 210.841 65.5207C210.781 64.1327 210.954 62.7448 211.246 61.4166C211.764 59.1653 212.521 56.9671 213.384 54.769C214.367 52.2255 215.582 49.7417 216.851 47.3112C216.964 47.1385 217.023 46.9061 217.256 46.7932C217.262 46.8529 217.262 46.9127 217.262 46.9725ZM233.566 32.1698C233.393 33.7902 233.101 35.4039 232.523 37.0243C232.291 37.715 232.005 38.472 231.653 39.1029C231.541 39.3354 231.421 39.5678 231.135 39.7936C230.963 39.156 230.903 38.6381 230.903 38.0603C230.843 37.0177 230.843 35.9817 230.903 34.939C230.963 33.4382 231.248 31.9904 231.594 30.6025C231.886 29.3872 232.171 28.1719 232.577 27.0164C232.636 26.9035 232.689 26.7839 232.749 26.6113C232.809 26.7242 232.922 26.8437 232.922 26.9035C233.327 27.5941 233.5 28.4043 233.613 29.1548C233.798 30.204 233.679 31.1869 233.566 32.1698Z" fill="#B85459"/>
<path d="M260.96 29.168C260.555 29.168 260.21 29.2278 259.977 29.5731C259.917 29.8056 259.977 30.0911 259.917 30.3236C259.28 32.1764 258.702 34.0823 258.124 35.9285C257.374 38.1267 256.677 40.2651 255.813 42.4035C255.468 43.2137 255.123 44.0239 254.658 44.7743C254.598 44.8872 254.545 44.947 254.425 45.0067C254.366 44.8938 254.366 44.7743 254.312 44.6614C254.08 43.7981 253.907 42.8683 253.848 42.005C253.615 40.4444 253.502 38.8837 253.502 37.3231C253.502 35.6496 253.502 33.9097 253.502 32.1764C253.502 31.3064 253.502 30.4431 253.502 29.52C253.502 29.2876 253.442 29.0551 253.389 28.7696C253.33 28.3645 253.097 28.0789 252.752 27.8465C252.347 27.614 251.882 27.4414 251.424 27.5011C250.786 27.5011 250.268 27.7336 249.976 28.3113C249.863 28.6035 249.684 28.8293 249.571 29.0618C249.338 29.5798 249.106 30.0446 248.82 30.5626C248.13 32.0635 247.319 33.571 246.39 35.0121C245.925 35.7625 245.467 36.4598 244.942 37.1505C244.829 37.2634 244.71 37.3829 244.537 37.5556C244.304 36.3403 244.364 35.1847 244.424 34.089C244.484 33.3983 244.537 32.6412 244.597 31.9506C244.656 31.0275 244.71 30.0446 244.769 29.0618C244.829 28.4242 244.829 27.7867 244.769 27.2089C244.71 26.5714 244.424 26.1663 243.899 25.8807C243.262 25.5354 242.571 25.4159 241.874 25.4756C241.183 25.5885 240.718 25.9405 240.426 26.5714C240.313 26.8636 240.194 27.2089 240.081 27.614C239.789 28.6567 239.616 29.7524 239.503 30.8548C239.39 32.5284 239.443 34.2085 239.735 35.8223C239.908 36.6922 240.141 37.5556 240.546 38.3658C241.183 39.694 242.279 40.4444 243.78 40.5639C244.822 40.6237 245.805 40.2784 246.556 39.5811C246.901 39.2357 247.246 38.8904 247.479 38.4853C247.884 37.9673 248.17 37.4427 248.522 36.9247C248.927 36.2871 249.272 35.5965 249.677 34.8992C249.737 34.8394 249.79 34.7863 249.909 34.5539C249.909 34.8394 249.909 35.0187 249.909 35.1914C249.909 35.7691 249.969 36.4067 249.969 36.9844C250.082 38.2595 250.202 39.5279 250.374 40.7432C250.547 41.8988 250.779 43.1141 251.065 44.2696C251.238 44.7876 251.47 45.3654 251.756 45.89C251.928 46.2353 252.101 46.5275 252.393 46.8131C252.738 47.1584 253.144 47.3311 253.662 47.3311C254.239 47.3908 254.704 47.2182 255.222 46.9857C255.8 46.6404 256.205 46.1755 256.55 45.6575C256.956 45.0798 257.241 44.4422 257.533 43.8047C258.171 42.4167 258.749 41.0288 259.154 39.5877C260.024 36.4664 260.887 33.3452 261.757 30.2239C261.817 30.0513 261.817 29.8188 261.817 29.7059C261.657 29.2809 261.305 29.168 260.96 29.168Z" fill="#B85459"/>
<path d="M261.883 22.2282L265.117 21.8231C266.738 19.1667 269.221 12.9773 270.55 8.1228L265.29 8.6408C264.659 12.8113 263.158 18.8214 261.883 22.2282Z" fill="#B85459"/>
<path d="M290.672 23.6162C290.904 23.5564 291.077 23.676 291.309 23.8486C291.482 23.9084 291.542 24.0213 291.714 24.081C291.947 24.1939 292.179 24.2537 292.352 24.1939C292.525 24.1342 292.644 24.081 292.697 23.9017C292.697 23.5564 292.584 23.4369 292.352 23.2642C291.661 22.5735 290.904 22.3411 289.921 22.3942C289.403 22.5071 288.938 22.6267 288.42 22.7993C282.523 25.9206 276.453 32.0502 276.805 39.0963C276.746 39.0963 276.692 39.0963 276.692 39.0963C276.752 38.1134 276.805 37.1903 276.865 36.2672C276.925 34.9921 276.978 33.7237 277.038 32.5084C277.098 31.3529 277.21 30.1974 277.383 29.0418C277.443 28.3512 277.443 27.6539 277.556 27.0163C277.556 26.2062 277.27 25.5686 276.746 25.1104C276.228 24.7053 275.703 24.5326 275.072 24.36C274.322 24.3002 273.744 24.5924 273.339 25.2233C273.226 25.4557 273.166 25.5686 273.047 25.8011C272.814 26.2659 272.701 26.7242 272.529 27.2488C272.183 28.577 271.951 29.9052 271.778 31.2931C271.605 32.6213 271.606 33.9495 271.546 35.2246C271.546 37.1903 271.659 39.0365 271.838 40.8893C271.898 41.6398 272.011 42.45 272.124 43.2004C272.236 43.7781 272.416 44.2961 272.701 44.8208C273.106 45.8036 273.97 46.2685 275.012 46.3814C275.59 46.4412 276.055 46.149 276.341 45.631C276.453 45.2856 276.686 44.9934 276.805 44.5883C277.728 40.1389 279.004 33.3784 283.161 29.0418C285.014 27.189 287.325 25.0506 289.808 23.9549C290.094 23.7888 290.38 23.7357 290.672 23.6162Z" fill="#B85459"/>
<path d="M304.14 28.65C303.847 28.5371 303.562 28.5371 303.27 28.5903C303.097 28.65 302.924 28.7629 302.865 28.9356C302.692 29.168 302.572 29.4536 302.4 29.686C300.952 32.3424 299.391 35.0055 297.778 37.5489C297.2 38.5318 296.502 39.5147 295.812 40.378C295.347 40.9557 294.889 41.5335 294.311 41.9984C294.198 42.0581 294.138 42.1113 294.025 42.171C293.966 42.0582 293.913 41.9386 293.853 41.8257C293.62 41.3077 293.507 40.73 293.388 40.2053C293.215 38.9303 293.155 37.6618 293.275 36.4465C293.335 35.9285 293.388 35.4637 293.567 34.9988C293.567 34.939 293.567 34.939 293.627 34.939C293.687 34.939 293.8 34.939 293.859 34.939C294.67 34.939 295.36 34.6535 295.998 34.1288C296.23 33.9562 296.463 33.7237 296.688 33.4913C297.379 32.6811 297.904 31.758 298.189 30.7751C298.422 30.1376 298.535 29.5067 298.482 28.8094C298.422 28.2317 298.309 27.7137 297.964 27.189C297.213 26.1464 296.17 25.6882 294.842 25.7413C294.092 25.8011 293.454 26.1464 292.877 26.6644C292.412 27.0695 292.013 27.5344 291.661 28.0523C291.143 28.9754 290.678 29.9052 290.333 30.8814C289.642 32.8471 289.237 34.866 289.35 37.011C289.35 37.3563 289.41 37.7017 289.463 38.1068C289.576 39.2623 289.868 40.3581 290.273 41.4007C290.506 42.0382 290.791 42.5562 291.256 43.0742C292.126 44.0571 293.222 44.4622 294.55 44.2895C295.128 44.2297 295.593 43.9973 296.051 43.652C296.569 43.2469 297.034 42.782 297.439 42.2042C297.844 41.5667 298.309 40.9292 298.714 40.2385C299.869 38.213 300.965 36.1344 302.121 34.1089C302.699 33.0663 303.217 31.9705 303.741 30.9279C304.086 30.3501 304.319 29.7126 304.611 29.1348C304.545 28.8758 304.372 28.7629 304.14 28.65ZM295.413 29.7458C295.473 30.4365 295.008 31.4193 294.318 32.2295C294.431 31.5389 295.061 30.204 295.413 29.7458Z" fill="#B85459"/>
<path d="M366.97 23.6162C367.202 23.5564 367.375 23.676 367.607 23.8486C367.78 23.9084 367.84 24.0213 368.012 24.081C368.245 24.1939 368.477 24.2537 368.65 24.194C368.823 24.1342 368.942 24.0811 368.995 23.9017C368.995 23.5564 368.882 23.4369 368.65 23.2642C367.959 22.5736 367.202 22.3411 366.219 22.3943C365.701 22.5072 365.237 22.6267 364.719 22.7993C358.821 25.9206 352.751 32.0502 353.103 39.0963C353.044 39.0963 352.991 39.0963 352.991 39.0963C353.05 38.1134 353.103 37.1903 353.163 36.2672C353.223 34.9922 353.276 33.7237 353.336 32.5084C353.396 31.3529 353.509 30.1974 353.681 29.0418C353.741 28.3512 353.741 27.6539 353.854 27.0164C353.854 26.2062 353.568 25.5686 353.044 25.1104C352.526 24.7053 352.001 24.5326 351.37 24.36C350.62 24.3002 350.042 24.5924 349.637 25.2233C349.524 25.4557 349.464 25.5686 349.351 25.8011C349.119 26.2659 349.006 26.7242 348.833 27.2488C348.614 28.0922 348.442 28.9422 348.302 29.8056C346.874 32.4221 345.34 35.0386 343.746 37.5357C343.169 38.5185 342.471 39.5014 341.781 40.3647C341.316 40.9425 340.858 41.5202 340.28 41.9851C340.167 42.0449 340.107 42.098 339.988 42.1578C339.928 42.0449 339.875 41.9253 339.815 41.8124C339.582 41.2944 339.47 40.7167 339.35 40.192C339.177 38.917 339.118 37.6485 339.237 36.4332C339.297 35.9153 339.35 35.4504 339.529 34.9855C339.529 34.9258 339.529 34.9258 339.589 34.9258C339.649 34.9258 339.762 34.9258 339.822 34.9258C340.632 34.9258 341.322 34.6402 341.96 34.1156C342.192 33.9429 342.425 33.7105 342.651 33.478C343.341 32.6678 343.866 31.7447 344.151 30.7619C344.384 30.1243 344.497 29.4934 344.437 28.7961C344.377 28.2184 344.264 27.7004 343.919 27.1757C343.169 26.1331 342.126 25.6749 340.798 25.728C340.047 25.7878 339.41 26.1331 338.832 26.6511C338.367 27.0562 337.962 27.5211 337.617 28.0391C337.364 28.4907 337.125 28.9356 336.906 29.3938C336.813 29.4602 336.72 29.5466 336.634 29.6528C336.521 29.8255 336.401 30.0579 336.289 30.2904C335.996 30.8083 335.771 31.333 335.478 31.851C334.608 33.5245 333.685 35.2047 332.59 36.7653C332.357 37.1704 332.012 37.5755 331.72 37.9806C331.66 38.0935 331.607 38.213 331.427 38.1533C331.142 37.5157 330.909 36.8251 330.737 36.0746C330.504 35.1516 330.272 34.1687 330.046 33.2456C329.986 32.8405 329.814 32.4952 329.641 32.1498C329.063 30.9345 327.443 30.7619 326.579 31.685C326.407 31.9174 326.174 32.1498 326.002 32.3756C325.191 33.4183 324.501 34.514 323.863 35.6695C323.804 35.7293 323.804 35.902 323.631 35.8422C323.631 35.6695 323.631 35.4969 323.631 35.2645C323.631 34.5738 323.691 33.9362 323.691 33.2389C323.691 31.851 323.75 30.463 323.804 29.0751C323.804 26.246 323.863 23.4103 323.916 20.5215C323.916 19.1933 323.976 17.8651 324.149 16.4771C324.321 15.149 324.494 13.8208 324.667 12.4328C324.899 10.9319 325.185 9.42444 325.417 7.86381C325.709 6.19029 326.055 4.51012 326.46 2.8366C326.52 2.66393 326.573 2.4315 326.692 2.25884C326.925 2.19907 327.21 2.19907 327.33 1.91351C327.443 1.68108 327.39 1.44864 327.39 1.22285C327.33 0.817747 327.157 0.472407 326.752 0.299742C326.174 -0.105357 325.132 -0.165121 324.501 0.53218C324.215 0.764614 323.983 1.05018 323.81 1.34238C323.405 2.03304 323.06 2.79011 322.768 3.54054C322.13 5.10116 321.672 6.72156 321.267 8.33532C320.516 11.4566 320.171 14.6907 319.879 17.8718C319.766 18.7351 319.646 19.6648 319.593 20.5281C319.48 21.5708 319.301 22.6665 319.188 23.7092C319.075 25.7878 318.956 27.873 318.956 29.8919C318.956 31.7978 318.956 33.7038 319.015 35.6164C319.128 37.0642 319.188 38.565 319.248 40.0061C319.361 41.3941 319.54 42.7222 319.766 44.0504C319.879 44.6282 319.998 45.206 320.171 45.724C320.284 46.1291 320.516 46.4146 320.862 46.5939C321.499 46.9393 322.137 46.9393 322.768 46.5939C323.113 46.481 323.345 46.1291 323.345 45.724C323.345 45.206 323.405 44.6813 323.458 44.1633C323.518 43.0078 323.75 41.912 323.976 40.8096C324.614 38.0935 325.829 35.6629 327.443 33.4116C327.503 33.2987 327.556 33.1792 327.728 33.0065C327.901 33.4714 327.961 33.8167 328.074 34.2218C328.306 35.2047 328.539 36.1875 328.884 37.1704C329.057 37.5755 329.229 38.0404 329.462 38.4986C329.754 39.0166 330.152 39.4217 330.737 39.6541C331.487 40.0592 332.238 39.9397 332.875 39.4217C333.22 39.1361 333.513 38.8439 333.745 38.4986C334.09 37.9208 334.383 37.4028 334.728 36.8782C334.921 36.5129 335.106 36.1411 335.299 35.7758C335.286 36.1809 335.279 36.586 335.306 36.9977C335.306 37.3431 335.365 37.6884 335.419 38.0935C335.531 39.249 335.824 40.3448 336.229 41.3874C336.461 42.025 336.747 42.5429 337.212 43.0609C338.082 44.0438 339.177 44.4489 340.506 44.2762C341.083 44.2165 341.548 43.984 342.006 43.6387C342.524 43.2336 342.989 42.7687 343.394 42.191C343.799 41.5534 344.264 40.9159 344.669 40.2253C345.759 38.3259 346.795 36.3735 347.877 34.4675C347.87 34.7132 347.864 34.959 347.85 35.198C347.85 37.1638 347.963 39.01 348.143 40.8628C348.202 41.6132 348.315 42.4234 348.435 43.1738C348.548 43.7516 348.72 44.2696 349.013 44.7942C349.418 45.7771 350.288 46.242 351.324 46.3549C351.901 46.4146 352.366 46.1224 352.652 45.6044C352.765 45.2591 352.997 44.9669 353.117 44.5618C354.04 40.1124 355.315 33.3519 359.472 29.0153C361.325 27.1625 363.636 25.0241 366.12 23.9283C366.392 23.7889 366.678 23.7357 366.97 23.6162ZM341.362 29.7458C341.422 30.4365 340.957 31.4193 340.266 32.2295C340.379 31.5389 341.017 30.204 341.362 29.7458Z" fill="#B85459"/>
<path d="M380.438 28.65C380.145 28.5371 379.86 28.5371 379.568 28.5903C379.395 28.65 379.222 28.7629 379.163 28.9356C378.99 29.168 378.87 29.4536 378.698 29.686C377.25 32.3424 375.689 35.0055 374.076 37.5489C373.498 38.5318 372.801 39.5147 372.11 40.378C371.645 40.9557 371.187 41.5335 370.609 41.9984C370.496 42.0581 370.436 42.1113 370.323 42.171C370.264 42.0582 370.211 41.9386 370.151 41.8257C369.918 41.3077 369.805 40.73 369.686 40.2053C369.513 38.9303 369.454 37.6618 369.573 36.4465C369.633 35.9285 369.686 35.4637 369.865 34.9988C369.865 34.939 369.865 34.939 369.925 34.939C369.985 34.939 370.098 34.939 370.157 34.939C370.968 34.939 371.658 34.6535 372.296 34.1288C372.528 33.9562 372.761 33.7237 372.987 33.4913C373.677 32.6811 374.202 31.758 374.487 30.7751C374.72 30.1376 374.833 29.5067 374.78 28.8094C374.72 28.2317 374.607 27.7137 374.262 27.189C373.511 26.1464 372.468 25.6882 371.14 25.7413C370.39 25.8011 369.752 26.1464 369.175 26.6644C368.71 27.0695 368.311 27.5344 367.959 28.0523C367.441 28.9754 366.976 29.9052 366.631 30.8814C365.94 32.8471 365.535 34.866 365.648 37.011C365.648 37.3563 365.708 37.7017 365.761 38.1068C365.874 39.2623 366.166 40.3581 366.571 41.4007C366.804 42.0382 367.089 42.5562 367.554 43.0742C368.424 44.0571 369.52 44.4622 370.848 44.2895C371.426 44.2297 371.891 43.9973 372.349 43.652C372.867 43.2469 373.332 42.782 373.737 42.2042C374.142 41.5667 374.607 40.9292 375.012 40.2385C376.168 38.213 377.263 36.1344 378.419 34.1089C378.997 33.0663 379.515 31.9705 380.039 30.9279C380.385 30.3501 380.617 29.7126 380.909 29.1348C380.843 28.8758 380.663 28.7629 380.438 28.65ZM371.705 29.7458C371.765 30.4365 371.3 31.4193 370.609 32.2295C370.722 31.5389 371.359 30.204 371.705 29.7458Z" fill="#B85459"/>
<path d="M384.25 39.6873C384.077 39.6276 384.017 39.5745 383.844 39.4549C383.612 39.342 383.38 39.2225 383.094 39.342C382.862 39.4018 382.629 39.5147 382.403 39.6276C381.939 40.0327 381.533 40.6104 381.361 41.1882C381.248 41.5933 381.248 41.8789 381.301 42.2308C381.533 43.1008 382.344 43.7317 383.267 43.3266C383.439 43.2668 383.612 43.2137 383.732 43.0942C384.137 42.7488 384.542 42.3437 384.827 41.8191C384.94 41.5867 385 41.3011 385 41.0089C385 40.4378 384.768 40.0327 384.25 39.6873Z" fill="#B85459"/>
</svg>
