<svg width="124" height="124" viewBox="0 0 124 124" fill="none" xmlns="http://www.w3.org/2000/svg">
<path d="M62.9 58.2C54.8 58.2 48.3 51.7 48.3 43.6C48.3 35.5 54.8 29 62.9 29C70.9 29 77.5 35.5 77.5 43.6C77.5 51.7 70.9 58.2 62.9 58.2ZM62.9 33C57.1 33 52.3 37.8 52.3 43.6C52.3 49.4 57.1 54.2 62.9 54.2C68.7 54.2 73.5 49.4 73.5 43.6C73.5 37.8 68.7 33 62.9 33Z" fill="#E8B67C"/>
<path d="M62.9 91C51.6 91 40 90.9999 40 78.5999C40 65.5999 50.7 54.2 62.9 54.2C75.1 54.2 85.8 65.5999 85.8 78.5999C85.8 90.9999 74.2 91 62.9 91ZM62.9 58.2C52.8 58.2 44 67.6999 44 78.5999C44 85.7999 48.5 87 62.9 87C77.3 87 81.8 85.7999 81.8 78.5999C81.8 67.6999 73 58.2 62.9 58.2Z" fill="#E8B67C"/>
<circle cx="62" cy="62" r="62" fill="#553B59" fill-opacity="0.05"/>
</svg>
