<svg width="355" height="120" viewBox="0 0 355 120" fill="none" xmlns="http://www.w3.org/2000/svg">
<path d="M15.8489 69.3696C18.1768 70.3007 20.3882 71.2318 22.8325 72.0465C25.8586 73.0941 28.8848 74.1416 32.1438 74.6072C35.17 75.0727 38.1962 75.6547 41.3387 76.0039C43.8994 76.3531 46.6928 76.7023 49.3698 76.8187C50.3009 76.8187 51.1157 76.8186 51.814 76.4694C52.1632 76.353 52.6288 76.3531 53.0943 76.3531C54.491 76.4695 55.655 77.1678 56.5861 78.2153C57.9828 79.9612 57.6336 81.7071 55.6549 82.5218C54.8402 82.871 54.1419 83.1038 53.2107 83.2202C50.4173 83.453 47.7403 83.453 44.9469 83.3366C44.3649 83.3366 43.8994 83.3366 43.5502 83.3366C40.1748 83.2202 36.9158 82.9874 33.5405 82.5218C31.329 82.289 29.1176 81.9399 26.9062 81.5907C23.298 81.1251 19.5735 80.194 15.8489 78.7973C15.4998 78.6809 15.0342 78.4481 14.5686 78.5645C14.5686 78.6809 14.5686 78.9137 14.5686 79.2629C14.5686 82.0563 14.685 84.7333 14.685 87.4103C14.8014 90.3201 14.685 93.2299 14.685 95.9069C14.5686 99.515 14.5686 103.123 14.685 106.731C14.8014 108.826 14.8014 110.805 14.8014 112.784C14.9178 113.482 14.9178 114.18 15.0342 114.879C15.3834 115.112 15.7326 115.228 15.9653 115.577C16.7801 116.275 16.8965 116.857 16.3145 117.672C15.4998 119.069 14.4522 120 12.8227 120C12.1244 120 11.5424 119.884 10.8441 119.767C9.44737 119.418 8.28348 118.487 7.81791 116.857C7.46873 115.577 7.11954 114.297 6.88675 113.016C6.42119 109.641 5.95561 106.382 5.60644 102.89C5.14087 100.097 4.55893 97.42 4.20975 94.5102C3.6278 91.3676 3.16221 88.1086 2.81304 84.8496C2.46386 82.289 2.1147 79.7284 1.88192 77.1678C1.76553 76.1203 1.64911 74.9564 1.53272 73.9089C1.41633 72.5122 1.41635 71.1154 1.29996 69.7187C1.29996 69.3695 1.18355 68.7876 0.950761 68.5548C0.83437 68.4384 0.834398 68.322 0.834398 68.2056C-0.0967368 66.4598 -0.445912 64.8303 0.834398 63.0844C0.834398 62.1533 0.834391 61.1057 0.717999 60.0582C0.717999 58.7779 0.6016 57.2648 0.6016 55.8681C0.368816 51.2124 0.368802 46.4404 0.368802 41.6683C0.368802 37.5946 0.485208 33.6372 0.6016 29.5635C0.834384 25.9554 1.18357 22.2308 1.41636 18.5063C1.64914 16.1785 1.99831 13.7343 2.46388 11.4064C2.58027 10.8245 2.69665 10.3589 2.81304 9.77691C3.16221 8.61299 4.09336 8.14742 5.25727 8.03103C6.18841 8.03103 7.11954 8.26382 8.05067 8.72939C9.79655 9.54413 10.9605 10.708 11.1933 12.6867C11.3097 13.8506 11.426 14.8982 11.5424 16.0621C11.6588 18.2735 11.6588 20.485 11.7752 22.6964C11.8916 25.7226 12.008 28.8652 12.1244 32.0078C12.1244 32.3569 12.008 32.8225 12.3572 33.1717C12.59 32.5897 12.7064 32.2406 13.0555 31.775C15.0342 26.8865 17.4784 22.3472 20.621 18.1571C23.88 13.6179 27.7209 9.66052 32.1438 6.28515C35.4028 4.07371 39.0109 2.09507 42.7355 0.931156C44.4813 0.465589 46.2272 0 48.0895 0C54.3746 0 59.4959 2.32786 63.3368 7.33271C65.0827 9.54415 65.8974 12.1048 66.363 14.6654C66.7122 18.1571 66.1302 21.7653 65.0827 25.1406C63.686 29.5635 61.5909 33.6373 58.7975 37.4782C54.2582 43.9961 48.555 49.5829 42.0371 54.2386C37.7306 57.4976 33.0749 60.1746 28.3028 62.6188C24.3455 64.5975 20.2718 66.4598 16.1981 68.0893C15.8489 68.2057 15.4998 68.322 15.267 68.5548C15.1506 68.5548 15.1506 68.5548 15.1506 68.6712C15.1506 69.2532 15.6162 69.2532 15.8489 69.3696ZM51.4649 10.3589C49.2534 10.708 47.2747 11.5228 45.2961 12.4539C41.2224 14.4326 37.7306 17.226 34.7044 20.485C31.329 23.9767 28.5356 27.9341 26.2078 32.2406C22.7161 38.7585 20.1554 45.742 18.1768 52.8419C18.1768 53.0747 18.1768 53.4239 18.0604 53.773C18.4096 53.6567 18.526 53.5402 18.8751 53.4239C20.2718 52.6091 21.6685 52.0271 23.0652 51.096C30.0487 47.0223 36.3339 42.1339 41.6879 36.0815C45.2961 31.8914 48.5551 27.3521 50.8829 22.2309C51.9304 19.903 52.7452 17.6916 53.2107 15.1309C53.4435 13.5015 53.6763 12.1048 53.2107 10.5917C52.5124 10.1261 51.9304 10.2425 51.4649 10.3589Z" fill="#F3F0E8"/>
<path d="M63.3368 72.3956C63.104 75.189 63.2204 77.9825 63.5696 80.8923C63.8024 82.0562 64.1515 83.3364 64.6171 84.6167C64.7335 84.8495 64.8499 85.0823 64.9663 85.4315C65.1991 85.3151 65.3155 85.1987 65.6646 85.0823C66.9449 84.0348 67.9925 82.7545 69.04 81.3578C70.6695 79.3791 72.1826 77.1677 73.4629 74.9562C77.0711 69.253 80.6792 63.2007 83.9382 57.1483C84.2873 56.6827 84.6365 55.9844 84.9857 55.4024C85.1021 55.0532 85.4512 54.7041 85.9168 54.5877C86.6152 54.4713 87.1971 54.4713 87.8955 54.7041C88.361 54.9368 88.8266 55.286 88.943 55.868C88.2447 57.1483 87.7791 58.6614 86.9644 59.9417C85.8004 62.2695 84.6365 64.8301 83.2398 67.158C80.6792 71.6973 78.1186 76.4693 75.5579 81.0086C74.6268 82.5217 73.5793 84.0348 72.6481 85.4315C71.717 86.7118 70.6695 87.7593 69.5056 88.6905C68.4581 89.5052 67.4105 89.9708 66.1302 90.0872C63.104 90.4364 60.6598 89.5053 58.6811 87.2938C57.6336 86.1299 56.9353 84.9659 56.4697 83.4528C55.5386 81.125 54.8402 78.5644 54.6074 76.0038C54.491 75.0727 54.3746 74.2579 54.3746 73.5595C54.1419 68.6711 55.073 64.1318 56.5861 59.7089C57.4008 57.4975 58.4484 55.4024 59.6123 53.3074C60.427 52.1435 61.3582 51.0959 62.4057 50.1648C63.686 49.0009 65.1991 48.1861 66.8286 48.0698C69.8547 47.9534 72.1826 49.0009 73.9285 51.3287C74.7432 52.4926 74.976 53.6566 75.0924 54.9369C75.2088 56.5663 74.976 57.963 74.394 59.3597C73.6957 61.5712 72.5318 63.6663 71.0187 65.5285C70.5531 66.1105 69.9711 66.5761 69.3892 66.9252C67.9925 68.0892 66.363 68.7875 64.5007 68.7875C64.3843 68.7875 64.1515 68.7875 64.0352 68.7875C63.9188 68.7875 63.9188 68.7875 63.9188 68.9038C63.686 70.0678 63.4532 71.1153 63.3368 72.3956ZM68.2253 57.1483C67.4105 58.1958 66.0138 61.222 65.781 62.7351C67.2941 60.9892 68.3417 58.7778 68.2253 57.1483Z" fill="#F3F0E8"/>
<path d="M100.117 82.5218C99.0691 80.194 97.7888 77.8662 96.0429 75.8875C94.7626 74.258 93.3659 72.8614 92.0856 71.3483C90.5725 69.6024 88.943 67.9729 87.5463 65.9942C85.6841 63.4336 84.171 60.5238 83.2398 57.3812C81.8431 52.4928 82.1923 47.7207 83.9382 42.8323C84.8693 40.2716 86.1496 37.5946 88.1283 35.3831C89.1758 34.1028 90.3397 33.0553 91.9692 32.2406C94.7626 30.9603 97.556 30.9603 100.349 32.357C100.815 32.7062 101.397 33.0553 101.746 33.5209C103.376 34.9176 103.608 36.5471 102.561 38.5257C101.513 39.2241 100.466 38.6421 99.4183 38.2929C99.1855 38.4093 99.0691 38.6421 98.8363 38.9913C98.4871 39.6897 98.0216 40.2716 97.6724 41.0864C96.3921 44.229 95.4609 47.4879 95.2282 50.8633C94.9954 54.355 95.461 57.9632 97.0904 61.2222C97.9052 62.8516 98.7199 64.2483 99.7675 65.645C100.931 67.2745 102.095 68.7876 103.143 70.1843C104.307 71.8138 105.354 73.3269 106.518 74.84C106.635 75.0728 106.751 75.1892 106.867 75.422C107.217 75.422 107.566 75.0728 107.799 74.7236C111.407 71.1154 115.248 67.3909 119.205 63.8992C121.184 62.0369 123.395 60.4074 125.606 58.5452C126.538 57.7304 127.702 57.1484 128.749 56.3337C129.68 55.7517 130.495 55.7517 131.31 56.2173C132.124 56.7993 132.241 57.3812 131.542 58.0796C131.31 58.1959 131.193 58.3123 130.844 58.6615C128.749 60.0582 126.887 61.6877 124.908 63.3172C120.369 67.5073 116.062 71.8138 111.872 76.2367C110.825 77.4006 109.894 78.5645 108.846 79.8448C108.962 80.0776 109.079 80.5432 109.195 80.776C110.592 84.2677 111.174 88.1087 111.174 91.9496C111.174 95.7906 110.825 99.2823 109.544 103.007C109.195 104.171 108.613 105.335 107.915 106.499C107.333 107.43 106.867 108.244 106.053 108.943C103.841 110.805 101.513 111.503 98.7199 110.689C97.4396 110.34 96.3921 109.525 95.5774 108.361C94.9954 107.546 94.7626 106.615 94.5298 105.917C93.8315 103.472 93.8315 100.912 94.1806 98.4675C94.7626 93.4627 96.6249 88.9234 99.4183 84.6169C99.6511 84.2677 99.7675 83.8021 100.233 83.453C100.349 82.9874 100.349 82.6382 100.117 82.5218ZM102.444 90.6693C102.444 90.7857 102.328 91.0185 102.212 91.1349C101.397 92.9971 100.815 94.9758 100.233 96.7217C99.8839 98.7003 99.4183 100.563 99.5347 102.425C99.6511 103.589 99.8838 104.753 100.466 105.917C100.582 106.033 100.582 106.266 100.815 106.266C101.397 105.917 101.63 105.218 101.863 104.52C102.444 102.774 102.794 101.145 102.794 99.3987C102.91 97.3036 102.91 95.2086 102.91 93.2299C102.91 92.2988 102.794 91.2512 102.677 90.3201C102.561 90.6693 102.561 90.6693 102.444 90.6693Z" fill="#F3F0E8"/>
<path d="M147.255 57.1483C147.488 60.2909 147.255 63.4334 147.023 66.576C146.673 69.6022 146.091 72.6285 145.277 75.6546C144.695 77.4005 144.346 79.03 143.414 80.6595C143.065 81.5906 142.6 82.4054 142.134 82.9873C140.272 85.5479 137.944 86.3627 134.918 85.8971C132.59 85.5479 130.844 84.1512 129.68 82.1726C128.516 80.1939 127.818 78.0989 127.469 76.0038C126.887 73.094 126.77 70.1842 126.887 67.3908C127.469 61.3384 128.749 55.5188 131.193 49.8156C132.008 47.7206 133.056 45.8583 134.336 43.996C134.918 43.2977 135.383 42.5993 136.082 41.901C138.06 39.8059 140.737 40.0387 142.6 41.319C143.531 42.0174 143.996 43.0649 143.88 44.2288C143.764 44.6944 143.764 45.2763 143.764 45.9747C143.764 46.5566 143.647 46.9058 143.065 47.255C145.859 50.1648 146.79 53.5402 147.255 57.1483ZM138.293 78.3316C139.108 76.9349 139.69 75.1891 140.272 73.676C141.552 69.9514 142.25 66.3433 142.6 62.6187C142.832 60.4073 143.182 58.1958 142.716 55.7516C142.483 54.0057 142.018 52.2598 141.087 50.6304C141.087 50.514 140.854 50.2812 140.737 49.932C140.621 50.2812 140.505 50.6304 140.388 50.8632C139.457 53.4238 138.759 56.2172 138.177 59.0106C137.362 62.1532 136.78 65.4121 136.547 68.7875C136.431 71.1153 136.431 73.5595 136.547 75.8874C136.547 77.1677 136.664 78.3316 137.013 79.8447C137.711 79.3792 138.06 78.9136 138.293 78.3316Z" fill="#F3F0E8"/>
<path d="M168.439 73.9084C169.603 72.2789 170.65 70.7658 171.698 69.02C173.793 65.761 175.655 62.3856 177.168 58.8938C177.866 57.7299 178.332 56.6824 178.914 55.5185C179.147 54.9365 179.612 54.471 179.845 53.7726C180.543 52.4923 181.707 51.9103 183.104 51.9103C184.152 51.7939 185.199 52.1431 186.13 52.7251C186.945 53.3071 187.41 53.889 187.527 54.8201C187.643 55.5185 187.76 55.9841 187.76 56.566C187.76 58.6611 187.76 60.6397 187.76 62.6184C187.76 66.5757 187.76 70.533 187.76 74.2576C187.76 77.7493 187.992 81.3575 188.574 84.8492C188.691 86.8279 189.156 88.9229 189.622 90.9016C189.738 91.1344 189.738 91.4836 189.855 91.7164C190.087 91.6 190.204 91.4836 190.437 91.1344C191.484 89.3885 192.299 87.6426 192.997 85.7803C194.976 80.8919 196.489 76.1198 198.235 71.115C199.515 66.9249 200.796 62.6184 202.309 58.4283C202.425 57.8463 202.309 57.2644 202.425 56.6824C203.007 55.8677 203.705 55.7513 204.636 55.7513C205.451 55.7513 206.15 55.984 206.615 56.9152C206.615 57.148 206.615 57.7299 206.499 58.0791C204.52 65.179 202.541 72.2789 200.563 79.2624C199.632 82.5214 198.351 85.664 196.955 88.8066C196.256 90.2033 195.674 91.7163 194.743 92.9966C193.928 94.1606 192.997 95.2081 191.717 96.0229C190.553 96.4884 189.506 96.954 188.225 96.8376C187.061 96.8376 186.13 96.4884 185.315 95.6736C184.617 94.9753 184.268 94.3933 183.919 93.5786C183.22 92.4147 182.755 91.1344 182.289 89.9705C181.591 87.4099 181.125 84.6164 180.66 81.9394C180.311 79.146 179.961 76.3526 179.729 73.4428C179.729 72.1625 179.612 70.6494 179.612 69.3691C179.612 69.0199 179.612 68.5544 179.612 67.9724C179.379 68.5544 179.263 68.6708 179.03 68.7872C178.099 70.4166 177.284 71.9298 176.47 73.3265C175.655 74.4904 175.073 75.6543 174.142 76.8182C173.56 77.7494 172.862 78.5641 172.047 79.2624C170.301 80.8919 168.089 81.5903 165.762 81.4739C162.386 81.2411 159.826 79.4952 158.429 76.469C157.498 74.6067 157.032 72.6281 156.567 70.6494C155.868 67.0413 155.752 63.2003 156.101 59.3594C156.334 56.9152 156.799 54.3546 157.381 52.0267C157.614 51.0956 157.847 50.2809 158.196 49.6989C158.895 48.3022 159.942 47.4874 161.455 47.2547C163.085 47.1383 164.598 47.371 165.994 48.1858C167.158 48.8841 167.857 49.8153 167.973 51.212C168.089 52.4923 168.089 54.0054 167.973 55.4021C167.857 57.6135 167.74 59.825 167.624 61.92C167.508 63.5495 167.391 65.179 167.275 66.8085C167.158 69.2527 167.042 71.9297 167.508 74.7231C167.857 74.4903 168.089 74.1412 168.439 73.9084Z" fill="#F3F0E8"/>
<path d="M239.787 41.4358C240.951 41.0867 241.998 40.7375 243.162 40.5047C245.374 40.3883 247.119 40.8539 248.633 42.4833C249.215 42.8325 249.447 43.1817 249.447 43.8801C249.331 44.2292 249.098 44.3456 248.633 44.5784C248.283 44.6948 247.702 44.5784 247.236 44.3456C246.887 44.2292 246.654 43.9965 246.305 43.7637C245.723 43.4145 245.374 43.0653 244.908 43.2981C244.21 43.5309 243.628 43.6473 242.929 44.1128C237.343 46.5571 232.105 51.4455 227.915 55.6356C218.487 65.4126 215.577 80.7763 213.482 90.9024C213.25 91.8335 212.668 92.5318 212.435 93.2302C211.736 94.3941 210.689 95.0925 209.409 94.9761C207.081 94.7433 205.102 93.6958 204.171 91.4843C203.473 90.3204 203.123 89.1565 202.891 87.7598C202.658 86.0139 202.309 84.268 202.192 82.5221C201.843 78.332 201.494 74.1419 201.494 69.719C201.61 66.8092 201.61 63.7831 202.076 60.8733C202.425 57.7307 203.007 54.7045 203.822 51.6783C204.171 50.5144 204.52 49.4669 204.986 48.4193C205.218 47.8374 205.335 47.6046 205.684 47.139C206.615 45.7423 207.895 45.044 209.641 45.1604C211.038 45.5096 212.202 45.9751 213.482 46.9063C214.646 47.9538 215.345 49.3505 215.345 51.2127C215.112 52.6094 215.112 54.2389 214.995 55.752C214.646 58.3126 214.297 60.9897 214.181 63.6667C214.064 66.4601 213.948 69.2535 213.831 72.1633C213.715 74.2584 213.599 76.3534 213.482 78.5649C213.482 78.5649 213.599 78.5649 213.715 78.5649C212.668 62.3864 226.402 48.5357 239.787 41.4358Z" fill="#F3F0E8"/>
<path d="M270.398 52.4929C269.583 52.2601 269.118 51.6782 268.652 51.0962C268.303 50.2815 268.07 49.3503 268.07 48.652C267.954 47.3717 267.954 46.0913 267.837 44.6946C267.721 43.6471 267.488 42.716 267.139 41.7848C267.139 41.6685 267.023 41.4357 266.906 41.0865C266.673 41.3193 266.441 41.4357 266.091 41.7848C264.927 42.716 263.996 43.7635 263.065 44.9274C260.621 48.1864 258.642 51.7946 257.013 55.4027C254.801 60.7567 253.172 66.2271 252.357 72.0467C251.542 76.4696 251.193 80.8925 251.31 85.4318C251.426 88.2252 251.659 90.9022 252.357 93.6957C252.59 94.6268 252.939 95.5579 253.172 96.2562C253.405 96.7218 253.754 97.3038 253.987 97.8857C254.336 97.7693 254.685 97.7693 254.801 97.6529C255.616 97.3038 256.198 96.7218 256.896 96.2562C258.293 95.0923 259.341 93.6956 260.505 92.1825C264.346 87.0613 267.837 81.7073 270.863 76.1204C273.89 70.7664 276.799 65.296 279.244 59.5928C279.477 59.0109 279.826 58.5453 280.175 58.1961C280.873 57.1486 282.386 57.0322 283.317 57.8469C283.55 58.0797 283.667 58.5453 283.55 58.8945C283.55 58.8945 283.55 59.0109 283.434 59.1273C279.127 69.137 274.122 78.7975 268.885 88.3416C267.605 90.553 266.324 92.7645 264.811 94.8596C263.996 96.1399 262.949 97.3038 261.901 98.7005C260.97 99.748 259.923 100.563 258.759 101.261C255.267 103.356 250.146 103.007 247.003 99.5152C246.072 98.5841 245.257 97.5366 244.792 96.3727C243.744 94.2776 242.929 92.0661 242.464 89.7383C241.533 85.781 241.184 81.7072 241.3 77.8663C241.3 67.7402 243.511 58.3125 248.283 49.4667C249.913 46.4405 251.542 43.6471 253.754 41.3193C255.034 39.5734 256.547 38.2931 258.177 37.1292C259.108 36.4308 260.039 35.9653 260.97 35.4997C264.113 34.2194 267.139 34.4522 270.049 36.3145C272.377 37.9439 273.773 40.1554 274.006 42.8324C274.122 44.2291 274.122 45.7422 273.89 47.0225C273.54 48.5356 273.191 50.0487 272.959 51.4454C272.842 51.7946 272.726 52.1437 272.609 52.3765C271.795 52.8421 271.096 52.7257 270.398 52.4929Z" fill="#F3F0E8"/>
<path d="M286.111 72.3956C285.878 75.189 285.994 77.9825 286.344 80.8923C286.576 82.0562 286.809 83.3364 287.391 84.6167C287.507 84.8495 287.624 85.0823 287.74 85.4315C287.973 85.3151 288.089 85.1987 288.439 85.0823C289.719 84.0348 290.766 82.7545 291.814 81.3578C293.443 79.3791 294.957 77.1677 296.237 74.9562C299.961 69.253 303.453 63.2007 306.712 57.1483C307.061 56.6827 307.41 55.9844 307.76 55.4024C307.876 55.0532 308.342 54.7041 308.691 54.5877C309.389 54.4713 309.971 54.4713 310.669 54.7041C311.251 54.9368 311.601 55.286 311.717 55.868C311.019 57.1483 310.553 58.6614 309.738 59.9417C308.574 62.2695 307.41 64.8301 306.014 67.158C303.453 71.6973 300.893 76.4693 298.332 81.0086C297.401 82.5217 296.353 84.0348 295.422 85.4315C294.491 86.7118 293.443 87.7593 292.28 88.6905C291.232 89.5052 290.184 89.9708 288.904 90.0872C285.878 90.4364 283.434 89.5053 281.455 87.2938C280.408 86.1299 279.709 84.9659 279.244 83.4528C278.313 81.125 277.614 78.5644 277.381 76.0038C277.265 75.0727 277.149 74.2579 277.149 73.5595C276.916 68.6711 277.847 64.1318 279.36 59.7089C280.175 57.4975 281.222 55.4024 282.386 53.3074C283.201 52.1435 284.132 51.0959 285.18 50.1648C286.46 49.0009 287.973 48.1861 289.603 48.0698C292.629 47.9534 294.957 49.0009 296.702 51.3287C297.517 52.4926 297.75 53.6566 297.866 54.9369C297.983 56.5663 297.75 57.963 297.168 59.3597C296.47 61.5712 295.306 63.6663 293.793 65.5285C293.211 66.1105 292.745 66.5761 292.28 66.9252C290.883 68.0892 289.253 68.7875 287.391 68.7875C287.275 68.7875 287.042 68.7875 286.809 68.7875C286.693 68.7875 286.693 68.7875 286.693 68.9038C286.344 70.0678 286.227 71.1153 286.111 72.3956ZM290.999 57.1483C290.184 58.1958 288.788 61.222 288.555 62.7351C290.068 60.9892 291.116 58.7778 290.999 57.1483Z" fill="#F3F0E8"/>
<path d="M322.891 82.5218C321.843 80.194 320.563 77.8662 318.817 75.8875C317.537 74.258 316.256 72.8614 314.86 71.3483C313.346 69.6024 311.717 67.9729 310.32 65.9942C308.458 63.4336 306.945 60.5238 306.014 57.3812C304.617 52.4928 304.966 47.7207 306.712 42.8323C307.643 40.2716 308.924 37.5946 310.902 35.3831C311.95 34.1028 313.114 33.0553 314.743 32.2406C317.537 30.9603 320.33 30.9603 323.123 32.357C323.705 32.7062 324.171 33.0553 324.52 33.5209C326.033 34.9176 326.382 36.5471 325.335 38.5257C324.287 39.2241 323.24 38.6421 322.192 38.2929C321.959 38.4093 321.843 38.6421 321.727 38.9913C321.378 39.6897 320.912 40.2716 320.563 41.0864C319.282 44.229 318.351 47.4879 318.118 50.8633C317.886 54.355 318.351 57.9632 319.981 61.2222C320.796 62.8516 321.494 64.2483 322.541 65.645C323.705 67.2745 324.869 68.7876 325.917 70.1843C327.081 71.8138 328.128 73.3269 329.292 74.84C329.409 75.0728 329.525 75.1892 329.641 75.422C329.99 75.422 330.34 75.0728 330.572 74.7236C334.297 71.1154 338.022 67.3909 341.979 63.8992C343.957 62.0369 346.169 60.4074 348.38 58.5452C349.312 57.7304 350.475 57.1484 351.523 56.3337C352.454 55.7517 353.269 55.7517 354.084 56.2173C354.898 56.7993 355.015 57.3812 354.316 58.0796C354.084 58.1959 353.967 58.3123 353.618 58.6615C351.523 60.0582 349.661 61.6877 347.682 63.3172C343.143 67.5073 338.72 71.8138 334.646 76.2367C333.599 77.4006 332.668 78.5645 331.62 79.8448C331.736 80.0776 331.853 80.5432 331.969 80.776C333.366 84.2677 333.948 88.1087 333.948 91.9496C333.948 95.7906 333.599 99.2823 332.318 103.007C331.969 104.171 331.387 105.335 330.805 106.499C330.223 107.43 329.758 108.244 328.943 108.943C326.731 110.805 324.404 111.503 321.61 110.689C320.33 110.34 319.282 109.525 318.468 108.361C317.886 107.546 317.653 106.615 317.42 105.917C316.722 103.472 316.722 100.912 317.071 98.4675C317.537 93.4627 319.515 88.9234 322.309 84.6169C322.541 84.2677 322.658 83.8021 323.123 83.453C323.007 82.9874 323.007 82.6382 322.891 82.5218ZM325.102 90.6693C325.102 90.7857 324.986 91.0185 324.869 91.1349C324.054 92.9971 323.473 94.9758 322.891 96.7217C322.541 98.7003 322.076 100.563 322.192 102.425C322.309 103.589 322.541 104.753 323.123 105.917C323.24 106.033 323.24 106.266 323.473 106.266C323.938 105.917 324.287 105.218 324.52 104.52C325.102 102.774 325.451 101.145 325.451 99.3987C325.568 97.3036 325.568 95.2086 325.568 93.2299C325.568 92.2988 325.451 91.2512 325.335 90.3201C325.218 90.6693 325.218 90.6693 325.102 90.6693Z" fill="#F3F0E8"/>
</svg>
