<svg width="105" height="105" viewBox="0 0 105 105" fill="none" xmlns="http://www.w3.org/2000/svg">
<path d="M51.6736 104.353C44.792 104.353 38.2096 103.007 32.076 100.463C28.6352 99.1171 25.0448 98.5187 21.604 98.8179L7.99041 100.015C6.94321 100.164 6.04561 99.7155 5.29761 98.9675C4.54961 98.2195 4.25041 97.3219 4.25041 96.2747L5.44719 82.6611C5.74639 79.2203 5.14801 75.6299 3.80161 72.1891C0.211207 62.7643 -0.836002 53.3395 0.659998 44.0643C3.8016 22.2227 21.4544 4.27069 43.296 0.680291C60.3504 -2.01251 77.1056 3.37309 89.0736 15.3411C101.042 27.3091 106.278 43.7651 103.585 60.5203C99.9944 82.6611 82.0424 100.463 60.0512 103.605C57.3584 104.203 54.516 104.353 51.6736 104.353ZM23.5488 92.0859C27.2888 92.0859 31.0288 92.8339 34.7688 94.3299C42.2488 97.6211 50.776 98.5187 59.3032 97.1723C78.452 94.3299 94.0104 78.9211 97.152 59.6227C99.5456 44.9619 94.908 30.6003 84.436 20.2779C73.964 9.80589 59.4528 5.16829 44.4928 7.41229C25.4936 10.5539 10.2344 26.1123 7.392 45.2611C6.0456 53.3395 7.09281 61.5675 10.2344 69.9451C12.0296 74.2835 12.7776 79.0707 12.3288 83.5587L11.5808 93.1331L21.1552 92.3851C21.9032 92.0859 22.6512 92.0859 23.5488 92.0859ZM74.4128 62.3155C68.8776 62.3155 64.24 57.8275 64.24 52.1427C64.24 46.6075 68.728 41.9699 74.4128 41.9699C79.948 41.9699 84.5856 46.4579 84.5856 52.1427C84.5856 57.8275 80.0976 62.3155 74.4128 62.3155ZM74.4128 48.8515C72.468 48.8515 70.972 50.3475 70.972 52.2923C70.972 54.2371 72.468 55.7331 74.4128 55.7331C76.3576 55.7331 77.8536 54.2371 77.8536 52.2923C77.8536 50.3475 76.3576 48.8515 74.4128 48.8515ZM52.272 62.3155C46.7368 62.3155 42.0992 57.8275 42.0992 52.1427C42.0992 46.6075 46.5872 41.9699 52.272 41.9699C57.8072 41.9699 62.4448 46.4579 62.4448 52.1427C62.4448 57.8275 57.8072 62.3155 52.272 62.3155ZM52.272 48.8515C50.3272 48.8515 48.8312 50.3475 48.8312 52.2923C48.8312 54.2371 50.3272 55.7331 52.272 55.7331C54.2168 55.7331 55.7128 54.2371 55.7128 52.2923C55.7128 50.3475 54.2168 48.8515 52.272 48.8515ZM29.9816 62.3155C24.4464 62.3155 19.8088 57.8275 19.8088 52.1427C19.8088 46.6075 24.2968 41.9699 29.9816 41.9699C35.6664 41.9699 40.1544 46.4579 40.1544 52.1427C40.1544 57.8275 35.6664 62.3155 29.9816 62.3155ZM29.9816 48.8515C28.0368 48.8515 26.5408 50.3475 26.5408 52.2923C26.5408 54.2371 28.0368 55.7331 29.9816 55.7331C31.9264 55.7331 33.4224 54.2371 33.4224 52.2923C33.4224 50.3475 31.9264 48.8515 29.9816 48.8515Z" fill="#2A1C2D"/>
</svg>
