<svg width="132" height="90" viewBox="0 0 132 90" fill="none" xmlns="http://www.w3.org/2000/svg">
<path fill-rule="evenodd" clip-rule="evenodd" d="M65.1802 0.47998C64.2826 0.47998 63.5346 0.779199 62.9362 1.5272C56.653 8.5584 52.0154 15.5896 49.173 22.7704C42.7402 17.684 34.6618 13.6448 25.0874 10.5032C23.4418 10.0544 21.7962 10.8024 21.3474 12.448C21.3474 12.5976 21.3474 12.5976 21.3474 12.7472C18.8042 24.5656 18.6546 35.1872 21.497 44.4624C15.513 44.3128 9.22983 45.0608 2.34823 46.5568C0.702634 46.856 -0.344566 48.5016 0.104234 50.1472C0.104234 50.2968 0.104234 50.2968 0.104234 50.4464C5.19063 66.1544 13.1194 77.6737 24.3394 83.9568C35.4098 90.2401 49.3226 91.4369 65.7786 87.6968C82.2346 91.4369 96.1474 90.2401 107.218 83.9568C118.438 77.524 126.367 66.1544 131.453 50.4464C131.902 48.8008 131.154 47.1552 129.508 46.7064C129.359 46.7064 129.359 46.7064 129.209 46.7064C122.178 45.2104 115.595 44.4624 109.462 44.612C112.155 35.3368 112.155 24.7152 109.611 12.8968C109.312 11.2512 107.667 10.204 106.021 10.6528C105.871 10.6528 105.871 10.6528 105.722 10.6528C95.9978 13.6448 87.9194 17.684 81.6362 22.92C78.6442 15.7392 73.857 8.70796 67.4242 1.67676C66.8258 0.928762 66.0778 0.47998 65.1802 0.47998ZM65.1802 8.10954C74.4554 19.0303 79.093 29.652 79.3922 39.8248C79.6914 50.1472 75.5026 60.4696 66.2274 71.0912C56.653 60.1704 52.0154 49.5488 52.0154 39.2264C51.8658 28.904 56.2042 18.5815 65.1802 8.10954ZM26.2842 17.3848C34.961 20.5264 41.8426 24.4159 47.0786 29.0535C46.3306 32.4943 45.8818 35.9352 45.8818 39.376C45.8818 43.864 46.6298 48.2024 48.1258 52.6904C46.929 51.7928 45.5826 51.0448 44.2362 50.2968C39.2994 47.604 33.7642 45.8088 27.7802 45.0608C24.9378 37.132 24.489 28.0064 26.2842 17.3848ZM104.226 17.3848C106.171 28.156 105.722 37.2816 102.879 45.0608C97.045 45.8088 91.809 47.604 87.0218 50.1472C85.825 50.7456 84.7778 51.4935 83.7306 52.2415C84.9274 48.0527 85.3762 44.0136 85.3762 39.8248C85.2266 36.2344 84.7778 32.644 83.7306 28.904C88.817 24.2664 95.6986 20.3768 104.226 17.3848ZM19.7018 50.4464C28.0794 50.4464 35.2602 52.092 41.2442 55.3832C50.2202 60.32 57.1018 69.1465 61.7394 82.4609C47.3778 85.3033 36.0082 83.9568 27.0322 78.8704C18.0562 73.784 11.3242 64.808 6.68664 51.7928C11.3242 50.8952 15.6626 50.4464 19.7018 50.4464ZM111.556 50.4464C115.595 50.4464 119.934 50.8952 124.571 51.7928C119.934 64.808 113.052 73.784 104.226 78.8704C95.2498 83.9568 83.8802 85.3033 69.5186 82.4609C74.0066 69.1465 80.8882 60.32 90.0138 55.3832C95.9978 51.9424 103.179 50.2968 111.556 50.4464Z" fill="#2A1C2D"/>
</svg>
