<svg width="292" height="120" viewBox="0 0 292 120" fill="none" xmlns="http://www.w3.org/2000/svg">
<path d="M26.6395 49.2699C28.6193 46.547 30.2249 43.7047 31.9606 40.7323C34.434 36.4038 36.9074 31.9506 39.0119 27.2479C40.3734 24.2809 41.6101 21.1838 42.4779 17.9673C42.9715 15.9875 43.3458 14.0077 43.3458 11.9031C43.3458 11.4095 43.4706 10.9159 43.2211 10.2921C42.2339 10.4169 41.4908 10.7857 40.6229 11.0352C37.9 12.1472 35.5513 13.7581 33.322 15.6132C29.9808 18.3361 27.1385 21.5526 24.7845 25.0132C20.3313 31.3214 17.1148 38.1287 15.2597 45.5489C14.6414 48.1471 14.2725 50.7452 14.023 53.3434C13.7735 57.4277 14.1478 61.3873 15.2597 65.2222C16.6212 70.0497 18.9698 74.3781 22.5606 78.0882C24.1715 79.6992 25.7771 81.3047 27.5074 82.7909C29.2377 84.5212 31.0927 86.1322 32.8284 87.7377C34.933 89.7175 36.9128 91.8221 38.6431 94.046C39.755 95.6515 40.6229 97.2625 41.366 98.9928C42.9715 103.202 42.6027 107.156 40.3734 110.991C39.5055 112.477 38.3936 113.839 37.0321 115.075C34.3092 117.305 31.3422 118.91 27.8762 119.653C25.8964 120.022 23.7919 120.147 21.6927 119.778C19.5936 119.409 17.6084 118.91 15.6286 117.798C14.1424 117.055 12.9057 116.068 11.7937 114.831C9.32031 112.108 7.70935 108.892 6.84691 105.306C6.5974 104.319 6.47807 103.451 6.47807 102.459C6.47807 100.11 6.47807 97.8808 6.60283 95.6569C6.60283 93.8019 6.72758 92.0716 7.22118 90.3359C7.34593 89.8423 7.47069 89.3487 7.71478 88.8497C8.20837 87.2441 9.32031 86.501 10.9313 86.501C12.0432 86.3763 13.1606 86.7505 14.023 87.3689C14.3919 87.6184 14.6414 87.9872 14.8909 88.356C15.2597 88.8496 15.1404 89.3487 14.6414 89.8423C14.5166 90.0918 14.2725 90.2111 14.023 90.3359C13.7735 92.4404 13.7735 94.4202 14.023 96.4C14.1478 97.3872 14.2725 98.5046 14.3919 99.4918C14.6414 101.347 15.0102 103.077 15.8781 104.688C16.3717 106.174 17.1148 107.536 17.8579 108.772C18.2267 109.516 18.7257 110.134 19.2193 110.752C19.4688 111.121 19.9624 111.495 20.3313 111.864C21.8175 113.101 22.0616 112.976 23.5478 112.358C26.6395 110.872 28.6193 108.398 29.4872 105.057C30.1055 102.708 29.7367 100.479 28.6193 98.2551C27.7515 96.5248 26.6395 94.9138 25.2781 93.5524C23.2983 91.323 21.1937 89.468 18.9698 87.4882C16.6212 85.5084 14.3919 83.4038 12.168 81.1799C9.07623 77.9634 6.47807 74.4974 4.37352 70.6626C2.39371 66.8277 1.15701 62.7434 0.538665 58.5397C0.0450698 55.5727 -0.0796869 52.6003 0.0450678 49.5085C0.538663 42.0829 2.39371 35.0315 5.61021 28.2297C7.71477 23.6517 10.3129 19.3233 13.5294 15.3637C15.8781 12.3967 18.4762 9.67379 21.3239 7.31973C24.4156 4.72157 27.8816 2.74176 31.7165 1.38031C34.1899 0.39312 36.9128 -0.105904 39.6357 0.0188509C44.7073 0.387691 48.9164 2.49226 52.1329 6.57662C53.6191 8.68118 54.4815 11.0298 54.6063 13.628C54.731 16.1014 54.3568 18.5748 53.6191 20.9288C53.0007 22.9086 52.2576 24.7637 51.3898 26.7435C48.7916 32.3086 45.4504 37.6297 41.865 42.7012C39.8852 45.4241 37.7807 48.1471 35.432 50.4957C34.0706 51.8572 32.7091 53.2186 31.1036 54.2058C30.4852 54.6994 29.7421 55.0737 28.999 55.3177C27.7623 55.8113 26.5256 55.8113 25.2889 55.4425C24.6706 55.193 24.0522 54.9489 23.5586 54.3306C23.3091 54.081 23.065 53.837 22.9403 53.5875C22.6908 52.9691 22.8155 52.3508 23.4339 52.1012C23.8027 51.8517 24.3017 51.7324 24.6706 51.6076C25.5276 51.0001 26.1459 50.1323 26.6395 49.2699Z" fill="#F3F0E8"/>
<path d="M54.7256 71.0422C54.4761 73.6404 54.6009 76.3633 54.9751 79.0862C55.2246 80.1982 55.4687 81.4349 55.9623 82.5522C56.0871 82.8018 56.2118 83.0458 56.3311 83.2953C56.5807 83.1706 56.7 83.0458 56.9495 82.9265C58.1862 81.9393 59.1788 80.6972 60.166 79.4605C61.6522 77.6054 63.133 75.5009 64.3697 73.3963C67.8357 67.9505 71.1715 62.2606 74.2687 56.5707C74.6375 56.0771 74.8871 55.4588 75.2559 54.9598C75.3806 54.5909 75.7495 54.3414 76.1238 54.2166C76.7421 54.0919 77.3605 54.0919 77.9788 54.3414C78.4724 54.5909 78.8467 54.835 78.966 55.4533C78.3476 56.69 77.8541 58.0515 77.1109 59.2882C75.999 61.5175 74.8816 63.8661 73.6449 66.09C71.1715 70.4185 68.8175 74.8717 66.3441 79.2055C65.4762 80.6917 64.489 82.0532 63.6212 83.4147C62.7533 84.6514 61.7661 85.644 60.6542 86.5064C59.667 87.2495 58.6744 87.7431 57.4377 87.8679C54.59 88.2367 52.2414 87.3743 50.3863 85.2697C49.3991 84.1578 48.7753 83.0404 48.2818 81.6844C47.4139 79.455 46.7955 77.1064 46.5515 74.633C46.4267 73.7652 46.302 73.0221 46.302 72.2844C46.0524 67.7064 46.9203 63.378 48.4065 59.1688C49.1496 57.0643 50.1368 55.0845 51.2542 53.1047C51.9973 51.9927 52.8597 51.0001 53.8523 50.1377C55.089 49.0258 56.4505 48.2826 58.0614 48.1579C60.9091 48.0331 63.133 49.0258 64.744 51.2496C65.4871 52.3616 65.7311 53.479 65.8559 54.7157C65.9807 56.2019 65.7311 57.5633 65.2376 58.9194C64.6192 61.0239 63.5073 63.0037 62.021 64.734C61.5275 65.2276 61.0339 65.7212 60.5348 66.0955C59.1734 67.2074 57.6872 67.8257 55.9569 67.8257C55.8321 67.8257 55.588 67.8257 55.4633 67.8257C55.3385 67.8257 55.3385 67.8257 55.3385 67.9505C54.9697 68.9377 54.8449 69.9303 54.7256 71.0422ZM59.3036 56.69C58.5605 57.6772 57.199 60.5249 56.9549 62.0111C58.4357 60.2808 59.4229 58.1763 59.3036 56.69Z" fill="#F3F0E8"/>
<path d="M109.281 41.8441C110.393 41.4753 111.386 41.2258 112.498 40.9763C114.602 40.8515 116.208 41.3451 117.694 42.8313C118.188 43.2002 118.437 43.4497 118.437 44.1928C118.313 44.5616 118.068 44.6864 117.694 44.8111C117.325 44.9359 116.826 44.8111 116.333 44.5616C115.964 44.4369 115.839 44.1928 115.465 44.068C114.971 43.6992 114.597 43.4497 114.103 43.5744C113.485 43.8239 112.867 43.9433 112.248 44.3175C106.927 46.6662 101.981 51.2441 98.0209 55.2037C89.1145 64.4844 86.3916 78.956 84.4118 88.4861C84.1623 89.354 83.6687 89.9723 83.4246 90.7155C82.8062 91.8274 81.8136 92.4457 80.5769 92.321C78.3476 92.0715 76.4926 91.0843 75.6301 88.9797C75.0118 87.8678 74.6429 86.7504 74.3934 85.5137C74.1439 83.9082 73.8998 82.1725 73.7751 80.5669C73.4062 76.6073 73.1567 72.6477 73.1567 68.444C73.2815 65.7211 73.2815 62.8789 73.6503 60.0312C74.0192 57.0642 74.5182 54.2165 75.2559 51.3689C75.6247 50.2569 75.8742 49.2643 76.3678 48.2771C76.6173 47.7835 76.7367 47.534 76.9862 47.0404C77.854 45.679 79.0907 45.0606 80.6963 45.1854C82.0577 45.5542 83.1697 45.9285 84.2816 46.7909C85.3936 47.7781 86.0119 49.1396 86.0119 50.8753C85.7624 52.2367 85.7624 53.7229 85.6431 55.2037C85.2742 57.6771 85.0247 60.1505 84.9 62.6293C84.7752 65.2275 84.6504 67.9504 84.5311 70.6733C84.4064 72.6531 84.2816 74.6329 84.1623 76.7375C84.1623 76.7375 84.287 76.7375 84.4118 76.7375C83.6687 61.6422 96.6594 48.5266 109.281 41.8441Z" fill="#F3F0E8"/>
<path d="M127.837 85.8881C128.824 84.5267 129.692 83.1652 130.56 81.6845C131.797 79.5799 132.79 77.4808 133.777 75.2515C133.652 75.1267 133.652 75.0019 133.652 74.8826C132.046 72.1597 131.547 69.068 131.423 65.9762C131.423 62.8845 132.041 59.912 133.153 57.0698C133.522 55.7083 134.14 54.4717 134.758 53.1102C135.127 52.2423 135.751 51.3799 136.369 50.7615C137.237 49.7744 138.349 49.2754 139.711 49.4001C140.947 49.5249 141.815 50.1432 142.309 51.2552C142.678 51.9983 142.802 52.7414 142.927 53.4845C143.052 55.4643 143.052 57.4441 142.802 59.4239C142.309 63.7523 141.072 67.8367 139.586 71.7963C139.461 72.1651 139.336 72.4146 139.336 72.6641C139.336 74.5192 141.81 78.4788 154.925 64.0018C159.01 58.1872 159.129 58.1872 159.628 56.5762C160.615 55.589 161.733 55.3395 162.845 55.9579C163.463 56.3267 163.832 57.0698 163.463 57.8129C162.351 60.6606 159.997 63.9964 157.898 66.5945C146.393 80.9468 139.586 79.0917 136.988 78.2239C136.863 78.4734 136.619 78.7175 136.494 78.967C135.626 80.822 134.764 82.6771 133.771 84.4128C133.153 85.6495 132.285 86.7614 131.542 87.8788C130.674 88.9908 129.812 89.9834 128.694 90.6017C127.333 91.4696 125.847 91.9632 124.241 91.8384C122.63 91.7137 121.393 91.0953 120.281 89.9833C119.538 89.1155 118.92 88.2531 118.551 87.2605C117.683 85.5302 117.065 83.6751 116.447 81.8146C115.579 78.7229 114.96 75.3816 114.467 72.1651C113.973 69.4422 113.724 66.8441 113.48 64.1212C113.48 63.0092 113.48 62.0166 113.48 61.0294C113.48 58.0624 113.355 55.09 113.48 52.123C113.604 49.2753 113.848 46.5579 114.467 43.835C114.592 43.0918 114.96 42.3488 115.21 41.6056C115.828 39.7506 117.19 38.8827 119.17 38.6387C120.531 38.5139 121.892 38.8882 123.129 39.6258C124.116 40.2442 124.615 41.112 124.615 42.3487C124.615 45.0717 124.615 47.7946 124.366 50.5121C124.241 52.7414 124.116 54.9653 123.997 57.1946C123.872 57.8129 123.872 58.3065 123.872 58.9249C123.872 62.2661 123.748 65.6074 123.748 68.9486C123.748 71.7963 123.748 74.7633 123.997 77.6109C124.122 80.0843 124.247 82.5577 124.865 85.0366C125.114 85.7797 125.358 86.5228 125.608 87.2659C125.733 87.5154 125.857 87.6347 125.977 87.7595C126.725 87.2496 127.344 86.6312 127.837 85.8881ZM138.724 54.591C138.355 55.8277 137.98 56.9396 137.612 58.1763C136.993 60.525 136.868 62.879 136.993 65.3524C137.118 65.6019 136.993 65.9708 137.362 66.2203C138.23 63.8716 138.848 61.5176 139.217 59.0442C139.467 57.6827 139.467 56.3213 139.467 54.9598C139.467 54.591 139.467 54.092 139.098 53.7231C138.973 54.092 138.848 54.3415 138.724 54.591Z" fill="#F3F0E8"/>
<path d="M169.278 40.3635C168.29 42.9617 166.43 43.7048 163.832 43.2112C162.47 42.9617 161.109 42.3433 160.122 41.2314C158.267 39.2516 157.155 37.0223 157.274 34.3048C157.399 31.8314 158.511 29.7268 160.615 28.3654C161.852 27.4975 163.213 27.4975 164.7 27.9965C165.318 28.1213 165.687 28.4901 166.186 28.9837C166.435 29.2332 166.679 29.6021 166.929 29.8516C167.797 30.4699 168.415 31.3378 168.909 32.325C169.527 33.8112 169.777 35.292 169.896 36.7782C169.896 38.1342 169.652 39.2462 169.278 40.3635ZM171.507 90.7156C172.619 89.2294 173.611 87.6239 174.474 86.0129C177.072 81.3102 179.421 76.4882 181.65 71.6607C183.505 67.7011 185.235 63.6167 186.597 59.5378C186.722 59.0442 186.846 58.6699 187.09 58.3011C187.34 57.6827 187.709 57.4332 188.202 57.4332C188.696 57.3085 189.19 57.3085 189.689 57.558C190.057 57.6827 190.432 57.9268 190.556 58.4258C190.188 59.5378 189.813 60.7745 189.444 61.8919C188.208 65.9762 186.477 69.9358 184.742 73.89C182.637 78.9616 180.164 84.0331 177.69 88.9853C176.947 90.7156 176.085 92.3266 174.967 93.8128C174.349 94.5559 173.731 95.1742 173.112 95.7926C171.257 97.5229 169.028 97.8972 166.679 97.3981C165.193 97.1486 163.832 96.4109 162.969 95.1688C162.101 94.1816 161.608 93.0643 161.114 91.9523C160.246 89.8478 159.628 87.7486 159.134 85.5193C158.023 80.5725 157.648 75.501 157.898 70.424C158.147 66.2149 158.641 62.1359 159.628 58.0516C159.878 57.0644 160.246 56.0718 160.615 55.2039C160.984 53.9672 161.977 53.4736 163.089 53.4736C164.201 53.3489 165.193 53.5984 166.056 54.2167C167.043 54.7103 167.542 55.5782 167.542 56.6901C167.542 57.6773 167.542 58.6699 167.542 59.6571C167.417 61.2681 167.292 62.9984 167.292 64.6039C167.168 67.2021 167.043 69.6755 167.043 72.2736C166.918 74.1287 166.918 76.2332 167.043 78.0883C167.168 82.0479 167.536 86.0075 168.529 89.7176C168.779 90.5854 169.023 91.3286 169.272 92.0662C169.397 92.3157 169.522 92.5598 169.641 92.9341C170.514 92.1964 171.138 91.4587 171.507 90.7156Z" fill="#F3F0E8"/>
<path d="M211.342 52.2369C210.598 51.9874 210.105 51.4938 209.731 50.8754C209.362 50.1323 209.237 49.2699 209.237 48.5268C209.112 47.2901 209.112 46.0534 208.988 44.8167C208.863 43.8295 208.619 42.9616 208.369 42.0938C208.369 41.969 208.244 41.725 208.12 41.4754C207.87 41.725 207.626 41.8443 207.377 42.0938C206.265 42.9616 205.397 43.9488 204.529 45.0608C202.18 48.1525 200.325 51.4938 198.839 54.9598C196.734 60.0314 195.254 65.2277 194.386 70.6735C193.643 74.8772 193.274 79.0863 193.399 83.29C193.523 85.8881 193.767 88.4863 194.386 91.0844C194.635 91.9523 194.879 92.8147 195.129 93.5578C195.378 94.0514 195.622 94.545 195.872 95.044C196.241 94.9193 196.49 94.9193 196.615 94.7945C197.358 94.4257 197.977 93.9267 198.595 93.4331C199.956 92.3211 200.944 90.9597 202.061 89.5982C205.646 84.7708 208.988 79.6992 211.835 74.3836C214.683 69.312 217.4 64.1157 219.754 58.7946C220.004 58.301 220.248 57.8075 220.622 57.4332C221.241 56.446 222.727 56.3212 223.589 57.0643C223.839 57.3138 223.958 57.6827 223.839 58.0515C223.839 58.0515 223.839 58.1763 223.714 58.3011C219.63 67.701 214.932 76.857 209.98 85.8881C208.743 87.9927 207.507 90.0918 206.145 92.0716C205.402 93.3083 204.415 94.4203 203.422 95.657C202.555 96.6496 201.567 97.3873 200.455 98.1304C197.114 100.11 192.292 99.7359 189.32 96.5194C188.452 95.6516 187.709 94.6643 187.215 93.5524C186.228 91.5726 185.485 89.468 184.986 87.2441C184.118 83.534 183.749 79.6992 183.874 75.9837C183.874 66.4589 185.978 57.5471 190.432 49.1343C191.918 46.2866 193.523 43.6885 195.628 41.4646C196.865 39.8536 198.226 38.6169 199.832 37.505C200.699 36.8866 201.562 36.393 202.43 36.0188C205.397 34.7821 208.244 35.0316 210.967 36.7619C213.197 38.2481 214.433 40.3472 214.677 42.9454C214.802 44.3068 214.802 45.6683 214.553 46.905C214.184 48.3912 213.934 49.7526 213.685 51.1141C213.56 51.4829 213.435 51.7324 213.316 51.9819C212.703 52.6111 211.96 52.4864 211.342 52.2369Z" fill="#F3F0E8"/>
<path d="M226.187 71.0422C225.938 73.6404 226.063 76.3633 226.437 79.0862C226.686 80.1982 226.931 81.4349 227.424 82.5522C227.549 82.8018 227.674 83.0458 227.793 83.2953C228.042 83.1706 228.162 83.0458 228.411 82.9265C229.648 81.9393 230.641 80.6972 231.628 79.4605C233.114 77.6054 234.595 75.5009 235.831 73.3963C239.297 67.9505 242.633 62.2606 245.731 56.5707C246.099 56.0771 246.349 55.4588 246.718 54.9598C246.842 54.5909 247.211 54.3414 247.586 54.2166C248.204 54.0919 248.822 54.0919 249.441 54.3414C249.934 54.5909 250.308 54.835 250.433 55.4533C249.815 56.69 249.321 58.0515 248.578 59.2882C247.466 61.5175 246.354 63.8661 245.112 66.09C242.639 70.4185 240.285 74.8717 237.811 79.2055C236.943 80.6917 235.956 82.0532 235.088 83.4147C234.221 84.6514 233.233 85.644 232.121 86.5064C231.134 87.2495 230.142 87.7431 228.905 87.8679C226.057 88.2367 223.709 87.3743 221.854 85.2697C220.866 84.1578 220.243 83.0404 219.749 81.6844C218.881 79.455 218.263 77.1064 218.019 74.633C217.894 73.7652 217.769 73.0221 217.769 72.2844C217.52 67.7064 218.388 63.378 219.874 59.1688C220.617 57.0643 221.604 55.0845 222.721 53.1047C223.465 51.9927 224.327 51.0001 225.32 50.1377C226.556 49.0258 227.918 48.2826 229.529 48.1579C232.376 48.0331 234.6 49.0258 236.211 51.2496C236.954 52.3616 237.198 53.479 237.323 54.7157C237.448 56.2019 237.198 57.5633 236.705 58.9194C236.086 61.0239 234.975 63.0037 233.488 64.734C232.995 65.2276 232.501 65.7212 232.002 66.0955C230.641 67.2074 229.154 67.8257 227.424 67.8257C227.299 67.8257 227.055 67.8257 226.931 67.8257C226.806 67.8257 226.806 67.8257 226.806 67.9505C226.431 68.9377 226.312 69.9303 226.187 71.0422ZM230.765 56.69C230.022 57.6772 228.661 60.5249 228.417 62.0111C229.898 60.2808 230.885 58.1763 230.765 56.69Z" fill="#F3F0E8"/>
<path d="M260.951 80.6918C259.958 78.4625 258.721 76.2386 257.116 74.3835C255.879 72.8973 254.642 71.5359 253.406 70.0551C251.919 68.4441 250.439 66.8386 249.077 64.9835C247.347 62.5101 245.861 59.7872 244.993 56.8202C243.631 52.2423 244.006 47.6643 245.611 43.0864C246.479 40.613 247.716 38.1396 249.571 36.035C250.563 34.7983 251.675 33.8057 253.156 33.068C255.754 31.8313 258.477 31.8313 261.075 33.1928C261.569 33.5616 262.068 33.8111 262.437 34.3047C263.923 35.6662 264.167 37.1524 263.18 39.0074C262.187 39.6258 261.2 39.1322 260.213 38.7579C259.963 38.8827 259.844 39.1267 259.719 39.3763C259.35 39.9946 258.976 40.613 258.607 41.3561C257.371 44.3231 256.503 47.4202 256.259 50.6367C256.009 53.978 256.508 57.3193 257.989 60.411C258.732 61.8972 259.475 63.2587 260.462 64.6147C261.574 66.1009 262.692 67.5817 263.679 68.9431C264.791 70.4293 265.783 71.9101 266.895 73.3963C267.02 73.6459 267.145 73.7652 267.264 73.8899C267.633 73.8899 267.883 73.5211 268.132 73.2716C271.598 69.8056 275.183 66.345 278.894 63.0037C280.749 61.2734 282.853 59.6625 284.958 57.9322C285.826 57.1891 286.938 56.5707 287.925 55.8276C288.793 55.334 289.53 55.334 290.398 55.7029C291.141 56.1965 291.266 56.8148 290.648 57.4332C290.398 57.5579 290.279 57.6827 290.029 57.9267C288.05 59.2882 286.319 60.7744 284.464 62.38C280.136 66.3396 276.051 70.4239 272.092 74.6276C271.099 75.7395 270.237 76.8569 269.244 78.0936C269.369 78.3431 269.494 78.712 269.613 78.9615C270.974 82.3027 271.468 85.8881 271.468 89.4788C271.468 93.0696 271.099 96.4054 269.982 99.8715C269.613 100.983 269.114 102.101 268.496 103.213C268.002 104.081 267.508 104.818 266.765 105.561C264.661 107.292 262.437 108.035 259.839 107.172C258.602 106.803 257.609 106.06 256.872 104.943C256.378 104.2 256.129 103.337 255.884 102.594C255.266 100.246 255.266 97.8916 255.516 95.543C256.009 90.8403 257.864 86.5118 260.462 82.4275C260.712 82.0586 260.831 81.6844 261.206 81.3155C261.07 81.066 261.07 80.8165 260.951 80.6918ZM263.05 88.3615C263.05 88.4862 262.925 88.7303 262.8 88.8551C262.057 90.5854 261.439 92.4458 260.945 94.1761C260.576 96.0312 260.202 97.7615 260.327 99.6219C260.452 100.734 260.696 101.851 261.195 102.963C261.319 103.088 261.319 103.332 261.564 103.332C262.057 102.963 262.307 102.345 262.551 101.727C263.044 100.116 263.419 98.51 263.419 96.899C263.543 94.9192 263.543 92.9394 263.543 91.0844C263.543 90.2165 263.419 89.2293 263.294 88.3615C263.174 88.3615 263.175 88.3615 263.05 88.3615Z" fill="#F3F0E8"/>
</svg>
