<svg width="96" height="87" viewBox="0 0 96 87" fill="none" xmlns="http://www.w3.org/2000/svg">
<path d="M77.4928 42.282C76.5952 42.282 75.8472 42.5812 75.0992 43.3292C74.3512 44.0772 74.052 44.8252 74.052 45.7228V79.3828H6.8816V14.1572H62.6824C63.58 14.1572 64.4776 13.858 65.076 13.11C65.824 12.362 66.1232 11.614 66.1232 10.7164C66.1232 9.81884 65.6744 9.07083 65.076 8.32283C64.328 7.57483 63.4304 7.27563 62.6824 7.27563H3.4408C1.6456 7.27563 0.1496 9.37004 0 10.7164V82.674C0 84.4692 1.6456 86.1148 3.4408 86.1148H77.4928C79.288 86.1148 80.9336 84.4692 80.9336 82.674V45.7228C80.9336 44.8252 80.6344 43.9276 79.8864 43.3292C79.1384 42.5812 78.2408 42.282 77.4928 42.282Z" fill="#2A1C2D"/>
<path d="M95.4448 2.93719C94.8464 1.74039 93.5 0.842786 92.1536 0.992386C91.256 0.992386 90.3584 1.44119 89.76 2.03959C83.776 8.32279 73.6032 19.094 63.8792 29.4164L63.58 29.7156C55.5016 38.3924 47.124 47.2188 41.2896 53.3524L40.0928 54.6988L24.684 41.0852C24.0856 40.4868 23.188 40.1876 22.1408 40.3372C21.2432 40.3372 20.3456 40.786 19.7472 41.3844C19.1488 41.9828 18.8496 42.8804 18.9992 43.9276C18.9992 44.8252 19.448 45.7228 20.0464 46.3212L37.9984 62.1788C38.5968 62.6276 39.3448 62.9268 40.2424 62.9268C41.14 62.9268 42.1872 62.6276 42.7856 61.8796C48.7696 55.5964 58.9424 44.6756 68.816 34.2036C78.54 23.7316 88.7128 12.9604 94.5472 6.82679C95.744 5.77959 96.0432 4.28359 95.4448 2.93719Z" fill="#2A1C2D"/>
</svg>
