<svg width="32" height="26" viewBox="0 0 32 26" fill="none" xmlns="http://www.w3.org/2000/svg">
<path d="M32 3.07757C30.8222 3.60055 29.557 3.95248 28.2291 4.11122C29.5853 3.29907 30.6253 2.01316 31.1151 0.47991C29.8475 1.23177 28.442 1.77812 26.9454 2.07345C25.7479 0.797387 24.0422 0 22.1542 0C18.5285 0 15.5896 2.93975 15.5896 6.56368C15.5896 7.07804 15.6486 7.5801 15.7594 8.05878C10.3036 7.7856 5.46687 5.17194 2.22761 1.19977C1.66394 2.16944 1.34026 3.29661 1.34026 4.5013C1.34026 6.77779 2.49837 8.78726 4.25953 9.96365C3.18388 9.9292 2.17099 9.63387 1.2861 9.14288C1.2861 9.17119 1.2861 9.19703 1.2861 9.22533C1.2861 12.4063 3.54817 15.0593 6.55236 15.661C6.00223 15.8112 5.42133 15.8911 4.82197 15.8911C4.39983 15.8911 3.98754 15.8493 3.58755 15.7742C4.42321 18.3817 6.84774 20.2805 9.72024 20.3334C7.47417 22.0943 4.64351 23.1439 1.56671 23.1439C1.0375 23.1439 0.514442 23.1132 0 23.0516C2.90573 24.9134 6.35545 26 10.0636 26C22.1395 26 28.741 15.9982 28.741 7.32415C28.741 7.0399 28.7349 6.75687 28.7226 6.47508C30.0062 5.54849 31.12 4.39301 32 3.07757Z" fill="#B85459"/>
</svg>
